<svg width="60" height="21" viewBox="0 0 60 21" fill="none" xmlns="http://www.w3.org/2000/svg">
<path d="M46.9769 5.12353H44.6279L43.3555 18.9243H59.3094L57.4497 5.12353H55.4922M46.9769 5.12353V7.76626M46.9769 5.12353C46.9769 5.12353 47.662 1.1106 50.9898 1.1106C54.977 1.1106 55.4922 5.12353 55.4922 5.12353M46.9769 5.12353H55.4922M55.4922 5.12353V7.76626" stroke="white"/>
<mask id="path-2-inside-1_62_7708" fill="white">
<path fill-rule="evenodd" clip-rule="evenodd" d="M0.568359 20.0989H17.4956C17.4956 14.6118 13.7063 10.1636 9.03198 10.1636C4.35765 10.1636 0.568359 14.6118 0.568359 20.0989Z"/>
</mask>
<path fill-rule="evenodd" clip-rule="evenodd" d="M0.568359 20.0989H17.4956C17.4956 14.6118 13.7063 10.1636 9.03198 10.1636C4.35765 10.1636 0.568359 14.6118 0.568359 20.0989Z" fill="black"/>
<path d="M0.568359 20.0989H-0.415721V21.083H0.568359V20.0989ZM17.4956 20.0989V21.083H18.4797V20.0989H17.4956ZM0.568359 21.083H17.4956V19.1148H0.568359V21.083ZM9.03198 11.1477C13.0208 11.1477 16.5115 15.0014 16.5115 20.0989H18.4797C18.4797 14.2221 14.3918 9.17949 9.03198 9.17949V11.1477ZM1.55244 20.0989C1.55244 15.0014 5.04319 11.1477 9.03198 11.1477V9.17949C3.67212 9.17949 -0.415721 14.2221 -0.415721 20.0989H1.55244Z" fill="white" mask="url(#path-2-inside-1_62_7708)"/>
<circle cx="9.03173" cy="6.53881" r="4.42836" fill="black" stroke="white" stroke-width="0.984081"/>
</svg>
