<svg width="178" height="46" viewBox="0 0 178 46" fill="none" xmlns="http://www.w3.org/2000/svg">
<path d="M167.118 41.9791C122.925 41.9791 78.7325 41.9497 34.5402 42.4007C26.2911 42.4849 18.0281 42.6134 9.78137 42.8457C7.21037 42.9182 4.73704 43.6656 2.16867 43.6656C-2.5494 43.6656 11.5985 43.2439 16.3166 43.2439C40.5235 43.2439 64.7282 44.0881 88.9301 44.4854C118.366 44.9686 147.799 44.9304 177.238 44.9304" stroke="#AE0000" stroke-linecap="round"/>
<path d="M73.6201 18.6218C76.0964 18.7996 78.9361 20.4327 80.3896 23.2973C81.3511 25.1924 81.7945 27.6326 82.5361 29.6926C82.6088 29.8945 82.9845 31.0868 83.1417 30.848C83.4721 30.3459 83.7331 29.7216 84.0377 29.1955C85.0331 27.4765 86.1504 25.902 87.3362 24.4259C88.8012 22.6024 90.3562 20.8871 92.0182 19.4077C93.3963 18.1812 94.8499 17.3387 96.3064 16.3243" stroke="#AE0000" stroke-linecap="round"/>
<path d="M79.363 1.4825L78.61 10.0892" stroke="#AE0000" stroke-linecap="round"/>
<path d="M75.517 1.52857C77.9368 1.58351 80.3564 1.64544 82.7763 1.69339C82.9257 1.69635 84.9038 1.86791 84.9502 1.55508C84.9676 1.43749 84.5742 1.19793 84.4936 1.1136C84.3895 1.00464 84.3878 0.859203 84.3817 1.12628C84.3452 2.73293 84.3923 4.33568 84.455 5.94118C84.5144 7.46271 84.5687 8.97598 84.5341 10.4976" stroke="#AE0000" stroke-linecap="round"/>
<path d="M84.6971 7.39723C85.569 7.41703 86.4443 7.42506 87.315 7.36537C87.7509 7.33549 88.4306 7.37374 88.4432 6.81787C88.4687 5.69329 88.4891 4.64408 88.67 3.53135C88.7534 3.01831 88.7342 2.48935 88.746 1.97092C88.7514 1.73267 88.7568 1.49441 88.7622 1.25615C88.7733 0.768186 88.5927 2.21994 88.567 2.70736C88.468 4.58094 88.5339 6.47276 88.652 8.34418C88.7086 9.2405 88.5863 10.3945 88.9008 11.2357" stroke="#AE0000" stroke-linecap="round"/>
<path d="M92.029 2.08608C91.9664 4.83958 91.8651 7.5949 91.8413 10.349C91.8348 11.1092 92.9083 10.4253 93.3232 10.3117C94.6335 9.95279 95.9891 9.55674 97.3401 9.41892" stroke="#AE0000" stroke-linecap="round"/>
<path d="M92.3037 4.97473C92.338 4.70041 95.3736 4.88346 95.772 4.88346" stroke="#AE0000" stroke-linecap="round"/>
<path d="M91.8711 0.986938L97.8022 1.1216" stroke="#AE0000" stroke-linecap="round"/>
</svg>
