<svg width="1099" height="525" viewBox="0 0 1099 525" fill="none" xmlns="http://www.w3.org/2000/svg">
<path d="M294.026 189.416L272.733 256.147L306.659 314.632L298.037 338.263L333.963 350.558L350.249 388.878L408.528 419.854L437.588 423.367L447.168 447.477L519.959 419.319H544.285L610.288 400.994L608.777 372.25L623.025 370.335L640.814 360.699L663.499 290.434L675.143 282.203L696.021 276.582L693.813 264.738L710.476 216.556L656.916 117.783L652.241 122.696L651.292 121.519L648.124 51.1814L540.611 39.5641L521.812 18.6528L436.688 0.9104L365.928 51.1817L318.064 80.438L272.579 157.491L277.557 182.949L294.026 189.416Z" fill="black" fill-opacity="0.29" stroke="white" stroke-width="1.23225"/>
<path d="M376.697 416.326H594.251V514.974H376.697V416.326Z" fill="black" stroke="white" stroke-width="1.23225"/>
<path d="M0.980488 506.046H4.38249C4.38249 506.438 4.30782 506.727 4.15849 506.914C4.00916 507.1 3.76182 507.194 3.41649 507.194H2.29649V518.002H3.41649C3.76182 518.002 4.00916 518.095 4.15849 518.282C4.30782 518.478 4.38249 518.772 4.38249 519.164H0.980488V506.046ZM5.64807 513.676C5.64807 513.33 5.73207 513.06 5.90007 512.864C6.06807 512.668 6.30607 512.57 6.61407 512.57H10.7441C10.7441 512.915 10.6601 513.186 10.4921 513.382C10.3241 513.578 10.0814 513.676 9.76407 513.676H5.64807ZM13.6855 508.552H12.8595C12.5422 508.552 12.2948 508.449 12.1175 508.244C11.9495 508.038 11.8655 507.758 11.8655 507.404H14.3855C14.5628 507.404 14.7075 507.464 14.8195 507.586C14.9408 507.698 15.0015 507.833 15.0015 507.992V516.238C15.0015 516.592 14.8895 516.863 14.6655 517.05C14.4415 517.236 14.1148 517.33 13.6855 517.33V508.552ZM16.6129 519.164C16.6129 518.772 16.6876 518.478 16.8369 518.282C16.9862 518.095 17.2336 518.002 17.5789 518.002H18.6989V507.194H17.5789C17.2336 507.194 16.9862 507.1 16.8369 506.914C16.6876 506.727 16.6129 506.438 16.6129 506.046H20.0149V519.164H16.6129Z" fill="white"/>
<path d="M4.21486 345.071H7.61686C7.61686 345.463 7.5422 345.752 7.39286 345.939C7.24353 346.125 6.9962 346.219 6.65086 346.219H5.53086V357.027H6.65086C6.9962 357.027 7.24353 357.12 7.39286 357.307C7.5422 357.503 7.61686 357.797 7.61686 358.189H4.21486V345.071ZM10.5624 347.577H9.73644C9.41911 347.577 9.17177 347.474 8.99444 347.269C8.82644 347.063 8.74244 346.783 8.74244 346.429H11.2624C11.4398 346.429 11.5844 346.489 11.6964 346.611C11.8178 346.723 11.8784 346.858 11.8784 347.017V355.263C11.8784 355.617 11.7664 355.888 11.5424 356.075C11.3184 356.261 10.9918 356.355 10.5624 356.355V347.577ZM13.4899 358.189C13.4899 357.797 13.5645 357.503 13.7139 357.307C13.8632 357.12 14.1105 357.027 14.4559 357.027H15.5759V346.219H14.4559C14.1105 346.219 13.8632 346.125 13.7139 345.939C13.5645 345.752 13.4899 345.463 13.4899 345.071H16.8919V358.189H13.4899Z" fill="white"/>
<path d="M2.6758 238.782H6.0778C6.0778 239.174 6.00313 239.464 5.8538 239.65C5.70447 239.837 5.45713 239.93 5.1118 239.93H3.9918V250.738H5.1118C5.45713 250.738 5.70447 250.832 5.8538 251.018C6.00313 251.214 6.0778 251.508 6.0778 251.9H2.6758V238.782ZM7.94538 249.94C7.75871 249.94 7.60938 249.889 7.49738 249.786C7.39471 249.684 7.34338 249.544 7.34338 249.366C7.34338 248.648 7.61871 247.976 8.16938 247.35C8.72005 246.725 9.58338 246.104 10.7594 245.488C11.4314 245.134 11.94 244.83 12.2854 244.578C12.64 244.317 12.8827 244.06 13.0134 243.808C13.1534 243.547 13.2234 243.239 13.2234 242.884C13.2234 242.334 13.0414 241.914 12.6774 241.624C12.3227 241.335 11.8 241.19 11.1094 241.19C10.3627 241.19 9.77938 241.368 9.35938 241.722C8.94871 242.077 8.74338 242.572 8.74338 243.206C8.74338 243.374 8.75738 243.552 8.78538 243.738L8.61738 243.752C8.28138 243.752 7.99671 243.654 7.76338 243.458C7.53005 243.262 7.41338 243.02 7.41338 242.73C7.41338 242.226 7.57671 241.769 7.90338 241.358C8.23005 240.938 8.67338 240.612 9.23338 240.378C9.80271 240.136 10.428 240.014 11.1094 240.014C11.8094 240.014 12.4207 240.131 12.9434 240.364C13.466 240.598 13.8674 240.934 14.1474 241.372C14.4274 241.802 14.5674 242.306 14.5674 242.884C14.5674 243.547 14.3247 244.144 13.8394 244.676C13.3634 245.208 12.556 245.773 11.4174 246.37C9.76538 247.248 8.89271 248.055 8.79938 248.792H13.6014C13.956 248.792 14.2267 248.89 14.4134 249.086C14.6 249.282 14.6934 249.567 14.6934 249.94H7.94538ZM15.9567 251.9C15.9567 251.508 16.0313 251.214 16.1807 251.018C16.33 250.832 16.5773 250.738 16.9227 250.738H18.0427V239.93H16.9227C16.5773 239.93 16.33 239.837 16.1807 239.65C16.0313 239.464 15.9567 239.174 15.9567 238.782H19.3587V251.9H15.9567Z" fill="white"/>
<path d="M2.6758 132.914H6.0778C6.0778 133.306 6.00313 133.595 5.8538 133.782C5.70447 133.968 5.45713 134.062 5.1118 134.062H3.9918V144.87H5.1118C5.45713 144.87 5.70447 144.963 5.8538 145.15C6.00313 145.346 6.0778 145.64 6.0778 146.032H2.6758V132.914ZM11.0394 144.198C10.33 144.198 9.69538 144.086 9.13538 143.862C8.57538 143.638 8.13671 143.33 7.81938 142.938C7.50205 142.536 7.34338 142.084 7.34338 141.58C7.34338 141.225 7.44605 140.968 7.65138 140.81C7.86605 140.642 8.19271 140.562 8.63138 140.572C8.61271 140.833 8.60338 141.006 8.60338 141.09C8.60338 141.715 8.81338 142.196 9.23338 142.532C9.65338 142.858 10.2554 143.022 11.0394 143.022C12.6634 143.022 13.4754 142.466 13.4754 141.356C13.4754 140.805 13.284 140.385 12.9014 140.096C12.5187 139.797 11.9634 139.648 11.2354 139.648H10.7454C10.5774 139.648 10.4374 139.596 10.3254 139.494C10.2227 139.382 10.1714 139.242 10.1714 139.074C10.1714 138.896 10.2227 138.756 10.3254 138.654C10.4374 138.551 10.5774 138.5 10.7454 138.5H11.2494C11.8467 138.5 12.318 138.355 12.6634 138.066C13.018 137.767 13.1954 137.37 13.1954 136.876C13.1954 136.362 13.018 135.975 12.6634 135.714C12.318 135.452 11.8047 135.322 11.1234 135.322C10.3954 135.322 9.83538 135.452 9.44338 135.714C9.06071 135.966 8.86938 136.334 8.86938 136.82C8.86938 137.016 8.88805 137.184 8.92538 137.324C8.53338 137.342 8.21605 137.268 7.97338 137.1C7.73071 136.932 7.60938 136.698 7.60938 136.4C7.60938 135.97 7.75871 135.588 8.05738 135.252C8.36538 134.906 8.78538 134.636 9.31738 134.44C9.84938 134.244 10.4514 134.146 11.1234 134.146C11.8047 134.146 12.402 134.258 12.9154 134.482C13.438 134.706 13.8394 135.023 14.1194 135.434C14.3994 135.844 14.5394 136.325 14.5394 136.876C14.5394 137.837 14.0307 138.565 13.0134 139.06C13.6387 139.312 14.0914 139.62 14.3714 139.984C14.6607 140.348 14.8054 140.805 14.8054 141.356C14.8054 142.233 14.4694 142.928 13.7974 143.442C13.1254 143.946 12.206 144.198 11.0394 144.198ZM16.066 146.032C16.066 145.64 16.1407 145.346 16.29 145.15C16.4394 144.963 16.6867 144.87 17.032 144.87H18.152V134.062H17.032C16.6867 134.062 16.4394 133.968 16.29 133.782C16.1407 133.595 16.066 133.306 16.066 132.914H19.468V146.032H16.066Z" fill="white"/>
<circle cx="485.474" cy="224.194" r="192.149" fill="black" stroke="white" stroke-width="1.23225"/>
<path d="M306.356 293.092L662.494 292.333" stroke="white" stroke-width="1.23225"/>
<path d="M296.377 189.278L674.64 189.278" stroke="white" stroke-width="1.23225"/>
<path d="M387.397 389.163L584.149 389.115" stroke="white" stroke-width="1.23225"/>
<path d="M338.608 100.331L632.7 100.331" stroke="white" stroke-width="1.23225"/>
<path d="M2.6758 38.1362H6.0778C6.0778 38.5282 6.00313 38.8175 5.8538 39.0042C5.70447 39.1909 5.45713 39.2842 5.1118 39.2842H3.9918V50.0922H5.1118C5.45713 50.0922 5.70447 50.1855 5.8538 50.3722C6.00313 50.5682 6.0778 50.8622 6.0778 51.2542H2.6758V38.1362ZM12.2994 46.8582H7.77738C7.60005 46.8582 7.46005 46.8115 7.35738 46.7182C7.25471 46.6249 7.20338 46.4989 7.20338 46.3402C7.20338 46.1909 7.25471 46.0509 7.35738 45.9202L12.4814 39.5922C12.5374 39.5269 12.6167 39.4755 12.7194 39.4382C12.822 39.3915 12.934 39.3682 13.0554 39.3682C13.2327 39.3682 13.3727 39.4242 13.4754 39.5362C13.578 39.6389 13.6294 39.7789 13.6294 39.9562V45.7102H15.2674C15.2674 46.1115 15.188 46.4055 15.0294 46.5922C14.88 46.7695 14.642 46.8582 14.3154 46.8582H13.6294V48.4262C13.6294 49.0889 13.186 49.4202 12.2994 49.4202V46.8582ZM12.3554 45.7102V41.6502L12.7894 41.0762L12.7054 41.0202L8.98138 45.7102H12.3554ZM16.3942 51.2542C16.3942 50.8622 16.4688 50.5682 16.6182 50.3722C16.7675 50.1855 17.0148 50.0922 17.3602 50.0922H18.4802V39.2842H17.3602C17.0148 39.2842 16.7675 39.1909 16.6182 39.0042C16.4688 38.8175 16.3942 38.5282 16.3942 38.1362H19.7962V51.2542H16.3942Z" fill="white"/>
<path d="M930.886 512.179C930.886 512.001 930.946 511.857 931.068 511.745C931.198 511.623 931.362 511.563 931.558 511.563H935.422C936.327 511.563 937.046 511.829 937.578 512.361C938.119 512.883 938.39 513.583 938.39 514.461C938.39 515.562 937.909 516.341 936.948 516.799V516.841C937.368 517.018 937.69 517.289 937.914 517.653C938.138 518.007 938.25 518.441 938.25 518.955V520.397C938.25 520.751 938.138 521.022 937.914 521.209C937.69 521.395 937.363 521.489 936.934 521.489V519.039C936.934 518.488 936.808 518.073 936.556 517.793C936.313 517.503 935.949 517.359 935.464 517.359H932.188V520.397C932.188 520.751 932.076 521.022 931.852 521.209C931.637 521.395 931.315 521.489 930.886 521.489V512.179ZM935.38 516.225C935.893 516.225 936.299 516.066 936.598 515.749C936.906 515.431 937.06 514.997 937.06 514.447C937.06 513.887 936.915 513.457 936.626 513.159C936.336 512.86 935.921 512.711 935.38 512.711H932.188V516.225H935.38ZM940.756 521.489C940.476 521.433 940.257 521.316 940.098 521.139C939.939 520.952 939.86 520.728 939.86 520.467C939.86 520.289 939.902 520.103 939.986 519.907L943.332 511.857C943.444 511.577 943.659 511.437 943.976 511.437C944.275 511.437 944.485 511.577 944.606 511.857L947.952 519.907C948.036 520.103 948.078 520.289 948.078 520.467C948.078 520.719 947.999 520.938 947.84 521.125C947.681 521.311 947.462 521.433 947.182 521.489L945.978 518.563H941.96L940.756 521.489ZM945.572 517.429L943.766 512.851L943.654 512.893L943.906 513.537L942.366 517.429H945.572ZM953.263 521.489C952.47 521.489 951.765 521.344 951.149 521.055C950.533 520.756 950.052 520.345 949.707 519.823C949.362 519.291 949.189 518.689 949.189 518.017V514.881C949.189 514.209 949.357 513.611 949.693 513.089C950.038 512.566 950.514 512.16 951.121 511.871C951.728 511.581 952.423 511.437 953.207 511.437C953.991 511.437 954.686 511.563 955.293 511.815C955.9 512.057 956.371 512.398 956.707 512.837C957.052 513.275 957.225 513.775 957.225 514.335C957.225 514.615 957.132 514.834 956.945 514.993C956.758 515.151 956.511 515.231 956.203 515.231C956.138 515.231 956.04 515.221 955.909 515.203C955.928 515.091 955.937 514.913 955.937 514.671C955.937 514.269 955.82 513.91 955.587 513.593C955.363 513.275 955.041 513.028 954.621 512.851C954.21 512.673 953.739 512.585 953.207 512.585C952.684 512.585 952.218 512.683 951.807 512.879C951.396 513.065 951.074 513.336 950.841 513.691C950.617 514.036 950.505 514.433 950.505 514.881V518.017C950.505 518.465 950.622 518.866 950.855 519.221C951.088 519.575 951.415 519.851 951.835 520.047C952.255 520.243 952.731 520.341 953.263 520.341C953.786 520.341 954.252 520.252 954.663 520.075C955.083 519.897 955.405 519.645 955.629 519.319C955.862 518.992 955.979 518.623 955.979 518.213V517.429H954.215C953.926 517.429 953.692 517.331 953.515 517.135C953.338 516.929 953.249 516.663 953.249 516.337H956.665C956.852 516.337 957.001 516.393 957.113 516.505C957.234 516.617 957.295 516.766 957.295 516.953V518.227C957.295 518.861 957.122 519.426 956.777 519.921C956.441 520.415 955.965 520.803 955.349 521.083C954.742 521.353 954.047 521.489 953.263 521.489ZM959.05 512.179C959.05 512.001 959.115 511.857 959.246 511.745C959.376 511.623 959.535 511.563 959.722 511.563H965.924C965.924 511.955 965.844 512.244 965.686 512.431C965.527 512.617 965.28 512.711 964.944 512.711H960.366V515.847H964.286C964.286 516.239 964.206 516.528 964.048 516.715C963.889 516.901 963.646 516.995 963.32 516.995H960.366V520.215H965.238C965.564 520.215 965.807 520.308 965.966 520.495C966.124 520.681 966.204 520.971 966.204 521.363H959.722C959.535 521.363 959.376 521.307 959.246 521.195C959.115 521.073 959.05 520.924 959.05 520.747V512.179ZM971.423 512.179C971.423 512.001 971.484 511.857 971.605 511.745C971.736 511.623 971.899 511.563 972.095 511.563H975.959C976.864 511.563 977.583 511.829 978.115 512.361C978.656 512.883 978.927 513.583 978.927 514.461C978.927 515.562 978.446 516.341 977.485 516.799V516.841C977.905 517.018 978.227 517.289 978.451 517.653C978.675 518.007 978.787 518.441 978.787 518.955V520.397C978.787 520.751 978.675 521.022 978.451 521.209C978.227 521.395 977.9 521.489 977.471 521.489V519.039C977.471 518.488 977.345 518.073 977.093 517.793C976.85 517.503 976.486 517.359 976.001 517.359H972.725V520.397C972.725 520.751 972.613 521.022 972.389 521.209C972.174 521.395 971.852 521.489 971.423 521.489V512.179ZM975.917 516.225C976.43 516.225 976.836 516.066 977.135 515.749C977.443 515.431 977.597 514.997 977.597 514.447C977.597 513.887 977.452 513.457 977.163 513.159C976.874 512.86 976.458 512.711 975.917 512.711H972.725V516.225H975.917ZM984.224 521.489C983.449 521.489 982.754 521.339 982.138 521.041C981.531 520.733 981.055 520.313 980.71 519.781C980.365 519.239 980.192 518.642 980.192 517.989V514.909C980.192 514.255 980.365 513.667 980.71 513.145C981.055 512.613 981.531 512.197 982.138 511.899C982.754 511.591 983.449 511.437 984.224 511.437C985.008 511.437 985.703 511.591 986.31 511.899C986.926 512.197 987.407 512.613 987.752 513.145C988.097 513.667 988.27 514.255 988.27 514.909V517.989C988.27 518.642 988.097 519.239 987.752 519.781C987.407 520.313 986.926 520.733 986.31 521.041C985.694 521.339 984.999 521.489 984.224 521.489ZM984.224 520.341C985.092 520.341 985.769 520.126 986.254 519.697C986.739 519.267 986.982 518.693 986.982 517.975V514.937C986.982 514.218 986.739 513.649 986.254 513.229C985.769 512.799 985.092 512.585 984.224 512.585C983.365 512.585 982.693 512.799 982.208 513.229C981.723 513.649 981.48 514.218 981.48 514.937V517.975C981.48 518.693 981.723 519.267 982.208 519.697C982.693 520.126 983.365 520.341 984.224 520.341ZM993.562 521.489C992.787 521.489 992.092 521.339 991.476 521.041C990.869 520.733 990.393 520.313 990.048 519.781C989.703 519.239 989.53 518.642 989.53 517.989V514.909C989.53 514.255 989.703 513.667 990.048 513.145C990.393 512.613 990.869 512.197 991.476 511.899C992.092 511.591 992.787 511.437 993.562 511.437C994.346 511.437 995.041 511.591 995.648 511.899C996.264 512.197 996.745 512.613 997.09 513.145C997.435 513.667 997.608 514.255 997.608 514.909V517.989C997.608 518.642 997.435 519.239 997.09 519.781C996.745 520.313 996.264 520.733 995.648 521.041C995.032 521.339 994.337 521.489 993.562 521.489ZM993.562 520.341C994.43 520.341 995.107 520.126 995.592 519.697C996.077 519.267 996.32 518.693 996.32 517.975V514.937C996.32 514.218 996.077 513.649 995.592 513.229C995.107 512.799 994.43 512.585 993.562 512.585C992.703 512.585 992.031 512.799 991.546 513.229C991.061 513.649 990.818 514.218 990.818 514.937V517.975C990.818 518.693 991.061 519.267 991.546 519.697C992.031 520.126 992.703 520.341 993.562 520.341ZM999.218 512.529C999.218 512.183 999.334 511.917 999.568 511.731C999.801 511.535 1000.12 511.437 1000.53 511.437L1003.92 519.571L1003.66 520.229L1003.75 520.271L1007.34 511.437C1007.75 511.437 1008.07 511.535 1008.3 511.731C1008.55 511.927 1008.67 512.197 1008.67 512.543V521.489C1007.8 521.489 1007.37 521.129 1007.37 520.411V514.517L1007.73 513.551L1007.62 513.523L1004.5 521.111C1004.45 521.223 1004.37 521.311 1004.27 521.377C1004.17 521.451 1004.06 521.489 1003.95 521.489C1003.83 521.489 1003.72 521.456 1003.61 521.391C1003.51 521.325 1003.44 521.232 1003.39 521.111L1000.27 513.509L1000.16 513.551L1000.52 514.503V520.411C1000.52 520.765 1000.41 521.036 1000.18 521.223C999.969 521.4 999.647 521.489 999.218 521.489V512.529Z" fill="white"/>
<path d="M930.886 44.6191C930.886 44.2645 930.998 43.9938 931.222 43.8071C931.446 43.6205 931.772 43.5271 932.202 43.5271V47.9371H937.172V44.6191C937.172 44.2645 937.284 43.9938 937.508 43.8071C937.732 43.6205 938.058 43.5271 938.488 43.5271V52.4871C938.488 52.8418 938.376 53.1125 938.152 53.2991C937.928 53.4858 937.601 53.5791 937.172 53.5791V49.0991H932.202V52.4871C932.202 52.8418 932.09 53.1125 931.866 53.2991C931.642 53.4858 931.315 53.5791 930.886 53.5791V44.6191ZM940.988 53.5791C940.708 53.5231 940.489 53.4065 940.33 53.2291C940.172 53.0425 940.092 52.8185 940.092 52.5571C940.092 52.3798 940.134 52.1931 940.218 51.9971L943.564 43.9471C943.676 43.6671 943.891 43.5271 944.208 43.5271C944.507 43.5271 944.717 43.6671 944.838 43.9471L948.184 51.9971C948.268 52.1931 948.31 52.3798 948.31 52.5571C948.31 52.8091 948.231 53.0285 948.072 53.2151C947.914 53.4018 947.694 53.5231 947.414 53.5791L946.21 50.6531H942.192L940.988 53.5791ZM945.804 49.5191L943.998 44.9411L943.886 44.9831L944.138 45.6271L942.598 49.5191H945.804ZM949.917 44.2691C949.917 44.0918 949.978 43.9471 950.099 43.8351C950.23 43.7138 950.393 43.6531 950.589 43.6531H954.453C955.358 43.6531 956.077 43.9191 956.609 44.4511C957.15 44.9738 957.421 45.6738 957.421 46.5511C957.421 47.6525 956.94 48.4318 955.979 48.8891V48.9311C956.399 49.1085 956.721 49.3791 956.945 49.7431C957.169 50.0978 957.281 50.5318 957.281 51.0451V52.4871C957.281 52.8418 957.169 53.1125 956.945 53.2991C956.721 53.4858 956.394 53.5791 955.965 53.5791V51.1291C955.965 50.5785 955.839 50.1631 955.587 49.8831C955.344 49.5938 954.98 49.4491 954.495 49.4491H951.219V52.4871C951.219 52.8418 951.107 53.1125 950.883 53.2991C950.668 53.4858 950.346 53.5791 949.917 53.5791V44.2691ZM954.411 48.3151C954.924 48.3151 955.33 48.1565 955.629 47.8391C955.937 47.5218 956.091 47.0878 956.091 46.5371C956.091 45.9771 955.946 45.5478 955.657 45.2491C955.368 44.9505 954.952 44.8011 954.411 44.8011H951.219V48.3151H954.411ZM959.241 44.6191C959.241 44.2738 959.358 44.0078 959.591 43.8211C959.825 43.6251 960.147 43.5271 960.557 43.5271L963.945 51.6611L963.679 52.3191L963.777 52.3611L967.361 43.5271C967.772 43.5271 968.094 43.6251 968.327 43.8211C968.57 44.0171 968.691 44.2878 968.691 44.6331V53.5791C967.823 53.5791 967.389 53.2198 967.389 52.5011V46.6071L967.753 45.6411L967.641 45.6131L964.519 53.2011C964.473 53.3131 964.398 53.4018 964.295 53.4671C964.193 53.5418 964.085 53.5791 963.973 53.5791C963.852 53.5791 963.74 53.5465 963.637 53.4811C963.535 53.4158 963.46 53.3225 963.413 53.2011L960.291 45.5991L960.179 45.6411L960.543 46.5931V52.5011C960.543 52.8558 960.431 53.1265 960.207 53.3131C959.993 53.4905 959.671 53.5791 959.241 53.5791V44.6191ZM974.339 53.5791C973.565 53.5791 972.869 53.4298 972.253 53.1311C971.647 52.8231 971.171 52.4031 970.825 51.8711C970.48 51.3298 970.307 50.7325 970.307 50.0791V46.9991C970.307 46.3458 970.48 45.7578 970.825 45.2351C971.171 44.7031 971.647 44.2878 972.253 43.9891C972.869 43.6811 973.565 43.5271 974.339 43.5271C975.123 43.5271 975.819 43.6811 976.425 43.9891C977.041 44.2878 977.522 44.7031 977.867 45.2351C978.213 45.7578 978.385 46.3458 978.385 46.9991V50.0791C978.385 50.7325 978.213 51.3298 977.867 51.8711C977.522 52.4031 977.041 52.8231 976.425 53.1311C975.809 53.4298 975.114 53.5791 974.339 53.5791ZM974.339 52.4311C975.207 52.4311 975.884 52.2165 976.369 51.7871C976.855 51.3578 977.097 50.7838 977.097 50.0651V47.0271C977.097 46.3085 976.855 45.7391 976.369 45.3191C975.884 44.8898 975.207 44.6751 974.339 44.6751C973.481 44.6751 972.809 44.8898 972.323 45.3191C971.838 45.7391 971.595 46.3085 971.595 47.0271V50.0651C971.595 50.7838 971.838 51.3578 972.323 51.7871C972.809 52.2165 973.481 52.4311 974.339 52.4311ZM979.995 44.6611C979.995 44.3065 980.102 44.0311 980.317 43.8351C980.541 43.6298 980.849 43.5271 981.241 43.5271L986.673 51.7871L986.771 51.7031L986.365 51.0311V43.5271C986.794 43.5271 987.116 43.6205 987.331 43.8071C987.555 43.9938 987.667 44.2645 987.667 44.6191V52.5431C987.667 52.8418 987.56 53.0891 987.345 53.2851C987.14 53.4811 986.874 53.5791 986.547 53.5791L980.989 45.1371L980.891 45.2211L981.297 45.8931V52.4871C981.297 52.8418 981.185 53.1125 980.961 53.2991C980.746 53.4858 980.424 53.5791 979.995 53.5791V44.6611ZM992.414 49.8971L988.928 43.6951C988.994 43.6485 989.092 43.6111 989.222 43.5831C989.362 43.5458 989.493 43.5271 989.614 43.5271C990.09 43.5271 990.431 43.7278 990.636 44.1291L993.03 48.6231L992.736 49.2111L992.834 49.2671L995.494 44.1291C995.709 43.7278 996.054 43.5271 996.53 43.5271C996.652 43.5271 996.778 43.5458 996.908 43.5831C997.048 43.6111 997.151 43.6485 997.216 43.6951L993.73 49.8971V52.4871C993.73 52.8418 993.618 53.1125 993.394 53.2991C993.17 53.4858 992.844 53.5791 992.414 53.5791V49.8971ZM1002.43 44.2691C1002.43 44.0918 1002.49 43.9471 1002.61 43.8351C1002.74 43.7138 1002.91 43.6531 1003.1 43.6531H1006.97C1007.87 43.6531 1008.59 43.9191 1009.12 44.4511C1009.66 44.9738 1009.93 45.6738 1009.93 46.5511C1009.93 47.6525 1009.45 48.4318 1008.49 48.8891V48.9311C1008.91 49.1085 1009.23 49.3791 1009.46 49.7431C1009.68 50.0978 1009.79 50.5318 1009.79 51.0451V52.4871C1009.79 52.8418 1009.68 53.1125 1009.46 53.2991C1009.23 53.4858 1008.91 53.5791 1008.48 53.5791V51.1291C1008.48 50.5785 1008.35 50.1631 1008.1 49.8831C1007.86 49.5938 1007.49 49.4491 1007.01 49.4491H1003.73V52.4871C1003.73 52.8418 1003.62 53.1125 1003.4 53.2991C1003.18 53.4858 1002.86 53.5791 1002.43 53.5791V44.2691ZM1006.92 48.3151C1007.44 48.3151 1007.84 48.1565 1008.14 47.8391C1008.45 47.5218 1008.6 47.0878 1008.6 46.5371C1008.6 45.9771 1008.46 45.5478 1008.17 45.2491C1007.88 44.9505 1007.47 44.8011 1006.92 44.8011H1003.73V48.3151H1006.92ZM1015.23 53.5791C1014.46 53.5791 1013.76 53.4298 1013.15 53.1311C1012.54 52.8231 1012.06 52.4031 1011.72 51.8711C1011.37 51.3298 1011.2 50.7325 1011.2 50.0791V46.9991C1011.2 46.3458 1011.37 45.7578 1011.72 45.2351C1012.06 44.7031 1012.54 44.2878 1013.15 43.9891C1013.76 43.6811 1014.46 43.5271 1015.23 43.5271C1016.02 43.5271 1016.71 43.6811 1017.32 43.9891C1017.93 44.2878 1018.41 44.7031 1018.76 45.2351C1019.11 45.7578 1019.28 46.3458 1019.28 46.9991V50.0791C1019.28 50.7325 1019.11 51.3298 1018.76 51.8711C1018.41 52.4031 1017.93 52.8231 1017.32 53.1311C1016.7 53.4298 1016.01 53.5791 1015.23 53.5791ZM1015.23 52.4311C1016.1 52.4311 1016.78 52.2165 1017.26 51.7871C1017.75 51.3578 1017.99 50.7838 1017.99 50.0651V47.0271C1017.99 46.3085 1017.75 45.7391 1017.26 45.3191C1016.78 44.8898 1016.1 44.6751 1015.23 44.6751C1014.37 44.6751 1013.7 44.8898 1013.22 45.3191C1012.73 45.7391 1012.49 46.3085 1012.49 47.0271V50.0651C1012.49 50.7838 1012.73 51.3578 1013.22 51.7871C1013.7 52.2165 1014.37 52.4311 1015.23 52.4311ZM1024.57 53.5791C1023.8 53.5791 1023.1 53.4298 1022.48 53.1311C1021.88 52.8231 1021.4 52.4031 1021.06 51.8711C1020.71 51.3298 1020.54 50.7325 1020.54 50.0791V46.9991C1020.54 46.3458 1020.71 45.7578 1021.06 45.2351C1021.4 44.7031 1021.88 44.2878 1022.48 43.9891C1023.1 43.6811 1023.8 43.5271 1024.57 43.5271C1025.35 43.5271 1026.05 43.6811 1026.66 43.9891C1027.27 44.2878 1027.75 44.7031 1028.1 45.2351C1028.44 45.7578 1028.62 46.3458 1028.62 46.9991V50.0791C1028.62 50.7325 1028.44 51.3298 1028.1 51.8711C1027.75 52.4031 1027.27 52.8231 1026.66 53.1311C1026.04 53.4298 1025.34 53.5791 1024.57 53.5791ZM1024.57 52.4311C1025.44 52.4311 1026.11 52.2165 1026.6 51.7871C1027.09 51.3578 1027.33 50.7838 1027.33 50.0651V47.0271C1027.33 46.3085 1027.09 45.7391 1026.6 45.3191C1026.11 44.8898 1025.44 44.6751 1024.57 44.6751C1023.71 44.6751 1023.04 44.8898 1022.55 45.3191C1022.07 45.7391 1021.83 46.3085 1021.83 47.0271V50.0651C1021.83 50.7838 1022.07 51.3578 1022.55 51.7871C1023.04 52.2165 1023.71 52.4311 1024.57 52.4311ZM1030.23 44.6191C1030.23 44.2738 1030.34 44.0078 1030.58 43.8211C1030.81 43.6251 1031.13 43.5271 1031.54 43.5271L1034.93 51.6611L1034.66 52.3191L1034.76 52.3611L1038.35 43.5271C1038.76 43.5271 1039.08 43.6251 1039.31 43.8211C1039.55 44.0171 1039.68 44.2878 1039.68 44.6331V53.5791C1038.81 53.5791 1038.37 53.2198 1038.37 52.5011V46.6071L1038.74 45.6411L1038.63 45.6131L1035.5 53.2011C1035.46 53.3131 1035.38 53.4018 1035.28 53.4671C1035.18 53.5418 1035.07 53.5791 1034.96 53.5791C1034.84 53.5791 1034.72 53.5465 1034.62 53.4811C1034.52 53.4158 1034.44 53.3225 1034.4 53.2011L1031.28 45.5991L1031.16 45.6411L1031.53 46.5931V52.5011C1031.53 52.8558 1031.42 53.1265 1031.19 53.3131C1030.98 53.4905 1030.65 53.5791 1030.23 53.5791V44.6191Z" fill="white"/>
<path d="M931.572 148.072C931.385 148.072 931.222 148.006 931.082 147.876C930.951 147.736 930.886 147.572 930.886 147.386V139.238C930.886 138.51 931.324 138.146 932.202 138.146V146.91H936.5C936.826 146.91 937.078 147.012 937.256 147.218C937.433 147.414 937.522 147.698 937.522 148.072H931.572ZM938.993 138.888C938.993 138.71 939.059 138.566 939.189 138.454C939.32 138.332 939.479 138.272 939.665 138.272H945.867C945.867 138.664 945.788 138.953 945.629 139.14C945.471 139.326 945.223 139.42 944.887 139.42H940.309V142.556H944.229C944.229 142.948 944.15 143.237 943.991 143.424C943.833 143.61 943.59 143.704 943.263 143.704H940.309V146.924H945.181C945.508 146.924 945.751 147.017 945.909 147.204C946.068 147.39 946.147 147.68 946.147 148.072H939.665C939.479 148.072 939.32 148.016 939.189 147.904C939.059 147.782 938.993 147.633 938.993 147.456V138.888ZM951.034 148.198C950.25 148.198 949.55 148.053 948.934 147.764C948.318 147.465 947.837 147.054 947.492 146.532C947.156 146 946.988 145.398 946.988 144.726V141.59C946.988 140.918 947.156 140.32 947.492 139.798C947.837 139.275 948.313 138.869 948.92 138.58C949.527 138.29 950.222 138.146 951.006 138.146C951.79 138.146 952.485 138.272 953.092 138.524C953.699 138.766 954.17 139.107 954.506 139.546C954.851 139.984 955.024 140.488 955.024 141.058C955.024 141.338 954.931 141.557 954.744 141.716C954.557 141.874 954.31 141.954 954.002 141.954C953.937 141.954 953.839 141.944 953.708 141.926C953.727 141.814 953.736 141.636 953.736 141.394C953.736 140.992 953.619 140.633 953.386 140.316C953.162 139.998 952.84 139.751 952.42 139.574C952.009 139.396 951.538 139.308 951.006 139.308C950.483 139.308 950.017 139.406 949.606 139.602C949.195 139.788 948.873 140.059 948.64 140.414C948.416 140.759 948.304 141.151 948.304 141.59V144.726C948.304 145.174 948.416 145.575 948.64 145.93C948.873 146.275 949.195 146.546 949.606 146.742C950.026 146.938 950.502 147.036 951.034 147.036C951.575 147.036 952.056 146.947 952.476 146.77C952.896 146.592 953.223 146.35 953.456 146.042C953.689 145.724 953.806 145.36 953.806 144.95C953.806 144.8 953.797 144.623 953.778 144.418C953.909 144.399 954.002 144.39 954.058 144.39C954.366 144.39 954.613 144.478 954.8 144.656C954.996 144.833 955.094 145.071 955.094 145.37C955.094 145.92 954.921 146.41 954.576 146.84C954.231 147.269 953.75 147.605 953.134 147.848C952.527 148.081 951.827 148.198 951.034 148.198ZM958.995 139.434H955.579C955.579 138.659 955.943 138.272 956.671 138.272H963.713C963.713 139.046 963.349 139.434 962.621 139.434H960.311V147.106C960.311 147.46 960.199 147.731 959.975 147.918C959.751 148.104 959.425 148.198 958.995 148.198V139.434ZM969.038 148.198C968.301 148.198 967.634 148.048 967.036 147.75C966.439 147.451 965.968 147.04 965.622 146.518C965.286 145.986 965.118 145.393 965.118 144.74V139.238C965.118 138.883 965.23 138.612 965.454 138.426C965.678 138.239 966.005 138.146 966.434 138.146V144.74C966.434 145.421 966.672 145.972 967.148 146.392C967.634 146.812 968.264 147.022 969.038 147.022C969.813 147.022 970.438 146.812 970.914 146.392C971.39 145.972 971.628 145.421 971.628 144.74V139.238C971.628 138.883 971.74 138.612 971.964 138.426C972.188 138.239 972.515 138.146 972.944 138.146V144.74C972.944 145.393 972.776 145.986 972.44 146.518C972.104 147.04 971.638 147.451 971.04 147.75C970.443 148.048 969.776 148.198 969.038 148.198ZM974.841 138.888C974.841 138.71 974.902 138.566 975.023 138.454C975.154 138.332 975.317 138.272 975.513 138.272H979.377C980.282 138.272 981.001 138.538 981.533 139.07C982.074 139.592 982.345 140.292 982.345 141.17C982.345 142.271 981.864 143.05 980.903 143.508V143.55C981.323 143.727 981.645 143.998 981.869 144.362C982.093 144.716 982.205 145.15 982.205 145.664V147.106C982.205 147.46 982.093 147.731 981.869 147.918C981.645 148.104 981.318 148.198 980.889 148.198V145.748C980.889 145.197 980.763 144.782 980.511 144.502C980.268 144.212 979.904 144.068 979.419 144.068H976.143V147.106C976.143 147.46 976.031 147.731 975.807 147.918C975.592 148.104 975.27 148.198 974.841 148.198V138.888ZM979.335 142.934C979.848 142.934 980.254 142.775 980.553 142.458C980.861 142.14 981.015 141.706 981.015 141.156C981.015 140.596 980.87 140.166 980.581 139.868C980.292 139.569 979.876 139.42 979.335 139.42H976.143V142.934H979.335ZM984.165 138.888C984.165 138.71 984.23 138.566 984.361 138.454C984.492 138.332 984.65 138.272 984.837 138.272H991.039C991.039 138.664 990.96 138.953 990.801 139.14C990.642 139.326 990.395 139.42 990.059 139.42H985.481V142.556H989.401C989.401 142.948 989.322 143.237 989.163 143.424C989.004 143.61 988.762 143.704 988.435 143.704H985.481V146.924H990.353C990.68 146.924 990.922 147.017 991.081 147.204C991.24 147.39 991.319 147.68 991.319 148.072H984.837C984.65 148.072 984.492 148.016 984.361 147.904C984.23 147.782 984.165 147.633 984.165 147.456V138.888ZM996.538 139.238C996.538 138.883 996.65 138.612 996.874 138.426C997.098 138.239 997.425 138.146 997.854 138.146V142.556H1002.82V139.238C1002.82 138.883 1002.94 138.612 1003.16 138.426C1003.38 138.239 1003.71 138.146 1004.14 138.146V147.106C1004.14 147.46 1004.03 147.731 1003.8 147.918C1003.58 148.104 1003.25 148.198 1002.82 148.198V143.718H997.854V147.106C997.854 147.46 997.742 147.731 997.518 147.918C997.294 148.104 996.967 148.198 996.538 148.198V139.238ZM1006.64 148.198C1006.36 148.142 1006.14 148.025 1005.98 147.848C1005.82 147.661 1005.74 147.437 1005.74 147.176C1005.74 146.998 1005.79 146.812 1005.87 146.616L1009.22 138.566C1009.33 138.286 1009.54 138.146 1009.86 138.146C1010.16 138.146 1010.37 138.286 1010.49 138.566L1013.84 146.616C1013.92 146.812 1013.96 146.998 1013.96 147.176C1013.96 147.428 1013.88 147.647 1013.72 147.834C1013.57 148.02 1013.35 148.142 1013.07 148.198L1011.86 145.272H1007.84L1006.64 148.198ZM1011.46 144.138L1009.65 139.56L1009.54 139.602L1009.79 140.246L1008.25 144.138H1011.46ZM1016.26 148.072C1016.07 148.072 1015.91 148.006 1015.77 147.876C1015.63 147.736 1015.57 147.572 1015.57 147.386V139.238C1015.57 138.51 1016.01 138.146 1016.89 138.146V146.91H1021.18C1021.51 146.91 1021.76 147.012 1021.94 147.218C1022.12 147.414 1022.21 147.698 1022.21 148.072H1016.26ZM1024.36 148.072C1024.18 148.072 1024.01 148.006 1023.87 147.876C1023.74 147.736 1023.68 147.572 1023.68 147.386V139.238C1023.68 138.51 1024.12 138.146 1024.99 138.146V146.91H1029.29C1029.62 146.91 1029.87 147.012 1030.05 147.218C1030.22 147.414 1030.31 147.698 1030.31 148.072H1024.36Z" fill="white"/>
<path d="M931.166 245.266C931.166 244.921 931.278 244.655 931.502 244.468C931.735 244.272 932.062 244.174 932.482 244.174V253.134C932.482 253.479 932.365 253.75 932.132 253.946C931.908 254.133 931.586 254.226 931.166 254.226V245.266ZM934.728 245.308C934.728 244.953 934.835 244.678 935.05 244.482C935.274 244.277 935.582 244.174 935.974 244.174L941.406 252.434L941.504 252.35L941.098 251.678V244.174C941.527 244.174 941.849 244.267 942.064 244.454C942.288 244.641 942.4 244.911 942.4 245.266V253.19C942.4 253.489 942.292 253.736 942.078 253.932C941.872 254.128 941.606 254.226 941.28 254.226L935.722 245.784L935.624 245.868L936.03 246.54V253.134C936.03 253.489 935.918 253.759 935.694 253.946C935.479 254.133 935.157 254.226 934.728 254.226V245.308ZM947.866 254.226C947.082 254.226 946.401 254.114 945.822 253.89C945.253 253.666 944.819 253.367 944.52 252.994C944.222 252.621 944.072 252.219 944.072 251.79C944.072 251.435 944.166 251.165 944.352 250.978C944.539 250.782 944.824 250.684 945.206 250.684C945.206 251.477 945.444 252.084 945.92 252.504C946.396 252.915 947.064 253.12 947.922 253.12C948.744 253.12 949.374 252.985 949.812 252.714C950.251 252.434 950.47 252.023 950.47 251.482C950.47 251.155 950.386 250.889 950.218 250.684C950.06 250.469 949.784 250.287 949.392 250.138C949.01 249.979 948.454 249.821 947.726 249.662C946.868 249.475 946.186 249.261 945.682 249.018C945.178 248.766 944.81 248.463 944.576 248.108C944.343 247.753 944.226 247.315 944.226 246.792C944.226 246.269 944.371 245.812 944.66 245.42C944.959 245.019 945.379 244.711 945.92 244.496C946.462 244.281 947.092 244.174 947.81 244.174C948.492 244.174 949.098 244.272 949.63 244.468C950.172 244.655 950.592 244.925 950.89 245.28C951.198 245.625 951.352 246.017 951.352 246.456C951.352 246.727 951.264 246.941 951.086 247.1C950.918 247.249 950.652 247.324 950.288 247.324C950.186 246.615 949.934 246.097 949.532 245.77C949.14 245.443 948.566 245.28 947.81 245.28C947.082 245.28 946.522 245.411 946.13 245.672C945.738 245.924 945.542 246.283 945.542 246.75C945.542 247.077 945.612 247.347 945.752 247.562C945.902 247.767 946.149 247.945 946.494 248.094C946.849 248.243 947.344 248.388 947.978 248.528C948.93 248.733 949.677 248.962 950.218 249.214C950.769 249.466 951.166 249.774 951.408 250.138C951.651 250.502 951.772 250.95 951.772 251.482C951.772 252.331 951.418 253.003 950.708 253.498C949.999 253.983 949.052 254.226 947.866 254.226ZM955.673 245.462H952.257C952.257 244.687 952.621 244.3 953.349 244.3H960.391C960.391 245.075 960.027 245.462 959.299 245.462H956.989V253.134C956.989 253.489 956.877 253.759 956.653 253.946C956.429 254.133 956.102 254.226 955.673 254.226V245.462ZM960.936 254.226C960.656 254.17 960.436 254.053 960.278 253.876C960.119 253.689 960.04 253.465 960.04 253.204C960.04 253.027 960.082 252.84 960.166 252.644L963.512 244.594C963.624 244.314 963.838 244.174 964.156 244.174C964.454 244.174 964.664 244.314 964.786 244.594L968.132 252.644C968.216 252.84 968.258 253.027 968.258 253.204C968.258 253.456 968.178 253.675 968.02 253.862C967.861 254.049 967.642 254.17 967.362 254.226L966.158 251.3H962.14L960.936 254.226ZM965.752 250.166L963.946 245.588L963.834 245.63L964.086 246.274L962.546 250.166H965.752ZM970.55 254.1C970.364 254.1 970.2 254.035 970.06 253.904C969.93 253.764 969.864 253.601 969.864 253.414V245.266C969.864 244.538 970.303 244.174 971.18 244.174V252.938H975.478C975.805 252.938 976.057 253.041 976.234 253.246C976.412 253.442 976.5 253.727 976.5 254.1H970.55ZM978.658 254.1C978.471 254.1 978.308 254.035 978.168 253.904C978.037 253.764 977.972 253.601 977.972 253.414V245.266C977.972 244.538 978.41 244.174 979.288 244.174V252.938H983.586C983.912 252.938 984.164 253.041 984.342 253.246C984.519 253.442 984.608 253.727 984.608 254.1H978.658ZM986.27 254.226C985.99 254.17 985.77 254.053 985.612 253.876C985.453 253.689 985.374 253.465 985.374 253.204C985.374 253.027 985.416 252.84 985.5 252.644L988.846 244.594C988.958 244.314 989.172 244.174 989.49 244.174C989.788 244.174 989.998 244.314 990.12 244.594L993.466 252.644C993.55 252.84 993.592 253.027 993.592 253.204C993.592 253.456 993.512 253.675 993.354 253.862C993.195 254.049 992.976 254.17 992.696 254.226L991.492 251.3H987.474L986.27 254.226ZM991.086 250.166L989.28 245.588L989.168 245.63L989.42 246.274L987.88 250.166H991.086ZM996.648 245.462H993.232C993.232 244.687 993.596 244.3 994.324 244.3H1001.37C1001.37 245.075 1001 245.462 1000.27 245.462H997.964V253.134C997.964 253.489 997.852 253.759 997.628 253.946C997.404 254.133 997.077 254.226 996.648 254.226V245.462ZM1003.12 245.266C1003.12 244.921 1003.23 244.655 1003.46 244.468C1003.69 244.272 1004.02 244.174 1004.44 244.174V253.134C1004.44 253.479 1004.32 253.75 1004.09 253.946C1003.86 254.133 1003.54 254.226 1003.12 254.226V245.266ZM1010.36 254.226C1009.59 254.226 1008.89 254.077 1008.28 253.778C1007.67 253.47 1007.2 253.05 1006.85 252.518C1006.51 251.977 1006.33 251.379 1006.33 250.726V247.646C1006.33 246.993 1006.51 246.405 1006.85 245.882C1007.2 245.35 1007.67 244.935 1008.28 244.636C1008.89 244.328 1009.59 244.174 1010.36 244.174C1011.15 244.174 1011.84 244.328 1012.45 244.636C1013.07 244.935 1013.55 245.35 1013.89 245.882C1014.24 246.405 1014.41 246.993 1014.41 247.646V250.726C1014.41 251.379 1014.24 251.977 1013.89 252.518C1013.55 253.05 1013.07 253.47 1012.45 253.778C1011.83 254.077 1011.14 254.226 1010.36 254.226ZM1010.36 253.078C1011.23 253.078 1011.91 252.863 1012.39 252.434C1012.88 252.005 1013.12 251.431 1013.12 250.712V247.674C1013.12 246.955 1012.88 246.386 1012.39 245.966C1011.91 245.537 1011.23 245.322 1010.36 245.322C1009.51 245.322 1008.83 245.537 1008.35 245.966C1007.86 246.386 1007.62 246.955 1007.62 247.674V250.712C1007.62 251.431 1007.86 252.005 1008.35 252.434C1008.83 252.863 1009.51 253.078 1010.36 253.078ZM1016.02 245.308C1016.02 244.953 1016.13 244.678 1016.34 244.482C1016.57 244.277 1016.87 244.174 1017.27 244.174L1022.7 252.434L1022.8 252.35L1022.39 251.678V244.174C1022.82 244.174 1023.14 244.267 1023.36 244.454C1023.58 244.641 1023.69 244.911 1023.69 245.266V253.19C1023.69 253.489 1023.59 253.736 1023.37 253.932C1023.17 254.128 1022.9 254.226 1022.57 254.226L1017.01 245.784L1016.92 245.868L1017.32 246.54V253.134C1017.32 253.489 1017.21 253.759 1016.99 253.946C1016.77 254.133 1016.45 254.226 1016.02 254.226V245.308Z" fill="white"/>
<path d="M930.886 347.969C930.886 347.791 930.946 347.647 931.068 347.535C931.198 347.413 931.362 347.353 931.558 347.353H935.422C936.327 347.353 937.046 347.619 937.578 348.151C938.119 348.673 938.39 349.373 938.39 350.251C938.39 351.352 937.909 352.131 936.948 352.589V352.631C937.368 352.808 937.69 353.079 937.914 353.443C938.138 353.797 938.25 354.231 938.25 354.745V356.187C938.25 356.541 938.138 356.812 937.914 356.999C937.69 357.185 937.363 357.279 936.934 357.279V354.829C936.934 354.278 936.808 353.863 936.556 353.583C936.313 353.293 935.949 353.149 935.464 353.149H932.188V356.187C932.188 356.541 932.076 356.812 931.852 356.999C931.637 357.185 931.315 357.279 930.886 357.279V347.969ZM935.38 352.015C935.893 352.015 936.299 351.856 936.598 351.539C936.906 351.221 937.06 350.787 937.06 350.237C937.06 349.677 936.915 349.247 936.626 348.949C936.336 348.65 935.921 348.501 935.38 348.501H932.188V352.015H935.38ZM940.21 347.969C940.21 347.791 940.275 347.647 940.406 347.535C940.537 347.413 940.695 347.353 940.882 347.353H947.084C947.084 347.745 947.005 348.034 946.846 348.221C946.687 348.407 946.44 348.501 946.104 348.501H941.526V351.637H945.446C945.446 352.029 945.367 352.318 945.208 352.505C945.049 352.691 944.807 352.785 944.48 352.785H941.526V356.005H946.398C946.725 356.005 946.967 356.098 947.126 356.285C947.285 356.471 947.364 356.761 947.364 357.153H940.882C940.695 357.153 940.537 357.097 940.406 356.985C940.275 356.863 940.21 356.714 940.21 356.537V347.969ZM952.251 357.279C951.467 357.279 950.767 357.134 950.151 356.845C949.535 356.546 949.054 356.135 948.709 355.613C948.373 355.081 948.205 354.479 948.205 353.807V350.671C948.205 349.999 948.373 349.401 948.709 348.879C949.054 348.356 949.53 347.95 950.137 347.661C950.743 347.371 951.439 347.227 952.223 347.227C953.007 347.227 953.702 347.353 954.309 347.605C954.915 347.847 955.387 348.188 955.723 348.627C956.068 349.065 956.241 349.569 956.241 350.139C956.241 350.419 956.147 350.638 955.961 350.797C955.774 350.955 955.527 351.035 955.219 351.035C955.153 351.035 955.055 351.025 954.925 351.007C954.943 350.895 954.953 350.717 954.953 350.475C954.953 350.073 954.836 349.714 954.603 349.397C954.379 349.079 954.057 348.832 953.637 348.655C953.226 348.477 952.755 348.389 952.223 348.389C951.7 348.389 951.233 348.487 950.823 348.683C950.412 348.869 950.09 349.14 949.857 349.495C949.633 349.84 949.521 350.232 949.521 350.671V353.807C949.521 354.255 949.633 354.656 949.857 355.011C950.09 355.356 950.412 355.627 950.823 355.823C951.243 356.019 951.719 356.117 952.251 356.117C952.792 356.117 953.273 356.028 953.693 355.851C954.113 355.673 954.439 355.431 954.673 355.123C954.906 354.805 955.023 354.441 955.023 354.031C955.023 353.881 955.013 353.704 954.995 353.499C955.125 353.48 955.219 353.471 955.275 353.471C955.583 353.471 955.83 353.559 956.017 353.737C956.213 353.914 956.311 354.152 956.311 354.451C956.311 355.001 956.138 355.491 955.793 355.921C955.447 356.35 954.967 356.686 954.351 356.929C953.744 357.162 953.044 357.279 952.251 357.279ZM957.915 347.969C957.915 347.791 957.98 347.647 958.111 347.535C958.242 347.413 958.4 347.353 958.587 347.353H964.789C964.789 347.745 964.71 348.034 964.551 348.221C964.392 348.407 964.145 348.501 963.809 348.501H959.231V351.637H963.151C963.151 352.029 963.072 352.318 962.913 352.505C962.754 352.691 962.512 352.785 962.185 352.785H959.231V356.005H964.103C964.43 356.005 964.672 356.098 964.831 356.285C964.99 356.471 965.069 356.761 965.069 357.153H958.587C958.4 357.153 958.242 357.097 958.111 356.985C957.98 356.863 957.915 356.714 957.915 356.537V347.969ZM966.679 347.969C966.679 347.791 966.739 347.647 966.861 347.535C966.991 347.413 967.155 347.353 967.351 347.353H971.439C972.055 347.353 972.601 347.483 973.077 347.745C973.553 347.997 973.921 348.356 974.183 348.823C974.444 349.28 974.575 349.807 974.575 350.405C974.575 351.021 974.444 351.562 974.183 352.029C973.931 352.495 973.567 352.855 973.091 353.107C972.615 353.359 972.064 353.485 971.439 353.485H967.995V356.187C967.995 356.541 967.883 356.812 967.659 356.999C967.435 357.185 967.108 357.279 966.679 357.279V347.969ZM971.439 352.323C971.999 352.323 972.442 352.155 972.769 351.819C973.095 351.473 973.259 351.002 973.259 350.405C973.259 349.826 973.091 349.369 972.755 349.033C972.428 348.687 971.989 348.515 971.439 348.515H967.995V352.323H971.439ZM978.478 348.515H975.062C975.062 347.74 975.426 347.353 976.154 347.353H983.196C983.196 348.127 982.832 348.515 982.104 348.515H979.794V356.187C979.794 356.541 979.682 356.812 979.458 356.999C979.234 357.185 978.907 357.279 978.478 357.279V348.515ZM984.951 348.319C984.951 347.973 985.063 347.707 985.287 347.521C985.52 347.325 985.847 347.227 986.267 347.227V356.187C986.267 356.532 986.15 356.803 985.917 356.999C985.693 357.185 985.371 357.279 984.951 357.279V348.319ZM992.195 357.279C991.42 357.279 990.725 357.129 990.109 356.831C989.502 356.523 989.026 356.103 988.681 355.571C988.335 355.029 988.163 354.432 988.163 353.779V350.699C988.163 350.045 988.335 349.457 988.681 348.935C989.026 348.403 989.502 347.987 990.109 347.689C990.725 347.381 991.42 347.227 992.195 347.227C992.979 347.227 993.674 347.381 994.281 347.689C994.897 347.987 995.377 348.403 995.723 348.935C996.068 349.457 996.241 350.045 996.241 350.699V353.779C996.241 354.432 996.068 355.029 995.723 355.571C995.377 356.103 994.897 356.523 994.281 356.831C993.665 357.129 992.969 357.279 992.195 357.279ZM992.195 356.131C993.063 356.131 993.739 355.916 994.225 355.487C994.71 355.057 994.953 354.483 994.953 353.765V350.727C994.953 350.008 994.71 349.439 994.225 349.019C993.739 348.589 993.063 348.375 992.195 348.375C991.336 348.375 990.664 348.589 990.179 349.019C989.693 349.439 989.451 350.008 989.451 350.727V353.765C989.451 354.483 989.693 355.057 990.179 355.487C990.664 355.916 991.336 356.131 992.195 356.131ZM997.851 348.361C997.851 348.006 997.958 347.731 998.173 347.535C998.397 347.329 998.705 347.227 999.097 347.227L1004.53 355.487L1004.63 355.403L1004.22 354.731V347.227C1004.65 347.227 1004.97 347.32 1005.19 347.507C1005.41 347.693 1005.52 347.964 1005.52 348.319V356.243C1005.52 356.541 1005.42 356.789 1005.2 356.985C1005 357.181 1004.73 357.279 1004.4 357.279L998.845 348.837L998.747 348.921L999.153 349.593V356.187C999.153 356.541 999.041 356.812 998.817 356.999C998.602 357.185 998.28 357.279 997.851 357.279V348.361ZM1007.34 359.113C1007.67 358.805 1007.92 358.487 1008.09 358.161C1008.26 357.834 1008.34 357.517 1008.34 357.209C1008.25 357.255 1008.14 357.279 1008.02 357.279C1007.76 357.279 1007.55 357.195 1007.38 357.027C1007.22 356.849 1007.14 356.625 1007.14 356.355C1007.14 356.056 1007.23 355.813 1007.42 355.627C1007.62 355.44 1007.86 355.347 1008.15 355.347C1008.46 355.347 1008.7 355.449 1008.89 355.655C1009.09 355.851 1009.18 356.098 1009.18 356.397C1009.18 357.031 1009.09 357.559 1008.89 357.979C1008.69 358.399 1008.41 358.767 1008.04 359.085C1007.94 359.159 1007.81 359.197 1007.64 359.197C1007.51 359.197 1007.41 359.169 1007.34 359.113ZM1018.31 357.279C1017.53 357.279 1016.83 357.134 1016.21 356.845C1015.6 356.546 1015.12 356.135 1014.77 355.613C1014.44 355.081 1014.27 354.479 1014.27 353.807V350.671C1014.27 349.999 1014.44 349.401 1014.77 348.879C1015.12 348.356 1015.59 347.95 1016.2 347.661C1016.81 347.371 1017.5 347.227 1018.29 347.227C1019.07 347.227 1019.76 347.353 1020.37 347.605C1020.98 347.847 1021.45 348.188 1021.79 348.627C1022.13 349.065 1022.3 349.569 1022.3 350.139C1022.3 350.419 1022.21 350.638 1022.02 350.797C1021.84 350.955 1021.59 351.035 1021.28 351.035C1021.22 351.035 1021.12 351.025 1020.99 351.007C1021.01 350.895 1021.02 350.717 1021.02 350.475C1021.02 350.073 1020.9 349.714 1020.67 349.397C1020.44 349.079 1020.12 348.832 1019.7 348.655C1019.29 348.477 1018.82 348.389 1018.29 348.389C1017.76 348.389 1017.3 348.487 1016.89 348.683C1016.47 348.869 1016.15 349.14 1015.92 349.495C1015.7 349.84 1015.58 350.232 1015.58 350.671V353.807C1015.58 354.255 1015.7 354.656 1015.92 355.011C1016.15 355.356 1016.47 355.627 1016.89 355.823C1017.31 356.019 1017.78 356.117 1018.31 356.117C1018.85 356.117 1019.34 356.028 1019.76 355.851C1020.18 355.673 1020.5 355.431 1020.74 355.123C1020.97 354.805 1021.09 354.441 1021.09 354.031C1021.09 353.881 1021.08 353.704 1021.06 353.499C1021.19 353.48 1021.28 353.471 1021.34 353.471C1021.65 353.471 1021.89 353.559 1022.08 353.737C1022.28 353.914 1022.37 354.152 1022.37 354.451C1022.37 355.001 1022.2 355.491 1021.86 355.921C1021.51 356.35 1021.03 356.686 1020.41 356.929C1019.81 357.162 1019.11 357.279 1018.31 357.279ZM1023.98 348.319C1023.98 347.964 1024.09 347.693 1024.31 347.507C1024.54 347.32 1024.86 347.227 1025.29 347.227V351.637H1030.26V348.319C1030.26 347.964 1030.38 347.693 1030.6 347.507C1030.82 347.32 1031.15 347.227 1031.58 347.227V356.187C1031.58 356.541 1031.47 356.812 1031.24 356.999C1031.02 357.185 1030.69 357.279 1030.26 357.279V352.799H1025.29V356.187C1025.29 356.541 1025.18 356.812 1024.96 356.999C1024.73 357.185 1024.41 357.279 1023.98 357.279V348.319ZM1033.53 347.969C1033.53 347.791 1033.6 347.647 1033.73 347.535C1033.86 347.413 1034.02 347.353 1034.21 347.353H1040.41C1040.41 347.745 1040.33 348.034 1040.17 348.221C1040.01 348.407 1039.76 348.501 1039.43 348.501H1034.85V351.637H1038.77C1038.77 352.029 1038.69 352.318 1038.53 352.505C1038.37 352.691 1038.13 352.785 1037.8 352.785H1034.85V356.005H1039.72C1040.05 356.005 1040.29 356.098 1040.45 356.285C1040.61 356.471 1040.69 356.761 1040.69 357.153H1034.21C1034.02 357.153 1033.86 357.097 1033.73 356.985C1033.6 356.863 1033.53 356.714 1033.53 356.537V347.969ZM1045.57 357.279C1044.79 357.279 1044.09 357.134 1043.47 356.845C1042.86 356.546 1042.38 356.135 1042.03 355.613C1041.7 355.081 1041.53 354.479 1041.53 353.807V350.671C1041.53 349.999 1041.7 349.401 1042.03 348.879C1042.38 348.356 1042.85 347.95 1043.46 347.661C1044.07 347.371 1044.76 347.227 1045.55 347.227C1046.33 347.227 1047.03 347.353 1047.63 347.605C1048.24 347.847 1048.71 348.188 1049.05 348.627C1049.39 349.065 1049.56 349.569 1049.56 350.139C1049.56 350.419 1049.47 350.638 1049.28 350.797C1049.1 350.955 1048.85 351.035 1048.54 351.035C1048.48 351.035 1048.38 351.025 1048.25 351.007C1048.27 350.895 1048.28 350.717 1048.28 350.475C1048.28 350.073 1048.16 349.714 1047.93 349.397C1047.7 349.079 1047.38 348.832 1046.96 348.655C1046.55 348.477 1046.08 348.389 1045.55 348.389C1045.02 348.389 1044.56 348.487 1044.15 348.683C1043.74 348.869 1043.41 349.14 1043.18 349.495C1042.96 349.84 1042.84 350.232 1042.84 350.671V353.807C1042.84 354.255 1042.96 354.656 1043.18 355.011C1043.41 355.356 1043.74 355.627 1044.15 355.823C1044.57 356.019 1045.04 356.117 1045.57 356.117C1046.12 356.117 1046.6 356.028 1047.02 355.851C1047.44 355.673 1047.76 355.431 1048 355.123C1048.23 354.805 1048.35 354.441 1048.35 354.031C1048.35 353.881 1048.34 353.704 1048.32 353.499C1048.45 353.48 1048.54 353.471 1048.6 353.471C1048.91 353.471 1049.15 353.559 1049.34 353.737C1049.54 353.914 1049.63 354.152 1049.63 354.451C1049.63 355.001 1049.46 355.491 1049.12 355.921C1048.77 356.35 1048.29 356.686 1047.67 356.929C1047.07 357.162 1046.37 357.279 1045.57 357.279ZM1051.24 348.319C1051.24 347.973 1051.36 347.707 1051.59 347.521C1051.82 347.325 1052.14 347.227 1052.56 347.227V352.029L1057.67 347.227C1057.82 347.357 1057.95 347.497 1058.06 347.647C1058.16 347.787 1058.21 347.913 1058.21 348.025C1058.21 348.258 1058.07 348.505 1057.79 348.767L1054.52 351.847L1058.74 356.915C1058.64 357.027 1058.52 357.115 1058.38 357.181C1058.25 357.246 1058.12 357.279 1057.99 357.279C1057.62 357.279 1057.33 357.148 1057.11 356.887L1053.56 352.687L1052.56 353.625V356.229C1052.56 356.583 1052.45 356.849 1052.23 357.027C1052.02 357.195 1051.69 357.279 1051.24 357.279V348.319ZM1060.36 347.969C1060.36 347.791 1060.42 347.647 1060.54 347.535C1060.67 347.413 1060.83 347.353 1061.03 347.353H1064.89C1065.8 347.353 1066.52 347.619 1067.05 348.151C1067.59 348.673 1067.86 349.373 1067.86 350.251C1067.86 351.352 1067.38 352.131 1066.42 352.589V352.631C1066.84 352.808 1067.16 353.079 1067.39 353.443C1067.61 353.797 1067.72 354.231 1067.72 354.745V356.187C1067.72 356.541 1067.61 356.812 1067.39 356.999C1067.16 357.185 1066.84 357.279 1066.41 357.279V354.829C1066.41 354.278 1066.28 353.863 1066.03 353.583C1065.79 353.293 1065.42 353.149 1064.94 353.149H1061.66V356.187C1061.66 356.541 1061.55 356.812 1061.32 356.999C1061.11 357.185 1060.79 357.279 1060.36 357.279V347.969ZM1064.85 352.015C1065.37 352.015 1065.77 351.856 1066.07 351.539C1066.38 351.221 1066.53 350.787 1066.53 350.237C1066.53 349.677 1066.39 349.247 1066.1 348.949C1065.81 348.65 1065.39 348.501 1064.85 348.501H1061.66V352.015H1064.85ZM1073.16 357.279C1072.38 357.279 1071.69 357.129 1071.07 356.831C1070.47 356.523 1069.99 356.103 1069.65 355.571C1069.3 355.029 1069.13 354.432 1069.13 353.779V350.699C1069.13 350.045 1069.3 349.457 1069.65 348.935C1069.99 348.403 1070.47 347.987 1071.07 347.689C1071.69 347.381 1072.38 347.227 1073.16 347.227C1073.94 347.227 1074.64 347.381 1075.25 347.689C1075.86 347.987 1076.34 348.403 1076.69 348.935C1077.03 349.457 1077.21 350.045 1077.21 350.699V353.779C1077.21 354.432 1077.03 355.029 1076.69 355.571C1076.34 356.103 1075.86 356.523 1075.25 356.831C1074.63 357.129 1073.93 357.279 1073.16 357.279ZM1073.16 356.131C1074.03 356.131 1074.7 355.916 1075.19 355.487C1075.67 355.057 1075.92 354.483 1075.92 353.765V350.727C1075.92 350.008 1075.67 349.439 1075.19 349.019C1074.7 348.589 1074.03 348.375 1073.16 348.375C1072.3 348.375 1071.63 348.589 1071.14 349.019C1070.66 349.439 1070.42 350.008 1070.42 350.727V353.765C1070.42 354.483 1070.66 355.057 1071.14 355.487C1071.63 355.916 1072.3 356.131 1073.16 356.131ZM1082.5 357.279C1081.72 357.279 1081.03 357.129 1080.41 356.831C1079.8 356.523 1079.33 356.103 1078.98 355.571C1078.64 355.029 1078.47 354.432 1078.47 353.779V350.699C1078.47 350.045 1078.64 349.457 1078.98 348.935C1079.33 348.403 1079.8 347.987 1080.41 347.689C1081.03 347.381 1081.72 347.227 1082.5 347.227C1083.28 347.227 1083.98 347.381 1084.58 347.689C1085.2 347.987 1085.68 348.403 1086.03 348.935C1086.37 349.457 1086.54 350.045 1086.54 350.699V353.779C1086.54 354.432 1086.37 355.029 1086.03 355.571C1085.68 356.103 1085.2 356.523 1084.58 356.831C1083.97 357.129 1083.27 357.279 1082.5 357.279ZM1082.5 356.131C1083.37 356.131 1084.04 355.916 1084.53 355.487C1085.01 355.057 1085.26 354.483 1085.26 353.765V350.727C1085.26 350.008 1085.01 349.439 1084.53 349.019C1084.04 348.589 1083.37 348.375 1082.5 348.375C1081.64 348.375 1080.97 348.589 1080.48 349.019C1080 349.439 1079.75 350.008 1079.75 350.727V353.765C1079.75 354.483 1080 355.057 1080.48 355.487C1080.97 355.916 1081.64 356.131 1082.5 356.131ZM1088.15 348.319C1088.15 347.973 1088.27 347.707 1088.5 347.521C1088.74 347.325 1089.06 347.227 1089.47 347.227L1092.86 355.361L1092.59 356.019L1092.69 356.061L1096.27 347.227C1096.68 347.227 1097.01 347.325 1097.24 347.521C1097.48 347.717 1097.6 347.987 1097.6 348.333V357.279C1096.74 357.279 1096.3 356.919 1096.3 356.201V350.307L1096.67 349.341L1096.55 349.313L1093.43 356.901C1093.38 357.013 1093.31 357.101 1093.21 357.167C1093.1 357.241 1093 357.279 1092.89 357.279C1092.76 357.279 1092.65 357.246 1092.55 357.181C1092.45 357.115 1092.37 357.022 1092.33 356.901L1089.2 349.299L1089.09 349.341L1089.46 350.293V356.201C1089.46 356.555 1089.34 356.826 1089.12 357.013C1088.9 357.19 1088.58 357.279 1088.15 357.279V348.319Z" fill="white"/>
</svg>
