<svg width="96" height="31" viewBox="0 0 96 31" fill="none" xmlns="http://www.w3.org/2000/svg">
<path d="M1.78433 23.8666C1.78433 24.1439 1.5865 24.3175 1.5865 24.5956C1.5865 25.1833 2.02919 25.2181 2.23862 24.6946C2.32273 24.4843 2.52181 23.9941 2.19466 23.8812C1.95581 23.7989 1.21856 24.1324 1.46926 24.1011C1.5867 24.0864 1.5865 23.6041 1.5865 23.5039C1.5865 23.2021 2.22021 23.8494 2.28625 23.9069C2.74173 24.3036 3.13204 24.6019 3.36702 25.1708C4.11971 26.9931 2.34433 28.9287 1.45461 30.2633" stroke="#AE0000" stroke-linecap="round"/>
<path d="M45.5914 30.116C54.6198 30.116 63.7427 30.4975 72.7544 30.0326C80.0245 29.6576 94.4463 27.6552 94.519 19.1146C94.6012 9.45312 77.0299 6.46387 69.0288 5.51294C56.7418 4.05265 43.5391 4.28773 31.2211 5.41293C24.328 6.04258 17.0495 7.12009 10.844 9.96349C8.96222 10.8258 7.18408 11.7489 6.6622 13.6473C6.00324 16.0443 6.11019 18.6983 8.10684 20.6148C11.0368 23.4271 15.9847 24.672 20.0631 25.4487C30.9923 27.5301 42.1845 27.5385 53.2898 26.8822C63.3006 26.2907 72.664 24.729 82.0495 21.5816C84.6156 20.721 91.2941 18.7603 89.3487 15.0474C88.0286 12.5278 84.3309 10.9749 81.7264 9.86348C76.9969 7.84534 71.9521 6.34667 66.8808 5.14623C57.9046 3.02145 48.6134 2.13338 39.4327 1.01239" stroke="#AE0000" stroke-linecap="round"/>
</svg>
