<svg width="107" height="27" viewBox="0 0 107 27" fill="none" xmlns="http://www.w3.org/2000/svg">
<path d="M16.4855 4.02833C16.8935 4.13034 17.0975 4.33436 17.0975 4.64039V6.9474H19.7812C21.8999 6.9474 23.2339 7.12003 23.7832 7.4653C24.2226 7.59085 24.4423 7.81056 24.4423 8.12444V8.17153C24.4423 8.57172 24.3795 9.07393 24.254 9.67814C24.254 10.7061 23.7518 11.428 22.7474 11.8439C21.7272 12.2519 20.8641 12.6286 20.1579 12.9739L16.9563 13.7272C16.9563 13.8213 16.8464 14.2922 16.6267 15.1396C16.8072 15.1396 17.6704 15.8929 19.2162 17.3996C19.5222 17.5643 19.9146 18.0195 20.3933 18.7649C22.1588 21.017 23.0534 22.759 23.0769 23.991V24.2735C23.0769 24.4854 22.8572 24.7993 22.4178 25.2151C22.3629 25.2151 22.1588 25.325 21.8057 25.5447H20.2991C18.7925 25.1994 16.7523 24.556 14.1785 23.6144C12.6718 23.1828 11.2123 22.5236 9.79986 21.6369C9.26626 21.3623 8.99947 21.0641 8.99947 20.7424C8.99947 20.4128 9.23487 20.1617 9.70569 19.9891C9.90971 20.0126 10.4904 20.3422 11.4477 20.9778C11.8636 21.1661 12.0833 21.2603 12.1069 21.2603V21.2132C12.3894 20.4756 12.6562 19.4712 12.9073 18.2C12.9622 18.2 13.025 17.9802 13.0956 17.5408C13.3153 16.9837 13.4879 16.2461 13.6135 15.328V14.7159C12.9229 14.3314 12.5777 13.9547 12.5777 13.5859C12.5777 13.17 12.9229 12.8876 13.6135 12.7385V8.59526C13.3231 8.72081 13.0563 8.78359 12.8131 8.78359H12.7189C12.3109 8.68158 12.1069 8.47756 12.1069 8.17153V8.03028C12.1069 7.5987 12.6562 7.30051 13.7547 7.13573C13.7547 7.0808 13.9274 7.01802 14.2726 6.9474H14.4139C14.508 6.9474 14.5551 6.96309 14.5551 6.99448L14.7905 6.9474H15.6851V4.96996C15.7479 4.3422 15.9519 4.02833 16.2971 4.02833H16.4855ZM15.0259 8.35985V12.5972C15.3634 12.5344 15.5831 12.5031 15.6851 12.5031V8.35985H15.0259ZM17.0975 8.35985V12.2206H17.1446C18.918 11.8753 20.0637 11.53 20.5816 11.1848C21.8606 10.6669 22.5669 10.353 22.7003 10.2431C22.8023 9.94494 22.8808 9.45843 22.9357 8.78359C22.9671 8.78359 22.9828 8.7522 22.9828 8.68942C22.6689 8.46971 21.6331 8.35985 19.8754 8.35985H17.0975ZM15.073 14.0097V14.1038C15.1358 14.1038 15.2457 14.1666 15.4026 14.2922L15.4497 13.9626C15.277 13.994 15.1515 14.0097 15.073 14.0097ZM14.1314 22.0607V22.1077C17.9921 23.4574 20.1735 24.1323 20.6758 24.1323H21.3349C21.5546 24.0067 21.6645 23.9282 21.6645 23.8968C21.2878 22.4138 20.1892 20.5933 18.3687 18.4354C17.945 18.1293 17.2702 17.5173 16.3442 16.5992L16.2501 16.5521C16.0303 16.764 15.5124 18.3177 14.6964 21.2132C14.563 21.7782 14.3746 22.0607 14.1314 22.0607ZM28.9622 7.04156H30.7513C30.916 7.04156 32.3128 7.22204 34.9415 7.583C36.3226 7.64578 37.0131 7.77525 37.0131 7.97143C37.1073 8.13621 37.1544 8.26569 37.1544 8.35985V8.5011C37.0524 8.92483 36.8484 9.1367 36.5423 9.1367C34.9651 9.05039 33.0661 8.83852 30.8454 8.5011H29.2917C28.8523 10.5256 28.6326 12.0401 28.6326 13.0445C31.4026 13.6016 32.8778 13.8802 33.0583 13.8802C33.4977 14.0842 33.7802 14.3275 33.9057 14.61C33.9371 14.6649 33.9528 14.7277 33.9528 14.7983V14.9513C33.8508 15.375 33.6468 15.5869 33.3408 15.5869H33.1995L32.3991 15.2456C29.9273 14.7512 28.6404 14.504 28.5384 14.504V18.3177C28.7267 20.0754 28.8994 21.1975 29.0563 21.684H31.4104C31.7557 21.684 33.4349 21.8645 36.4482 22.2254H38.1902C38.8807 22.2254 39.226 22.453 39.226 22.9081V23.0494C39.124 23.4731 38.92 23.685 38.6139 23.685H36.4482C33.4349 23.324 31.7557 23.1435 31.4104 23.1435H28.6326C28.1225 23.1435 27.7459 22.5276 27.5026 21.2956L27.126 18.3177V14.7512C27.3064 11.4633 27.4634 9.81939 27.5968 9.81939C27.8479 8.53249 28.0205 7.72032 28.1147 7.3829C28.3187 7.15534 28.6012 7.04156 28.9622 7.04156ZM41.2034 5.9116H41.5801C43.0082 6.05284 44.0597 6.27256 44.7346 6.57074C45.0877 6.76692 45.6056 7.2652 46.2883 8.06559C46.8219 8.96799 47.0886 9.50943 47.0886 9.68991V10.1019C46.9866 10.4628 46.7826 10.6433 46.4766 10.6433H46.3353C45.9587 10.6433 45.739 10.3804 45.6762 9.8547C45.3152 9.0857 44.8758 8.4344 44.3579 7.9008C44.3422 7.7831 43.8871 7.60262 42.9925 7.35936C42.2942 7.22597 41.8233 7.15927 41.5801 7.15927H41.1563C40.9288 7.15927 40.3795 7.32405 39.5085 7.65363C39.1632 7.65363 38.9121 8.15191 38.7552 9.14847V9.19555C38.7552 9.57221 39.1789 10.1803 40.0264 11.02C41.8626 12.1656 43.071 12.9699 43.6517 13.4329C44.3187 14.0685 45.1191 15.2691 46.0529 17.0347C47.2456 18.7845 47.842 19.9224 47.842 20.4481V20.9072C47.842 21.4015 47.5595 21.8409 46.9945 22.2254C46.3275 22.8061 45.4016 23.0965 44.2167 23.0965C44.2167 23.1278 44.1068 23.1435 43.8871 23.1435H42.9455C41.9803 23.1435 41.2584 23.018 40.7797 22.7669C39.0455 22.147 37.8057 21.6095 37.0602 21.1543C36.3069 20.4481 35.8989 19.8949 35.8361 19.4947C35.9616 19.0788 36.1814 18.8709 36.4952 18.8709H36.6365C36.9268 18.8709 37.2407 19.1887 37.5781 19.8243C37.8999 20.2009 38.5433 20.5619 39.5085 20.9072C41.1642 21.5428 42.043 21.8606 42.1451 21.8606C42.2628 21.8841 42.4354 21.8959 42.663 21.8959H43.6517C44.4128 21.8959 45.0877 21.786 45.6762 21.5663C45.9195 21.4643 46.1706 21.272 46.4295 20.9895V20.5305C46.4295 20.2637 45.8017 19.1573 44.5462 17.2112C43.8479 15.8929 43.2358 14.9356 42.71 14.3392C42.0117 13.7743 40.8974 13.0406 39.3672 12.1382C38.7709 11.6595 38.3628 11.2318 38.1431 10.8552C37.7037 10.3451 37.484 10.0273 37.484 9.90178C37.3898 9.61144 37.3427 9.33288 37.3427 9.06608C37.3584 8.56387 37.5467 7.95573 37.9077 7.24166C38.2373 6.81008 38.7709 6.49227 39.5085 6.28825C40.1205 6.03715 40.6855 5.9116 41.2034 5.9116ZM55.6458 5.44078C57.7095 5.44078 58.8081 5.69188 58.9415 6.19409V6.47658C58.8395 6.88462 58.6355 7.08864 58.3294 7.08864H58.1411C57.4192 6.9317 56.6345 6.85323 55.787 6.85323H54.1391C54.0136 6.96309 53.9508 7.35544 53.9508 8.03028V10.4785C53.9508 12.4638 53.8724 14.1274 53.7154 15.4692C53.6526 16.7561 53.6212 17.9175 53.6212 18.9533V21.2603C53.6212 21.4251 53.6056 21.6919 53.5742 22.0607C53.739 22.1234 54.0685 22.1548 54.5629 22.1548H56.0224C56.713 22.1548 57.0582 22.3745 57.0582 22.814V22.9552C56.9562 23.3633 56.7522 23.5673 56.4462 23.5673H54.5629C54.2647 23.5673 53.8567 23.5359 53.3388 23.4731C53.1818 23.5673 53.0563 23.6144 52.9621 23.6144H52.8209C52.6953 23.6144 52.4913 23.5045 52.2088 23.2848C50.7022 23.1357 49.5408 22.8689 48.7247 22.4844C47.7831 22.0528 47.3123 21.6605 47.3123 21.3073V21.1661C47.3123 20.8758 47.532 20.6561 47.9714 20.507C48.1676 20.5148 48.6541 20.7345 49.431 21.1661C49.8312 21.4172 50.4903 21.5428 51.4084 21.5428C51.4084 21.582 51.6595 21.6291 52.1617 21.684L52.2088 21.3544V18.9533C52.2088 17.0935 52.303 15.1632 52.4913 13.1622C52.5227 12.5501 52.5384 11.6556 52.5384 10.4785V8.03028C52.5384 7.63793 52.5854 7.24558 52.6796 6.85323H47.8302C47.4221 6.75122 47.2181 6.5472 47.2181 6.24117V6.09993C47.2181 5.72327 47.5163 5.50356 48.1127 5.44078H55.6458ZM62.8846 5.9116H63.2612C64.6894 6.05284 65.7409 6.27256 66.4157 6.57074C66.7688 6.76692 67.2867 7.2652 67.9694 8.06559C68.503 8.96799 68.7698 9.50943 68.7698 9.68991V10.1019C68.6678 10.4628 68.4638 10.6433 68.1578 10.6433H68.0165C67.6399 10.6433 67.4201 10.3804 67.3574 9.8547C66.9964 9.0857 66.557 8.4344 66.0391 7.9008C66.0234 7.7831 65.5683 7.60262 64.6737 7.35936C63.9753 7.22597 63.5045 7.15927 63.2612 7.15927H62.8375C62.61 7.15927 62.0607 7.32405 61.1897 7.65363C60.8444 7.65363 60.5933 8.15191 60.4363 9.14847V9.19555C60.4363 9.57221 60.8601 10.1803 61.7075 11.02C63.5437 12.1656 64.7522 12.9699 65.3328 13.4329C65.9998 14.0685 66.8002 15.2691 67.734 17.0347C68.9268 18.7845 69.5231 19.9224 69.5231 20.4481V20.9072C69.5231 21.4015 69.2406 21.8409 68.6757 22.2254C68.0087 22.8061 67.0827 23.0965 65.8978 23.0965C65.8978 23.1278 65.788 23.1435 65.5683 23.1435H64.6266C63.6614 23.1435 62.9395 23.018 62.4609 22.7669C60.7267 22.147 59.4869 21.6095 58.7414 21.1543C57.9881 20.4481 57.58 19.8949 57.5173 19.4947C57.6428 19.0788 57.8625 18.8709 58.1764 18.8709H58.3177C58.608 18.8709 58.9219 19.1887 59.2593 19.8243C59.581 20.2009 60.2245 20.5619 61.1897 20.9072C62.8454 21.5428 63.7242 21.8606 63.8262 21.8606C63.9439 21.8841 64.1166 21.8959 64.3441 21.8959H65.3328C66.094 21.8959 66.7688 21.786 67.3574 21.5663C67.6006 21.4643 67.8517 21.272 68.1107 20.9895V20.5305C68.1107 20.2637 67.4829 19.1573 66.2274 17.2112C65.529 15.8929 64.917 14.9356 64.3912 14.3392C63.6928 13.7743 62.5786 13.0406 61.0484 12.1382C60.452 11.6595 60.044 11.2318 59.8243 10.8552C59.3848 10.3451 59.1651 10.0273 59.1651 9.90178C59.071 9.61144 59.0239 9.33288 59.0239 9.06608C59.0396 8.56387 59.2279 7.95573 59.5889 7.24166C59.9184 6.81008 60.452 6.49227 61.1897 6.28825C61.8017 6.03715 62.3667 5.9116 62.8846 5.9116ZM78.6688 5.08767C79.0768 5.21322 79.2808 5.46824 79.2808 5.85275V6.98271C79.2808 8.10483 79.1239 9.70561 78.81 11.7851V12.4324C79.9792 12.9111 80.811 13.1504 81.3054 13.1504C81.6192 13.3858 81.7762 13.6409 81.7762 13.9155V14.1509C81.6742 14.6688 81.4701 14.9278 81.1641 14.9278C80.5834 14.9278 79.7203 14.6884 78.5746 14.2098V14.2686C78.5746 14.8336 78.3078 17.0072 77.7742 20.7895C77.7036 21.888 77.578 22.5001 77.3976 22.6256C77.3976 22.7433 77.2563 22.8414 76.9738 22.9199H76.8326C76.5187 22.9199 76.299 22.6256 76.1734 22.0371C76.299 21.4251 76.4559 20.2009 76.6443 18.3647C76.8326 17.5957 77.0209 16.1127 77.2092 13.9155C76.3775 13.6409 75.2161 13.5035 73.7252 13.5035C73.7252 13.4643 73.2544 13.3662 72.3127 13.2093C71.7164 17.0308 71.4182 19.3809 71.4182 20.2598C71.2377 21.1386 71.0964 22.2058 70.9944 23.4613C70.7826 23.8145 70.5785 23.991 70.3824 23.991H70.194C69.786 23.8655 69.582 23.6104 69.582 23.2259V23.0376C69.8959 20.8561 70.1313 18.9023 70.2882 17.1759C70.4138 16.5403 70.6178 15.1593 70.9003 13.0327H70.2882C69.8802 12.8993 69.6761 12.6404 69.6761 12.2559V12.0793C69.6761 11.6007 69.9743 11.326 70.5707 11.2554H71.1828L71.8419 6.21763C72.093 5.8959 72.297 5.73504 72.454 5.73504H72.5952C73.0033 5.86844 73.2073 6.12739 73.2073 6.51189C73.2073 6.80223 72.9876 8.46186 72.5481 11.4908H72.5952C73.4427 11.687 74.7453 11.8243 76.503 11.9028C76.503 11.942 76.7855 12.0205 77.3505 12.1382L77.8213 8.34808C77.8527 7.93219 77.8684 7.47707 77.8684 6.98271V6.27648C77.9312 5.48394 78.1352 5.08767 78.4804 5.08767H78.6688Z" fill="white"/>
<path d="M8.05428 17.7201C7.78988 16.9672 8.99638 17.3066 9.05451 17.3066C12.722 17.3066 16.3896 17.3066 20.0571 17.3066C41.2557 17.3066 62.4681 16.8187 83.6634 17.7201C89.088 17.9509 98.0637 15.2796 103.313 19.7647C104.646 20.9031 100.466 18.9893 99.0434 18.5931C90.2594 16.1474 81.4368 15.0436 72.5855 14.504C51.217 13.2013 29.8141 14.0401 8.45222 15.3999C2.15381 15.8008 -3.85498 14.9427 6.57006 15.9283C23.5442 17.5331 40.0223 19.617 56.9797 15.1702C67.4904 12.4139 77.8465 8.2218 88.3957 6.14185" stroke="#AE0000" stroke-width="0.970865" stroke-linecap="round"/>
</svg>
