<svg width="85" height="83" viewBox="0 0 85 83" fill="none" xmlns="http://www.w3.org/2000/svg">
<path d="M69.2432 29.147L16.4372 0.509644L16.4372 57.2736L69.2432 29.147Z" fill="white"/>
<path d="M4.03984 79.8194C3.47984 79.8194 2.99318 79.7394 2.57984 79.5794C2.17318 79.4194 1.86318 79.206 1.64984 78.9394C1.43651 78.6727 1.32984 78.386 1.32984 78.0794C1.32984 77.826 1.39651 77.6327 1.52984 77.4994C1.66318 77.3594 1.86651 77.2894 2.13984 77.2894C2.13984 77.856 2.30984 78.2894 2.64984 78.5894C2.98984 78.8827 3.46651 79.0294 4.07984 79.0294C4.66651 79.0294 5.11651 78.9327 5.42984 78.7394C5.74318 78.5394 5.89984 78.246 5.89984 77.8594C5.89984 77.626 5.83984 77.436 5.71984 77.2894C5.60651 77.136 5.40984 77.006 5.12984 76.8994C4.85651 76.786 4.45984 76.6727 3.93984 76.5594C3.32651 76.426 2.83984 76.2727 2.47984 76.0994C2.11984 75.9194 1.85651 75.7027 1.68984 75.4494C1.52318 75.196 1.43984 74.8827 1.43984 74.5094C1.43984 74.136 1.54318 73.8094 1.74984 73.5294C1.96318 73.2427 2.26318 73.0227 2.64984 72.8694C3.03651 72.716 3.48651 72.6394 3.99984 72.6394C4.48651 72.6394 4.91984 72.7094 5.29984 72.8494C5.68651 72.9827 5.98651 73.176 6.19984 73.4294C6.41984 73.676 6.52984 73.956 6.52984 74.2694C6.52984 74.4627 6.46651 74.616 6.33984 74.7294C6.21984 74.836 6.02984 74.8894 5.76984 74.8894C5.69651 74.3827 5.51651 74.0127 5.22984 73.7794C4.94984 73.546 4.53984 73.4294 3.99984 73.4294C3.47984 73.4294 3.07984 73.5227 2.79984 73.7094C2.51984 73.8894 2.37984 74.146 2.37984 74.4794C2.37984 74.7127 2.42984 74.906 2.52984 75.0594C2.63651 75.206 2.81318 75.3327 3.05984 75.4394C3.31318 75.546 3.66651 75.6494 4.11984 75.7494C4.79984 75.896 5.33318 76.0594 5.71984 76.2394C6.11318 76.4194 6.39651 76.6394 6.56984 76.8994C6.74318 77.1594 6.82984 77.4794 6.82984 77.8594C6.82984 78.466 6.57651 78.946 6.06984 79.2994C5.56318 79.646 4.88651 79.8194 4.03984 79.8194ZM7.97539 73.1694C7.97539 73.0427 8.02206 72.9394 8.11539 72.8594C8.20872 72.7727 8.32206 72.7294 8.45539 72.7294H12.8854C12.8854 73.0094 12.8287 73.216 12.7154 73.3494C12.6021 73.4827 12.4254 73.5494 12.1854 73.5494H8.91539V75.7894H11.7154C11.7154 76.0694 11.6587 76.276 11.5454 76.4094C11.4321 76.5427 11.2587 76.6094 11.0254 76.6094H8.91539V78.9094H12.3954C12.6287 78.9094 12.8021 78.976 12.9154 79.1094C13.0287 79.2427 13.0854 79.4494 13.0854 79.7294H8.45539C8.32206 79.7294 8.20872 79.6894 8.11539 79.6094C8.02206 79.5227 7.97539 79.416 7.97539 79.2894V73.1694ZM14.2352 73.1694C14.2352 73.0427 14.2818 72.9394 14.3752 72.8594C14.4685 72.7727 14.5818 72.7294 14.7152 72.7294H19.1452C19.1452 73.0094 19.0885 73.216 18.9752 73.3494C18.8618 73.4827 18.6852 73.5494 18.4452 73.5494H15.1752V75.7894H17.9752C17.9752 76.0694 17.9185 76.276 17.8052 76.4094C17.6918 76.5427 17.5185 76.6094 17.2852 76.6094H15.1752V78.9094H18.6552C18.8885 78.9094 19.0618 78.976 19.1752 79.1094C19.2885 79.2427 19.3452 79.4494 19.3452 79.7294H14.7152C14.5818 79.7294 14.4685 79.6894 14.3752 79.6094C14.2818 79.5227 14.2352 79.416 14.2352 79.2894V73.1694ZM25.703 79.8194C25.1497 79.8194 24.653 79.7127 24.213 79.4994C23.7797 79.2794 23.4397 78.9794 23.193 78.5994C22.9464 78.2127 22.823 77.786 22.823 77.3194V75.1194C22.823 74.6527 22.9464 74.2327 23.193 73.8594C23.4397 73.4794 23.7797 73.1827 24.213 72.9694C24.653 72.7494 25.1497 72.6394 25.703 72.6394C26.263 72.6394 26.7597 72.7494 27.193 72.9694C27.633 73.1827 27.9764 73.4794 28.223 73.8594C28.4697 74.2327 28.593 74.6527 28.593 75.1194V77.3194C28.593 77.786 28.4697 78.2127 28.223 78.5994C27.9764 78.9794 27.633 79.2794 27.193 79.4994C26.753 79.7127 26.2564 79.8194 25.703 79.8194ZM25.703 78.9994C26.323 78.9994 26.8064 78.846 27.153 78.5394C27.4997 78.2327 27.673 77.8227 27.673 77.3094V75.1394C27.673 74.626 27.4997 74.2194 27.153 73.9194C26.8064 73.6127 26.323 73.4594 25.703 73.4594C25.0897 73.4594 24.6097 73.6127 24.263 73.9194C23.9164 74.2194 23.743 74.626 23.743 75.1394V77.3094C23.743 77.8227 23.9164 78.2327 24.263 78.5394C24.6097 78.846 25.0897 78.9994 25.703 78.9994ZM29.743 73.4494C29.743 73.196 29.8196 72.9994 29.973 72.8594C30.133 72.7127 30.353 72.6394 30.633 72.6394L34.513 78.5394L34.583 78.4794L34.293 77.9994V72.6394C34.5996 72.6394 34.8296 72.706 34.983 72.8394C35.143 72.9727 35.223 73.166 35.223 73.4194V79.0794C35.223 79.2927 35.1463 79.4694 34.993 79.6094C34.8463 79.7494 34.6563 79.8194 34.423 79.8194L30.453 73.7894L30.383 73.8494L30.673 74.3294V79.0394C30.673 79.2927 30.593 79.486 30.433 79.6194C30.2796 79.7527 30.0496 79.8194 29.743 79.8194V73.4494ZM41.4459 77.1894L38.9559 72.7594C39.0025 72.726 39.0725 72.6994 39.1659 72.6794C39.2659 72.6527 39.3592 72.6394 39.4459 72.6394C39.7859 72.6394 40.0292 72.7827 40.1759 73.0694L41.8859 76.2794L41.6759 76.6994L41.7459 76.7394L43.6459 73.0694C43.7992 72.7827 44.0459 72.6394 44.3859 72.6394C44.4725 72.6394 44.5625 72.6527 44.6559 72.6794C44.7559 72.6994 44.8292 72.726 44.8759 72.7594L42.3859 77.1894V79.0394C42.3859 79.2927 42.3059 79.486 42.1459 79.6194C41.9859 79.7527 41.7525 79.8194 41.4459 79.8194V77.1894ZM47.9003 79.8194C47.347 79.8194 46.8503 79.7127 46.4103 79.4994C45.977 79.2794 45.637 78.9794 45.3903 78.5994C45.1436 78.2127 45.0203 77.786 45.0203 77.3194V75.1194C45.0203 74.6527 45.1436 74.2327 45.3903 73.8594C45.637 73.4794 45.977 73.1827 46.4103 72.9694C46.8503 72.7494 47.347 72.6394 47.9003 72.6394C48.4603 72.6394 48.957 72.7494 49.3903 72.9694C49.8303 73.1827 50.1736 73.4794 50.4203 73.8594C50.667 74.2327 50.7903 74.6527 50.7903 75.1194V77.3194C50.7903 77.786 50.667 78.2127 50.4203 78.5994C50.1736 78.9794 49.8303 79.2794 49.3903 79.4994C48.9503 79.7127 48.4536 79.8194 47.9003 79.8194ZM47.9003 78.9994C48.5203 78.9994 49.0036 78.846 49.3503 78.5394C49.697 78.2327 49.8703 77.8227 49.8703 77.3094V75.1394C49.8703 74.626 49.697 74.2194 49.3503 73.9194C49.0036 73.6127 48.5203 73.4594 47.9003 73.4594C47.287 73.4594 46.807 73.6127 46.4603 73.9194C46.1136 74.2194 45.9403 74.626 45.9403 75.1394V77.3094C45.9403 77.8227 46.1136 78.2327 46.4603 78.5394C46.807 78.846 47.287 78.9994 47.9003 78.9994ZM54.6902 79.8194C54.1636 79.8194 53.6869 79.7127 53.2602 79.4994C52.8336 79.286 52.4969 78.9927 52.2502 78.6194C52.0102 78.2394 51.8902 77.816 51.8902 77.3494V73.4194C51.8902 73.166 51.9702 72.9727 52.1302 72.8394C52.2902 72.706 52.5236 72.6394 52.8302 72.6394V77.3494C52.8302 77.836 53.0002 78.2294 53.3402 78.5294C53.6869 78.8294 54.1369 78.9794 54.6902 78.9794C55.2436 78.9794 55.6902 78.8294 56.0302 78.5294C56.3702 78.2294 56.5402 77.836 56.5402 77.3494V73.4194C56.5402 73.166 56.6202 72.9727 56.7802 72.8394C56.9402 72.706 57.1736 72.6394 57.4802 72.6394V77.3494C57.4802 77.816 57.3602 78.2394 57.1202 78.6194C56.8802 78.9927 56.5469 79.286 56.1202 79.4994C55.6936 79.7127 55.2169 79.8194 54.6902 79.8194ZM60.9248 73.5594H58.4848C58.4848 73.006 58.7448 72.7294 59.2648 72.7294H64.2948C64.2948 73.2827 64.0348 73.5594 63.5148 73.5594H61.8648V79.0394C61.8648 79.2927 61.7848 79.486 61.6248 79.6194C61.4648 79.7527 61.2314 79.8194 60.9248 79.8194V73.5594ZM68.0984 79.8194C67.5718 79.8194 67.0951 79.7127 66.6684 79.4994C66.2418 79.286 65.9051 78.9927 65.6584 78.6194C65.4184 78.2394 65.2984 77.816 65.2984 77.3494V73.4194C65.2984 73.166 65.3784 72.9727 65.5384 72.8394C65.6984 72.706 65.9318 72.6394 66.2384 72.6394V77.3494C66.2384 77.836 66.4084 78.2294 66.7484 78.5294C67.0951 78.8294 67.5451 78.9794 68.0984 78.9794C68.6518 78.9794 69.0984 78.8294 69.4384 78.5294C69.7784 78.2294 69.9484 77.836 69.9484 77.3494V73.4194C69.9484 73.166 70.0284 72.9727 70.1884 72.8394C70.3484 72.706 70.5818 72.6394 70.8884 72.6394V77.3494C70.8884 77.816 70.7684 78.2394 70.5284 78.6194C70.2884 78.9927 69.9551 79.286 69.5284 79.4994C69.1018 79.7127 68.6251 79.8194 68.0984 79.8194ZM72.723 79.7294C72.5896 79.7294 72.4763 79.686 72.383 79.5994C72.2896 79.5127 72.243 79.4094 72.243 79.2894V73.1694C72.243 73.0427 72.2896 72.9394 72.383 72.8594C72.4763 72.7727 72.5896 72.7294 72.723 72.7294H75.503C76.083 72.7294 76.543 72.9027 76.883 73.2494C77.2296 73.596 77.403 74.0627 77.403 74.6494C77.403 74.9627 77.3196 75.256 77.153 75.5294C76.9863 75.8027 76.7696 76.006 76.503 76.1394V76.1594C76.883 76.2727 77.1763 76.4694 77.383 76.7494C77.5896 77.0227 77.693 77.356 77.693 77.7494C77.693 78.136 77.6096 78.4794 77.443 78.7794C77.283 79.0794 77.0563 79.3127 76.763 79.4794C76.4696 79.646 76.133 79.7294 75.753 79.7294H72.723ZM75.483 75.8194C75.7563 75.8194 75.9896 75.7094 76.183 75.4894C76.383 75.2627 76.483 74.9894 76.483 74.6694C76.483 74.316 76.393 74.0394 76.213 73.8394C76.0396 73.6394 75.7963 73.5394 75.483 73.5394H73.173V75.8194H75.483ZM75.683 78.9194C76.023 78.9194 76.2896 78.8194 76.483 78.6194C76.6763 78.4127 76.773 78.126 76.773 77.7594C76.773 77.406 76.6763 77.1294 76.483 76.9294C76.2963 76.7294 76.0296 76.6294 75.683 76.6294H73.173V78.9194H75.683ZM78.8445 73.1694C78.8445 73.0427 78.8912 72.9394 78.9845 72.8594C79.0779 72.7727 79.1912 72.7294 79.3245 72.7294H83.7545C83.7545 73.0094 83.6979 73.216 83.5845 73.3494C83.4712 73.4827 83.2945 73.5494 83.0545 73.5494H79.7845V75.7894H82.5845C82.5845 76.0694 82.5279 76.276 82.4145 76.4094C82.3012 76.5427 82.1279 76.6094 81.8945 76.6094H79.7845V78.9094H83.2645C83.4979 78.9094 83.6712 78.976 83.7845 79.1094C83.8979 79.2427 83.9545 79.4494 83.9545 79.7294H79.3245C79.1912 79.7294 79.0779 79.6894 78.9845 79.6094C78.8912 79.5227 78.8445 79.416 78.8445 79.2894V73.1694Z" fill="white" fill-opacity="0.56"/>
</svg>
