<svg width="17" height="21" viewBox="0 0 17 21" fill="none" xmlns="http://www.w3.org/2000/svg">
<path d="M8.6835 7.04646H16.136V13.7124M8.6835 7.04646V13.7124M8.6835 7.04646C8.6835 7.04646 4.30607 5.59892 3.14727 4.41349C2.13367 3.37661 1.95627 2.79068 2.50914 1.96731C3.06201 1.14393 5.25433 1.25315 6.49764 1.96729C8.34508 3.02842 8.6835 7.04646 8.6835 7.04646ZM8.6835 7.04646C8.6835 7.04646 10.0322 3.50117 10.6349 2.70976C12.2068 0.646028 17.4986 1.52445 14.5571 4.41349C12.8736 6.06689 8.6835 7.04646 8.6835 7.04646ZM8.6835 7.04646H4.30607H1.23096V13.7124M8.6835 20.3782H16.136V13.7124M8.6835 20.3782H1.23096V13.7124M8.6835 20.3782V13.7124M8.6835 13.7124H1.23096M8.6835 13.7124H16.136" stroke="white"/>
</svg>
