<svg width="955" height="49" viewBox="0 0 955 49" fill="none" xmlns="http://www.w3.org/2000/svg">
<path d="M139.991 18.8281C139.161 18.8281 138.416 18.6681 137.756 18.3481C137.106 18.0181 136.596 17.5681 136.226 16.9981C135.856 16.4181 135.671 15.7781 135.671 15.0781V11.7781C135.671 11.0781 135.856 10.4481 136.226 9.88815C136.596 9.31815 137.106 8.87314 137.756 8.55314C138.416 8.22314 139.161 8.05814 139.991 8.05814C140.831 8.05814 141.576 8.22314 142.226 8.55314C142.886 8.87314 143.401 9.31815 143.771 9.88815C144.141 10.4481 144.326 11.0781 144.326 11.7781V15.0781C144.326 15.7781 144.141 16.4181 143.771 16.9981C143.401 17.5681 142.886 18.0181 142.226 18.3481C141.566 18.6681 140.821 18.8281 139.991 18.8281ZM139.991 17.5981C140.921 17.5981 141.646 17.3681 142.166 16.9081C142.686 16.4481 142.946 15.8331 142.946 15.0631V11.8081C142.946 11.0381 142.686 10.4281 142.166 9.97815C141.646 9.51815 140.921 9.28815 139.991 9.28815C139.071 9.28815 138.351 9.51815 137.831 9.97815C137.311 10.4281 137.051 11.0381 137.051 11.8081V15.0631C137.051 15.8331 137.311 16.4481 137.831 16.9081C138.351 17.3681 139.071 17.5981 139.991 17.5981ZM150.176 18.8281C149.386 18.8281 148.671 18.6681 148.031 18.3481C147.391 18.0281 146.886 17.5881 146.516 17.0281C146.156 16.4581 145.976 15.8231 145.976 15.1231V9.22815C145.976 8.84815 146.096 8.55815 146.336 8.35815C146.576 8.15815 146.926 8.05814 147.386 8.05814V15.1231C147.386 15.8531 147.641 16.4431 148.151 16.8931C148.671 17.3431 149.346 17.5681 150.176 17.5681C151.006 17.5681 151.676 17.3431 152.186 16.8931C152.696 16.4431 152.951 15.8531 152.951 15.1231V9.22815C152.951 8.84815 153.071 8.55815 153.311 8.35815C153.551 8.15815 153.901 8.05814 154.361 8.05814V15.1231C154.361 15.8231 154.181 16.4581 153.821 17.0281C153.461 17.5881 152.961 18.0281 152.321 18.3481C151.681 18.6681 150.966 18.8281 150.176 18.8281ZM156.392 8.85315C156.392 8.66315 156.457 8.50815 156.587 8.38815C156.727 8.25815 156.902 8.19315 157.112 8.19315H161.252C162.222 8.19315 162.992 8.47815 163.562 9.04815C164.142 9.60815 164.432 10.3581 164.432 11.2981C164.432 12.4781 163.917 13.3131 162.887 13.8031V13.8481C163.337 14.0381 163.682 14.3281 163.922 14.7181C164.162 15.0981 164.282 15.5631 164.282 16.1131V17.6581C164.282 18.0381 164.162 18.3281 163.922 18.5281C163.682 18.7281 163.332 18.8281 162.872 18.8281V16.2031C162.872 15.6131 162.737 15.1681 162.467 14.8681C162.207 14.5581 161.817 14.4031 161.297 14.4031H157.787V17.6581C157.787 18.0381 157.667 18.3281 157.427 18.5281C157.197 18.7281 156.852 18.8281 156.392 18.8281V8.85315ZM161.207 13.1881C161.757 13.1881 162.192 13.0181 162.512 12.6781C162.842 12.3381 163.007 11.8731 163.007 11.2831C163.007 10.6831 162.852 10.2231 162.542 9.90315C162.232 9.58315 161.787 9.42315 161.207 9.42315H157.787V13.1881H161.207ZM174.465 18.8281C173.615 18.8281 172.86 18.6731 172.2 18.3631C171.54 18.0431 171.025 17.6031 170.655 17.0431C170.285 16.4731 170.1 15.8281 170.1 15.1081V11.7481C170.1 11.0281 170.28 10.3881 170.64 9.82815C171.01 9.26815 171.52 8.83315 172.17 8.52315C172.82 8.21315 173.565 8.05814 174.405 8.05814C175.245 8.05814 175.99 8.19315 176.64 8.46315C177.29 8.72315 177.795 9.08815 178.155 9.55815C178.525 10.0281 178.71 10.5631 178.71 11.1631C178.71 11.4631 178.61 11.6981 178.41 11.8681C178.21 12.0381 177.945 12.1231 177.615 12.1231C177.545 12.1231 177.44 12.1131 177.3 12.0931C177.32 11.9731 177.33 11.7831 177.33 11.5231C177.33 11.0931 177.205 10.7081 176.955 10.3681C176.715 10.0281 176.37 9.76315 175.92 9.57315C175.48 9.38315 174.975 9.28815 174.405 9.28815C173.845 9.28815 173.345 9.39315 172.905 9.60315C172.465 9.80315 172.12 10.0931 171.87 10.4731C171.63 10.8431 171.51 11.2681 171.51 11.7481V15.1081C171.51 15.5881 171.635 16.0181 171.885 16.3981C172.135 16.7781 172.485 17.0731 172.935 17.2831C173.385 17.4931 173.895 17.5981 174.465 17.5981C175.025 17.5981 175.525 17.5031 175.965 17.3131C176.415 17.1231 176.76 16.8531 177 16.5031C177.25 16.1531 177.375 15.7581 177.375 15.3181V14.4781H175.485C175.175 14.4781 174.925 14.3731 174.735 14.1631C174.545 13.9431 174.45 13.6581 174.45 13.3081H178.11C178.31 13.3081 178.47 13.3681 178.59 13.4881C178.72 13.6081 178.785 13.7681 178.785 13.9681V15.3331C178.785 16.0131 178.6 16.6181 178.23 17.1481C177.87 17.6781 177.36 18.0931 176.7 18.3931C176.05 18.6831 175.305 18.8281 174.465 18.8281ZM184.61 18.8281C183.78 18.8281 183.035 18.6681 182.375 18.3481C181.725 18.0181 181.215 17.5681 180.845 16.9981C180.475 16.4181 180.29 15.7781 180.29 15.0781V11.7781C180.29 11.0781 180.475 10.4481 180.845 9.88815C181.215 9.31815 181.725 8.87314 182.375 8.55314C183.035 8.22314 183.78 8.05814 184.61 8.05814C185.45 8.05814 186.195 8.22314 186.845 8.55314C187.505 8.87314 188.02 9.31815 188.39 9.88815C188.76 10.4481 188.945 11.0781 188.945 11.7781V15.0781C188.945 15.7781 188.76 16.4181 188.39 16.9981C188.02 17.5681 187.505 18.0181 186.845 18.3481C186.185 18.6681 185.44 18.8281 184.61 18.8281ZM184.61 17.5981C185.54 17.5981 186.265 17.3681 186.785 16.9081C187.305 16.4481 187.565 15.8331 187.565 15.0631V11.8081C187.565 11.0381 187.305 10.4281 186.785 9.97815C186.265 9.51815 185.54 9.28815 184.61 9.28815C183.69 9.28815 182.97 9.51815 182.45 9.97815C181.93 10.4281 181.67 11.0381 181.67 11.8081V15.0631C181.67 15.8331 181.93 16.4481 182.45 16.9081C182.97 17.3681 183.69 17.5981 184.61 17.5981ZM190.581 18.8281C190.281 18.7681 190.046 18.6431 189.876 18.4531C189.706 18.2531 189.621 18.0131 189.621 17.7331C189.621 17.5431 189.666 17.3431 189.756 17.1331L193.341 8.50815C193.461 8.20815 193.691 8.05814 194.031 8.05814C194.351 8.05814 194.576 8.20815 194.706 8.50815L198.291 17.1331C198.381 17.3431 198.426 17.5431 198.426 17.7331C198.426 18.0031 198.341 18.2381 198.171 18.4381C198.001 18.6381 197.766 18.7681 197.466 18.8281L196.176 15.6931H191.871L190.581 18.8281ZM195.741 14.4781L193.806 9.57315L193.686 9.61815L193.956 10.3081L192.306 14.4781H195.741ZM200.882 18.6931C200.682 18.6931 200.507 18.6231 200.357 18.4831C200.217 18.3331 200.147 18.1581 200.147 17.9581V9.22815C200.147 8.44815 200.617 8.05814 201.557 8.05814V17.4481H206.162C206.512 17.4481 206.782 17.5581 206.972 17.7781C207.162 17.9881 207.257 18.2931 207.257 18.6931H200.882ZM213.001 9.22815C213.001 8.85815 213.121 8.57315 213.361 8.37315C213.611 8.16315 213.961 8.05814 214.411 8.05814V17.6581C214.411 18.0281 214.286 18.3181 214.036 18.5281C213.796 18.7281 213.451 18.8281 213.001 18.8281V9.22815ZM220.567 18.8281C219.727 18.8281 218.997 18.7081 218.377 18.4681C217.767 18.2281 217.302 17.9081 216.982 17.5081C216.662 17.1081 216.502 16.6781 216.502 16.2181C216.502 15.8381 216.602 15.5481 216.802 15.3481C217.002 15.1381 217.307 15.0331 217.717 15.0331C217.717 15.8831 217.972 16.5331 218.482 16.9831C218.992 17.4231 219.707 17.6431 220.627 17.6431C221.507 17.6431 222.182 17.4981 222.652 17.2081C223.122 16.9081 223.357 16.4681 223.357 15.8881C223.357 15.5381 223.267 15.2531 223.087 15.0331C222.917 14.8031 222.622 14.6081 222.202 14.4481C221.792 14.2781 221.197 14.1081 220.417 13.9381C219.497 13.7381 218.767 13.5081 218.227 13.2481C217.687 12.9781 217.292 12.6531 217.042 12.2731C216.792 11.8931 216.667 11.4231 216.667 10.8631C216.667 10.3031 216.822 9.81315 217.132 9.39315C217.452 8.96315 217.902 8.63315 218.482 8.40315C219.062 8.17314 219.737 8.05814 220.507 8.05814C221.237 8.05814 221.887 8.16315 222.457 8.37315C223.037 8.57315 223.487 8.86315 223.807 9.24314C224.137 9.61314 224.302 10.0331 224.302 10.5031C224.302 10.7931 224.207 11.0231 224.017 11.1931C223.837 11.3531 223.552 11.4331 223.162 11.4331C223.052 10.6731 222.782 10.1181 222.352 9.76815C221.932 9.41815 221.317 9.24314 220.507 9.24314C219.727 9.24314 219.127 9.38314 218.707 9.66314C218.287 9.93314 218.077 10.3181 218.077 10.8181C218.077 11.1681 218.152 11.4581 218.302 11.6881C218.462 11.9081 218.727 12.0981 219.097 12.2581C219.477 12.4181 220.007 12.5731 220.687 12.7231C221.707 12.9431 222.507 13.1881 223.087 13.4581C223.677 13.7281 224.102 14.0581 224.362 14.4481C224.622 14.8381 224.752 15.3181 224.752 15.8881C224.752 16.7981 224.372 17.5181 223.612 18.0481C222.852 18.5681 221.837 18.8281 220.567 18.8281ZM233.473 9.43815H229.813C229.813 8.60815 230.203 8.19315 230.983 8.19315H238.528C238.528 9.02315 238.138 9.43815 237.358 9.43815H234.883V17.6581C234.883 18.0381 234.763 18.3281 234.523 18.5281C234.283 18.7281 233.933 18.8281 233.473 18.8281V9.43815ZM243.072 18.8281C242.242 18.8281 241.497 18.6681 240.837 18.3481C240.187 18.0181 239.677 17.5681 239.307 16.9981C238.937 16.4181 238.752 15.7781 238.752 15.0781V11.7781C238.752 11.0781 238.937 10.4481 239.307 9.88815C239.677 9.31815 240.187 8.87314 240.837 8.55314C241.497 8.22314 242.242 8.05814 243.072 8.05814C243.912 8.05814 244.657 8.22314 245.307 8.55314C245.967 8.87314 246.482 9.31815 246.852 9.88815C247.222 10.4481 247.407 11.0781 247.407 11.7781V15.0781C247.407 15.7781 247.222 16.4181 246.852 16.9981C246.482 17.5681 245.967 18.0181 245.307 18.3481C244.647 18.6681 243.902 18.8281 243.072 18.8281ZM243.072 17.5981C244.002 17.5981 244.727 17.3681 245.247 16.9081C245.767 16.4481 246.027 15.8331 246.027 15.0631V11.8081C246.027 11.0381 245.767 10.4281 245.247 9.97815C244.727 9.51815 244.002 9.28815 243.072 9.28815C242.152 9.28815 241.432 9.51815 240.912 9.97815C240.392 10.4281 240.132 11.0381 240.132 11.8081V15.0631C240.132 15.8331 240.392 16.4481 240.912 16.9081C241.432 17.3681 242.152 17.5981 243.072 17.5981ZM252.999 9.22815C252.999 8.84815 253.119 8.55815 253.359 8.35815C253.599 8.15815 253.949 8.05814 254.409 8.05814V12.7831H259.734V9.22815C259.734 8.84815 259.854 8.55815 260.094 8.35815C260.334 8.15815 260.684 8.05814 261.144 8.05814V17.6581C261.144 18.0381 261.024 18.3281 260.784 18.5281C260.544 18.7281 260.194 18.8281 259.734 18.8281V14.0281H254.409V17.6581C254.409 18.0381 254.289 18.3281 254.049 18.5281C253.809 18.7281 253.459 18.8281 252.999 18.8281V9.22815ZM263.238 8.85315C263.238 8.66315 263.308 8.50815 263.448 8.38815C263.588 8.25815 263.758 8.19315 263.958 8.19315H270.603C270.603 8.61314 270.518 8.92315 270.348 9.12315C270.178 9.32315 269.913 9.42315 269.553 9.42315H264.648V12.7831H268.848C268.848 13.2031 268.763 13.5131 268.593 13.7131C268.423 13.9131 268.163 14.0131 267.813 14.0131H264.648V17.4631H269.868C270.218 17.4631 270.478 17.5631 270.648 17.7631C270.818 17.9631 270.903 18.2731 270.903 18.6931H263.958C263.758 18.6931 263.588 18.6331 263.448 18.5131C263.308 18.3831 263.238 18.2231 263.238 18.0331V8.85315ZM273.363 18.6931C273.163 18.6931 272.988 18.6231 272.838 18.4831C272.698 18.3331 272.628 18.1581 272.628 17.9581V9.22815C272.628 8.44815 273.098 8.05814 274.038 8.05814V17.4481H278.643C278.993 17.4481 279.263 17.5581 279.453 17.7781C279.643 17.9881 279.738 18.2931 279.738 18.6931H273.363ZM281.314 8.85315C281.314 8.66315 281.379 8.50815 281.509 8.38815C281.649 8.25815 281.824 8.19315 282.034 8.19315H286.414C287.074 8.19315 287.659 8.33315 288.169 8.61314C288.679 8.88315 289.074 9.26815 289.354 9.76815C289.634 10.2581 289.774 10.8231 289.774 11.4631C289.774 12.1231 289.634 12.7031 289.354 13.2031C289.084 13.7031 288.694 14.0881 288.184 14.3581C287.674 14.6281 287.084 14.7631 286.414 14.7631H282.724V17.6581C282.724 18.0381 282.604 18.3281 282.364 18.5281C282.124 18.7281 281.774 18.8281 281.314 18.8281V8.85315ZM286.414 13.5181C287.014 13.5181 287.489 13.3381 287.839 12.9781C288.189 12.6081 288.364 12.1031 288.364 11.4631C288.364 10.8431 288.184 10.3531 287.824 9.99315C287.474 9.62315 287.004 9.43815 286.414 9.43815H282.724V13.5181H286.414ZM295.362 8.85315C295.362 8.66315 295.427 8.50815 295.557 8.38815C295.697 8.25815 295.872 8.19315 296.082 8.19315H300.462C301.122 8.19315 301.707 8.33315 302.217 8.61314C302.727 8.88315 303.122 9.26815 303.402 9.76815C303.682 10.2581 303.822 10.8231 303.822 11.4631C303.822 12.1231 303.682 12.7031 303.402 13.2031C303.132 13.7031 302.742 14.0881 302.232 14.3581C301.722 14.6281 301.132 14.7631 300.462 14.7631H296.772V17.6581C296.772 18.0381 296.652 18.3281 296.412 18.5281C296.172 18.7281 295.822 18.8281 295.362 18.8281V8.85315ZM300.462 13.5181C301.062 13.5181 301.537 13.3381 301.887 12.9781C302.237 12.6081 302.412 12.1031 302.412 11.4631C302.412 10.8431 302.232 10.3531 301.872 9.99315C301.522 9.62315 301.052 9.43815 300.462 9.43815H296.772V13.5181H300.462ZM305.543 8.85315C305.543 8.66315 305.613 8.50815 305.753 8.38815C305.893 8.25815 306.063 8.19315 306.263 8.19315H312.908C312.908 8.61314 312.823 8.92315 312.653 9.12315C312.483 9.32315 312.218 9.42315 311.858 9.42315H306.953V12.7831H311.153C311.153 13.2031 311.068 13.5131 310.898 13.7131C310.728 13.9131 310.468 14.0131 310.118 14.0131H306.953V17.4631H312.173C312.523 17.4631 312.783 17.5631 312.953 17.7631C313.123 17.9631 313.208 18.2731 313.208 18.6931H306.263C306.063 18.6931 305.893 18.6331 305.753 18.5131C305.613 18.3831 305.543 18.2231 305.543 18.0331V8.85315ZM318.204 18.8281C317.374 18.8281 316.629 18.6681 315.969 18.3481C315.319 18.0181 314.809 17.5681 314.439 16.9981C314.069 16.4181 313.884 15.7781 313.884 15.0781V11.7781C313.884 11.0781 314.069 10.4481 314.439 9.88815C314.809 9.31815 315.319 8.87314 315.969 8.55314C316.629 8.22314 317.374 8.05814 318.204 8.05814C319.044 8.05814 319.789 8.22314 320.439 8.55314C321.099 8.87314 321.614 9.31815 321.984 9.88815C322.354 10.4481 322.539 11.0781 322.539 11.7781V15.0781C322.539 15.7781 322.354 16.4181 321.984 16.9981C321.614 17.5681 321.099 18.0181 320.439 18.3481C319.779 18.6681 319.034 18.8281 318.204 18.8281ZM318.204 17.5981C319.134 17.5981 319.859 17.3681 320.379 16.9081C320.899 16.4481 321.159 15.8331 321.159 15.0631V11.8081C321.159 11.0381 320.899 10.4281 320.379 9.97815C319.859 9.51815 319.134 9.28815 318.204 9.28815C317.284 9.28815 316.564 9.51815 316.044 9.97815C315.524 10.4281 315.264 11.0381 315.264 11.8081V15.0631C315.264 15.8331 315.524 16.4481 316.044 16.9081C316.564 17.3681 317.284 17.5981 318.204 17.5981ZM324.263 8.85315C324.263 8.66315 324.328 8.50815 324.458 8.38815C324.598 8.25815 324.773 8.19315 324.983 8.19315H329.363C330.023 8.19315 330.608 8.33315 331.118 8.61314C331.628 8.88315 332.023 9.26815 332.303 9.76815C332.583 10.2581 332.723 10.8231 332.723 11.4631C332.723 12.1231 332.583 12.7031 332.303 13.2031C332.033 13.7031 331.643 14.0881 331.133 14.3581C330.623 14.6281 330.033 14.7631 329.363 14.7631H325.673V17.6581C325.673 18.0381 325.553 18.3281 325.313 18.5281C325.073 18.7281 324.723 18.8281 324.263 18.8281V8.85315ZM329.363 13.5181C329.963 13.5181 330.438 13.3381 330.788 12.9781C331.138 12.6081 331.313 12.1031 331.313 11.4631C331.313 10.8431 331.133 10.3531 330.773 9.99315C330.423 9.62315 329.953 9.43815 329.363 9.43815H325.673V13.5181H329.363ZM335.179 18.6931C334.979 18.6931 334.804 18.6231 334.654 18.4831C334.514 18.3331 334.444 18.1581 334.444 17.9581V9.22815C334.444 8.44815 334.914 8.05814 335.854 8.05814V17.4481H340.459C340.809 17.4481 341.079 17.5581 341.269 17.7781C341.459 17.9881 341.554 18.2931 341.554 18.6931H335.179ZM343.131 8.85315C343.131 8.66315 343.201 8.50815 343.341 8.38815C343.481 8.25815 343.651 8.19315 343.851 8.19315H350.496C350.496 8.61314 350.411 8.92315 350.241 9.12315C350.071 9.32315 349.806 9.42315 349.446 9.42315H344.541V12.7831H348.741C348.741 13.2031 348.656 13.5131 348.486 13.7131C348.316 13.9131 348.056 14.0131 347.706 14.0131H344.541V17.4631H349.761C350.111 17.4631 350.371 17.5631 350.541 17.7631C350.711 17.9631 350.796 18.2731 350.796 18.6931H343.851C343.651 18.6931 343.481 18.6331 343.341 18.5131C343.201 18.3831 343.131 18.2231 343.131 18.0331V8.85315ZM356.687 9.22815C356.687 8.85815 356.807 8.57315 357.047 8.37315C357.297 8.16315 357.647 8.05814 358.097 8.05814V17.6581C358.097 18.0281 357.972 18.3181 357.722 18.5281C357.482 18.7281 357.137 18.8281 356.687 18.8281V9.22815ZM360.504 9.27315C360.504 8.89315 360.619 8.59815 360.849 8.38815C361.089 8.16815 361.419 8.05814 361.839 8.05814L367.659 16.9081L367.764 16.8181L367.329 16.0981V8.05814C367.789 8.05814 368.134 8.15815 368.364 8.35815C368.604 8.55815 368.724 8.84815 368.724 9.22815V17.7181C368.724 18.0381 368.609 18.3031 368.379 18.5131C368.159 18.7231 367.874 18.8281 367.524 18.8281L361.569 9.78315L361.464 9.87315L361.899 10.5931V17.6581C361.899 18.0381 361.779 18.3281 361.539 18.5281C361.309 18.7281 360.964 18.8281 360.504 18.8281V9.27315ZM377.833 9.43815H374.173C374.173 8.60815 374.563 8.19315 375.343 8.19315H382.888C382.888 9.02315 382.498 9.43815 381.718 9.43815H379.243V17.6581C379.243 18.0381 379.123 18.3281 378.883 18.5281C378.643 18.7281 378.293 18.8281 377.833 18.8281V9.43815ZM384.468 9.22815C384.468 8.84815 384.588 8.55815 384.828 8.35815C385.068 8.15815 385.418 8.05814 385.878 8.05814V12.7831H391.203V9.22815C391.203 8.84815 391.323 8.55815 391.563 8.35815C391.803 8.15815 392.153 8.05814 392.613 8.05814V17.6581C392.613 18.0381 392.493 18.3281 392.253 18.5281C392.013 18.7281 391.663 18.8281 391.203 18.8281V14.0281H385.878V17.6581C385.878 18.0381 385.758 18.3281 385.518 18.5281C385.278 18.7281 384.928 18.8281 384.468 18.8281V9.22815ZM394.708 8.85315C394.708 8.66315 394.778 8.50815 394.918 8.38815C395.058 8.25815 395.228 8.19315 395.428 8.19315H402.073C402.073 8.61314 401.988 8.92315 401.818 9.12315C401.648 9.32315 401.383 9.42315 401.023 9.42315H396.118V12.7831H400.318C400.318 13.2031 400.233 13.5131 400.063 13.7131C399.893 13.9131 399.633 14.0131 399.283 14.0131H396.118V17.4631H401.338C401.688 17.4631 401.948 17.5631 402.118 17.7631C402.288 17.9631 402.373 18.2731 402.373 18.6931H395.428C395.228 18.6931 395.058 18.6331 394.918 18.5131C394.778 18.3831 394.708 18.2231 394.708 18.0331V8.85315ZM404.397 9.22815C404.397 8.85815 404.517 8.57315 404.757 8.37315C405.007 8.16315 405.357 8.05814 405.807 8.05814V17.6581C405.807 18.0281 405.682 18.3181 405.432 18.5281C405.192 18.7281 404.847 18.8281 404.397 18.8281V9.22815ZM408.214 8.85315C408.214 8.66315 408.279 8.50815 408.409 8.38815C408.549 8.25815 408.724 8.19315 408.934 8.19315H413.074C414.044 8.19315 414.814 8.47815 415.384 9.04815C415.964 9.60815 416.254 10.3581 416.254 11.2981C416.254 12.4781 415.739 13.3131 414.709 13.8031V13.8481C415.159 14.0381 415.504 14.3281 415.744 14.7181C415.984 15.0981 416.104 15.5631 416.104 16.1131V17.6581C416.104 18.0381 415.984 18.3281 415.744 18.5281C415.504 18.7281 415.154 18.8281 414.694 18.8281V16.2031C414.694 15.6131 414.559 15.1681 414.289 14.8681C414.029 14.5581 413.639 14.4031 413.119 14.4031H409.609V17.6581C409.609 18.0381 409.489 18.3281 409.249 18.5281C409.019 18.7281 408.674 18.8281 408.214 18.8281V8.85315ZM413.029 13.1881C413.579 13.1881 414.014 13.0181 414.334 12.6781C414.664 12.3381 414.829 11.8731 414.829 11.2831C414.829 10.6831 414.674 10.2231 414.364 9.90315C414.054 9.58315 413.609 9.42315 413.029 9.42315H409.609V13.1881H413.029ZM425.821 18.8281C424.981 18.8281 424.251 18.7081 423.631 18.4681C423.021 18.2281 422.556 17.9081 422.236 17.5081C421.916 17.1081 421.756 16.6781 421.756 16.2181C421.756 15.8381 421.856 15.5481 422.056 15.3481C422.256 15.1381 422.561 15.0331 422.971 15.0331C422.971 15.8831 423.226 16.5331 423.736 16.9831C424.246 17.4231 424.961 17.6431 425.881 17.6431C426.761 17.6431 427.436 17.4981 427.906 17.2081C428.376 16.9081 428.611 16.4681 428.611 15.8881C428.611 15.5381 428.521 15.2531 428.341 15.0331C428.171 14.8031 427.876 14.6081 427.456 14.4481C427.046 14.2781 426.451 14.1081 425.671 13.9381C424.751 13.7381 424.021 13.5081 423.481 13.2481C422.941 12.9781 422.546 12.6531 422.296 12.2731C422.046 11.8931 421.921 11.4231 421.921 10.8631C421.921 10.3031 422.076 9.81315 422.386 9.39315C422.706 8.96315 423.156 8.63315 423.736 8.40315C424.316 8.17314 424.991 8.05814 425.761 8.05814C426.491 8.05814 427.141 8.16315 427.711 8.37315C428.291 8.57315 428.741 8.86315 429.061 9.24314C429.391 9.61314 429.556 10.0331 429.556 10.5031C429.556 10.7931 429.461 11.0231 429.271 11.1931C429.091 11.3531 428.806 11.4331 428.416 11.4331C428.306 10.6731 428.036 10.1181 427.606 9.76815C427.186 9.41815 426.571 9.24314 425.761 9.24314C424.981 9.24314 424.381 9.38314 423.961 9.66314C423.541 9.93314 423.331 10.3181 423.331 10.8181C423.331 11.1681 423.406 11.4581 423.556 11.6881C423.716 11.9081 423.981 12.0981 424.351 12.2581C424.731 12.4181 425.261 12.5731 425.941 12.7231C426.961 12.9431 427.761 13.1881 428.341 13.4581C428.931 13.7281 429.356 14.0581 429.616 14.4481C429.876 14.8381 430.006 15.3181 430.006 15.8881C430.006 16.7981 429.626 17.5181 428.866 18.0481C428.106 18.5681 427.091 18.8281 425.821 18.8281ZM434.186 9.43815H430.526C430.526 8.60815 430.916 8.19315 431.696 8.19315H439.241C439.241 9.02315 438.851 9.43815 438.071 9.43815H435.596V17.6581C435.596 18.0381 435.476 18.3281 435.236 18.5281C434.996 18.7281 434.646 18.8281 434.186 18.8281V9.43815ZM440.821 8.85315C440.821 8.66315 440.886 8.50815 441.016 8.38815C441.156 8.25815 441.331 8.19315 441.541 8.19315H445.681C446.651 8.19315 447.421 8.47815 447.991 9.04815C448.571 9.60815 448.861 10.3581 448.861 11.2981C448.861 12.4781 448.346 13.3131 447.316 13.8031V13.8481C447.766 14.0381 448.111 14.3281 448.351 14.7181C448.591 15.0981 448.711 15.5631 448.711 16.1131V17.6581C448.711 18.0381 448.591 18.3281 448.351 18.5281C448.111 18.7281 447.761 18.8281 447.301 18.8281V16.2031C447.301 15.6131 447.166 15.1681 446.896 14.8681C446.636 14.5581 446.246 14.4031 445.726 14.4031H442.216V17.6581C442.216 18.0381 442.096 18.3281 441.856 18.5281C441.626 18.7281 441.281 18.8281 440.821 18.8281V8.85315ZM445.636 13.1881C446.186 13.1881 446.621 13.0181 446.941 12.6781C447.271 12.3381 447.436 11.8731 447.436 11.2831C447.436 10.6831 447.281 10.2231 446.971 9.90315C446.661 9.58315 446.216 9.42315 445.636 9.42315H442.216V13.1881H445.636ZM454.936 18.8281C454.146 18.8281 453.431 18.6681 452.791 18.3481C452.151 18.0281 451.646 17.5881 451.276 17.0281C450.916 16.4581 450.736 15.8231 450.736 15.1231V9.22815C450.736 8.84815 450.856 8.55815 451.096 8.35815C451.336 8.15815 451.686 8.05814 452.146 8.05814V15.1231C452.146 15.8531 452.401 16.4431 452.911 16.8931C453.431 17.3431 454.106 17.5681 454.936 17.5681C455.766 17.5681 456.436 17.3431 456.946 16.8931C457.456 16.4431 457.711 15.8531 457.711 15.1231V9.22815C457.711 8.84815 457.831 8.55815 458.071 8.35815C458.311 8.15815 458.661 8.05814 459.121 8.05814V15.1231C459.121 15.8231 458.941 16.4581 458.581 17.0281C458.221 17.5881 457.721 18.0281 457.081 18.3481C456.441 18.6681 455.726 18.8281 454.936 18.8281ZM465.368 18.8281C464.518 18.8281 463.763 18.6731 463.103 18.3631C462.443 18.0431 461.928 17.6031 461.558 17.0431C461.188 16.4731 461.003 15.8281 461.003 15.1081V11.7481C461.003 11.0281 461.183 10.3881 461.543 9.82815C461.913 9.26815 462.423 8.83315 463.073 8.52315C463.723 8.21315 464.468 8.05814 465.308 8.05814C466.148 8.05814 466.893 8.19315 467.543 8.46315C468.193 8.72315 468.698 9.08815 469.058 9.55815C469.428 10.0281 469.613 10.5631 469.613 11.1631C469.613 11.4631 469.513 11.6981 469.313 11.8681C469.113 12.0381 468.848 12.1231 468.518 12.1231C468.448 12.1231 468.343 12.1131 468.203 12.0931C468.223 11.9731 468.233 11.7831 468.233 11.5231C468.233 11.0931 468.108 10.7081 467.858 10.3681C467.618 10.0281 467.273 9.76315 466.823 9.57315C466.383 9.38315 465.878 9.28815 465.308 9.28815C464.748 9.28815 464.248 9.39315 463.808 9.60315C463.368 9.80315 463.023 10.0931 462.773 10.4731C462.533 10.8431 462.413 11.2681 462.413 11.7481V15.1081C462.413 15.5881 462.538 16.0181 462.788 16.3981C463.038 16.7781 463.388 17.0731 463.838 17.2831C464.288 17.4931 464.798 17.5981 465.368 17.5981C465.928 17.5981 466.428 17.5031 466.868 17.3131C467.318 17.1231 467.663 16.8531 467.903 16.5031C468.153 16.1531 468.278 15.7581 468.278 15.3181V14.4781H466.388C466.078 14.4781 465.828 14.3731 465.638 14.1631C465.448 13.9431 465.353 13.6581 465.353 13.3081H469.013C469.213 13.3081 469.373 13.3681 469.493 13.4881C469.623 13.6081 469.688 13.7681 469.688 13.9681V15.3331C469.688 16.0131 469.503 16.6181 469.133 17.1481C468.773 17.6781 468.263 18.0931 467.603 18.3931C466.953 18.6831 466.208 18.8281 465.368 18.8281ZM475.402 18.8281C474.552 18.8281 473.797 18.6731 473.137 18.3631C472.477 18.0431 471.962 17.6031 471.592 17.0431C471.222 16.4731 471.037 15.8281 471.037 15.1081V11.7481C471.037 11.0281 471.217 10.3881 471.577 9.82815C471.947 9.26815 472.457 8.83315 473.107 8.52315C473.757 8.21315 474.502 8.05814 475.342 8.05814C476.182 8.05814 476.927 8.19315 477.577 8.46315C478.227 8.72315 478.732 9.08815 479.092 9.55815C479.462 10.0281 479.647 10.5631 479.647 11.1631C479.647 11.4631 479.547 11.6981 479.347 11.8681C479.147 12.0381 478.882 12.1231 478.552 12.1231C478.482 12.1231 478.377 12.1131 478.237 12.0931C478.257 11.9731 478.267 11.7831 478.267 11.5231C478.267 11.0931 478.142 10.7081 477.892 10.3681C477.652 10.0281 477.307 9.76315 476.857 9.57315C476.417 9.38315 475.912 9.28815 475.342 9.28815C474.782 9.28815 474.282 9.39315 473.842 9.60315C473.402 9.80315 473.057 10.0931 472.807 10.4731C472.567 10.8431 472.447 11.2681 472.447 11.7481V15.1081C472.447 15.5881 472.572 16.0181 472.822 16.3981C473.072 16.7781 473.422 17.0731 473.872 17.2831C474.322 17.4931 474.832 17.5981 475.402 17.5981C475.962 17.5981 476.462 17.5031 476.902 17.3131C477.352 17.1231 477.697 16.8531 477.937 16.5031C478.187 16.1531 478.312 15.7581 478.312 15.3181V14.4781H476.422C476.112 14.4781 475.862 14.3731 475.672 14.1631C475.482 13.9431 475.387 13.6581 475.387 13.3081H479.047C479.247 13.3081 479.407 13.3681 479.527 13.4881C479.657 13.6081 479.722 13.7681 479.722 13.9681V15.3331C479.722 16.0131 479.537 16.6181 479.167 17.1481C478.807 17.6781 478.297 18.0931 477.637 18.3931C476.987 18.6831 476.242 18.8281 475.402 18.8281ZM482.337 18.6931C482.137 18.6931 481.962 18.6231 481.812 18.4831C481.672 18.3331 481.602 18.1581 481.602 17.9581V9.22815C481.602 8.44815 482.072 8.05814 483.012 8.05814V17.4481H487.617C487.967 17.4481 488.237 17.5581 488.427 17.7781C488.617 17.9881 488.712 18.2931 488.712 18.6931H482.337ZM490.289 8.85315C490.289 8.66315 490.359 8.50815 490.499 8.38815C490.639 8.25815 490.809 8.19315 491.009 8.19315H497.654C497.654 8.61314 497.569 8.92315 497.399 9.12315C497.229 9.32315 496.964 9.42315 496.604 9.42315H491.699V12.7831H495.899C495.899 13.2031 495.814 13.5131 495.644 13.7131C495.474 13.9131 495.214 14.0131 494.864 14.0131H491.699V17.4631H496.919C497.269 17.4631 497.529 17.5631 497.699 17.7631C497.869 17.9631 497.954 18.2731 497.954 18.6931H491.009C490.809 18.6931 490.639 18.6331 490.499 18.5131C490.359 18.3831 490.289 18.2231 490.289 18.0331V8.85315ZM506.996 18.8281C506.636 18.8281 506.341 18.7431 506.111 18.5731C505.881 18.3931 505.726 18.1431 505.646 17.8231L503.171 8.19315C503.321 8.10315 503.511 8.05814 503.741 8.05814C504.031 8.05814 504.276 8.13315 504.476 8.28315C504.676 8.42315 504.806 8.61815 504.866 8.86815L506.501 15.9781L506.261 16.8631L506.351 16.8931L508.766 8.52315C508.806 8.37315 508.881 8.25815 508.991 8.17815C509.111 8.09815 509.251 8.05814 509.411 8.05814C509.561 8.05814 509.696 8.09815 509.816 8.17815C509.936 8.25815 510.016 8.37315 510.056 8.52315L512.141 16.0381L511.931 16.9531L512.021 16.9831L513.956 8.86815C514.016 8.61815 514.141 8.42315 514.331 8.28315C514.531 8.13315 514.771 8.05814 515.051 8.05814C515.281 8.05814 515.481 8.10315 515.651 8.19315L513.176 17.8231C513.096 18.1431 512.936 18.3931 512.696 18.5731C512.466 18.7431 512.171 18.8281 511.811 18.8281L509.246 9.75315L509.156 9.78315L509.351 10.4881L506.996 18.8281ZM517.674 9.22815C517.674 8.85815 517.794 8.57315 518.034 8.37315C518.284 8.16315 518.634 8.05814 519.084 8.05814V17.6581C519.084 18.0281 518.959 18.3181 518.709 18.5281C518.469 18.7281 518.124 18.8281 517.674 18.8281V9.22815ZM524.625 9.43815H520.965C520.965 8.60815 521.355 8.19315 522.135 8.19315H529.68C529.68 9.02315 529.29 9.43815 528.51 9.43815H526.035V17.6581C526.035 18.0381 525.915 18.3281 525.675 18.5281C525.435 18.7281 525.085 18.8281 524.625 18.8281V9.43815ZM531.26 9.22815C531.26 8.84815 531.38 8.55815 531.62 8.35815C531.86 8.15815 532.21 8.05814 532.67 8.05814V12.7831H537.995V9.22815C537.995 8.84815 538.115 8.55815 538.355 8.35815C538.595 8.15815 538.945 8.05814 539.405 8.05814V17.6581C539.405 18.0381 539.285 18.3281 539.045 18.5281C538.805 18.7281 538.455 18.8281 537.995 18.8281V14.0281H532.67V17.6581C532.67 18.0381 532.55 18.3281 532.31 18.5281C532.07 18.7281 531.72 18.8281 531.26 18.8281V9.22815ZM62.8257 42.8281C62.4657 42.8281 62.1707 42.7431 61.9407 42.5731C61.7107 42.3931 61.5557 42.1431 61.4757 41.8231L59.0007 32.1931C59.1507 32.1031 59.3407 32.0581 59.5707 32.0581C59.8607 32.0581 60.1057 32.1331 60.3057 32.2831C60.5057 32.4231 60.6357 32.6181 60.6957 32.8681L62.3307 39.9781L62.0907 40.8631L62.1807 40.8931L64.5957 32.5231C64.6357 32.3731 64.7107 32.2581 64.8207 32.1781C64.9407 32.0981 65.0807 32.0581 65.2407 32.0581C65.3907 32.0581 65.5257 32.0981 65.6457 32.1781C65.7657 32.2581 65.8457 32.3731 65.8857 32.5231L67.9707 40.0381L67.7607 40.9531L67.8507 40.9831L69.7857 32.8681C69.8457 32.6181 69.9707 32.4231 70.1607 32.2831C70.3607 32.1331 70.6007 32.0581 70.8807 32.0581C71.1107 32.0581 71.3107 32.1031 71.4807 32.1931L69.0057 41.8231C68.9257 42.1431 68.7657 42.3931 68.5257 42.5731C68.2957 42.7431 68.0007 42.8281 67.6407 42.8281L65.0757 33.7531L64.9857 33.7831L65.1807 34.4881L62.8257 42.8281ZM73.2038 32.8531C73.2038 32.6631 73.2738 32.5081 73.4138 32.3881C73.5538 32.2581 73.7238 32.1931 73.9238 32.1931H80.5688C80.5688 32.6131 80.4838 32.9231 80.3138 33.1231C80.1438 33.3231 79.8788 33.4231 79.5188 33.4231H74.6138V36.7831H78.8138C78.8138 37.2031 78.7288 37.5131 78.5588 37.7131C78.3888 37.9131 78.1288 38.0131 77.7788 38.0131H74.6138V41.4631H79.8338C80.1838 41.4631 80.4438 41.5631 80.6138 41.7631C80.7838 41.9631 80.8688 42.2731 80.8688 42.6931H73.9238C73.7238 42.6931 73.5538 42.6331 73.4138 42.5131C73.2738 42.3831 73.2038 42.2231 73.2038 42.0331V32.8531ZM86.4607 33.2281C86.4607 32.8581 86.5857 32.5731 86.8357 32.3731C87.0857 32.1631 87.4307 32.0581 87.8707 32.0581V37.2031L93.3457 32.0581C93.5157 32.1981 93.6557 32.3481 93.7657 32.5081C93.8757 32.6581 93.9307 32.7931 93.9307 32.9131C93.9307 33.1631 93.7807 33.4281 93.4807 33.7081L89.9707 37.0081L94.5007 42.4381C94.3907 42.5581 94.2607 42.6531 94.1107 42.7231C93.9707 42.7931 93.8307 42.8281 93.6907 42.8281C93.3007 42.8281 92.9857 42.6881 92.7457 42.4081L88.9507 37.9081L87.8707 38.9131V41.7031C87.8707 42.0831 87.7557 42.3681 87.5257 42.5581C87.2957 42.7381 86.9407 42.8281 86.4607 42.8281V33.2281ZM96.2312 33.2731C96.2312 32.8931 96.3462 32.5981 96.5762 32.3881C96.8162 32.1681 97.1462 32.0581 97.5662 32.0581L103.386 40.9081L103.491 40.8181L103.056 40.0981V32.0581C103.516 32.0581 103.861 32.1581 104.091 32.3581C104.331 32.5581 104.451 32.8481 104.451 33.2281V41.7181C104.451 42.0381 104.336 42.3031 104.106 42.5131C103.886 42.7231 103.601 42.8281 103.251 42.8281L97.2962 33.7831L97.1912 33.8731L97.6262 34.5931V41.6581C97.6262 42.0381 97.5062 42.3281 97.2662 42.5281C97.0362 42.7281 96.6912 42.8281 96.2312 42.8281V33.2731ZM110.503 42.8281C109.673 42.8281 108.928 42.6681 108.268 42.3481C107.618 42.0181 107.108 41.5681 106.738 40.9981C106.368 40.4181 106.183 39.7781 106.183 39.0781V35.7781C106.183 35.0781 106.368 34.4481 106.738 33.8881C107.108 33.3181 107.618 32.8731 108.268 32.5531C108.928 32.2231 109.673 32.0581 110.503 32.0581C111.343 32.0581 112.088 32.2231 112.738 32.5531C113.398 32.8731 113.913 33.3181 114.283 33.8881C114.653 34.4481 114.838 35.0781 114.838 35.7781V39.0781C114.838 39.7781 114.653 40.4181 114.283 40.9981C113.913 41.5681 113.398 42.0181 112.738 42.3481C112.078 42.6681 111.333 42.8281 110.503 42.8281ZM110.503 41.5981C111.433 41.5981 112.158 41.3681 112.678 40.9081C113.198 40.4481 113.458 39.8331 113.458 39.0631V35.8081C113.458 35.0381 113.198 34.4281 112.678 33.9781C112.158 33.5181 111.433 33.2881 110.503 33.2881C109.583 33.2881 108.863 33.5181 108.343 33.9781C107.823 34.4281 107.563 35.0381 107.563 35.8081V39.0631C107.563 39.8331 107.823 40.4481 108.343 40.9081C108.863 41.3681 109.583 41.5981 110.503 41.5981ZM119.339 42.8281C118.979 42.8281 118.684 42.7431 118.454 42.5731C118.224 42.3931 118.069 42.1431 117.989 41.8231L115.514 32.1931C115.664 32.1031 115.854 32.0581 116.084 32.0581C116.374 32.0581 116.619 32.1331 116.819 32.2831C117.019 32.4231 117.149 32.6181 117.209 32.8681L118.844 39.9781L118.604 40.8631L118.694 40.8931L121.109 32.5231C121.149 32.3731 121.224 32.2581 121.334 32.1781C121.454 32.0981 121.594 32.0581 121.754 32.0581C121.904 32.0581 122.039 32.0981 122.159 32.1781C122.279 32.2581 122.359 32.3731 122.399 32.5231L124.484 40.0381L124.274 40.9531L124.364 40.9831L126.299 32.8681C126.359 32.6181 126.484 32.4231 126.674 32.2831C126.874 32.1331 127.114 32.0581 127.394 32.0581C127.624 32.0581 127.824 32.1031 127.994 32.1931L125.519 41.8231C125.439 42.1431 125.279 42.3931 125.039 42.5731C124.809 42.7431 124.514 42.8281 124.154 42.8281L121.589 33.7531L121.499 33.7831L121.694 34.4881L119.339 42.8281ZM133.585 33.2281C133.585 32.8481 133.705 32.5581 133.945 32.3581C134.185 32.1581 134.535 32.0581 134.995 32.0581V36.7831H140.32V33.2281C140.32 32.8481 140.44 32.5581 140.68 32.3581C140.92 32.1581 141.27 32.0581 141.73 32.0581V41.6581C141.73 42.0381 141.61 42.3281 141.37 42.5281C141.13 42.7281 140.78 42.8281 140.32 42.8281V38.0281H134.995V41.6581C134.995 42.0381 134.875 42.3281 134.635 42.5281C134.395 42.7281 134.045 42.8281 133.585 42.8281V33.2281ZM147.769 42.8281C146.939 42.8281 146.194 42.6681 145.534 42.3481C144.884 42.0181 144.374 41.5681 144.004 40.9981C143.634 40.4181 143.449 39.7781 143.449 39.0781V35.7781C143.449 35.0781 143.634 34.4481 144.004 33.8881C144.374 33.3181 144.884 32.8731 145.534 32.5531C146.194 32.2231 146.939 32.0581 147.769 32.0581C148.609 32.0581 149.354 32.2231 150.004 32.5531C150.664 32.8731 151.179 33.3181 151.549 33.8881C151.919 34.4481 152.104 35.0781 152.104 35.7781V39.0781C152.104 39.7781 151.919 40.4181 151.549 40.9981C151.179 41.5681 150.664 42.0181 150.004 42.3481C149.344 42.6681 148.599 42.8281 147.769 42.8281ZM147.769 41.5981C148.699 41.5981 149.424 41.3681 149.944 40.9081C150.464 40.4481 150.724 39.8331 150.724 39.0631V35.8081C150.724 35.0381 150.464 34.4281 149.944 33.9781C149.424 33.5181 148.699 33.2881 147.769 33.2881C146.849 33.2881 146.129 33.5181 145.609 33.9781C145.089 34.4281 144.829 35.0381 144.829 35.8081V39.0631C144.829 39.8331 145.089 40.4481 145.609 40.9081C146.129 41.3681 146.849 41.5981 147.769 41.5981ZM156.605 42.8281C156.245 42.8281 155.95 42.7431 155.72 42.5731C155.49 42.3931 155.335 42.1431 155.255 41.8231L152.78 32.1931C152.93 32.1031 153.12 32.0581 153.35 32.0581C153.64 32.0581 153.885 32.1331 154.085 32.2831C154.285 32.4231 154.415 32.6181 154.475 32.8681L156.11 39.9781L155.87 40.8631L155.96 40.8931L158.375 32.5231C158.415 32.3731 158.49 32.2581 158.6 32.1781C158.72 32.0981 158.86 32.0581 159.02 32.0581C159.17 32.0581 159.305 32.0981 159.425 32.1781C159.545 32.2581 159.625 32.3731 159.665 32.5231L161.75 40.0381L161.54 40.9531L161.63 40.9831L163.565 32.8681C163.625 32.6181 163.75 32.4231 163.94 32.2831C164.14 32.1331 164.38 32.0581 164.66 32.0581C164.89 32.0581 165.09 32.1031 165.26 32.1931L162.785 41.8231C162.705 42.1431 162.545 42.3931 162.305 42.5731C162.075 42.7431 161.78 42.8281 161.42 42.8281L158.855 33.7531L158.765 33.7831L158.96 34.4881L156.605 42.8281ZM173.985 33.4381H170.325C170.325 32.6081 170.715 32.1931 171.495 32.1931H179.04C179.04 33.0231 178.65 33.4381 177.87 33.4381H175.395V41.6581C175.395 42.0381 175.275 42.3281 175.035 42.5281C174.795 42.7281 174.445 42.8281 173.985 42.8281V33.4381ZM183.584 42.8281C182.754 42.8281 182.009 42.6681 181.349 42.3481C180.699 42.0181 180.189 41.5681 179.819 40.9981C179.449 40.4181 179.264 39.7781 179.264 39.0781V35.7781C179.264 35.0781 179.449 34.4481 179.819 33.8881C180.189 33.3181 180.699 32.8731 181.349 32.5531C182.009 32.2231 182.754 32.0581 183.584 32.0581C184.424 32.0581 185.169 32.2231 185.819 32.5531C186.479 32.8731 186.994 33.3181 187.364 33.8881C187.734 34.4481 187.919 35.0781 187.919 35.7781V39.0781C187.919 39.7781 187.734 40.4181 187.364 40.9981C186.994 41.5681 186.479 42.0181 185.819 42.3481C185.159 42.6681 184.414 42.8281 183.584 42.8281ZM183.584 41.5981C184.514 41.5981 185.239 41.3681 185.759 40.9081C186.279 40.4481 186.539 39.8331 186.539 39.0631V35.8081C186.539 35.0381 186.279 34.4281 185.759 33.9781C185.239 33.5181 184.514 33.2881 183.584 33.2881C182.664 33.2881 181.944 33.5181 181.424 33.9781C180.904 34.4281 180.644 35.0381 180.644 35.8081V39.0631C180.644 39.8331 180.904 40.4481 181.424 40.9081C181.944 41.3681 182.664 41.5981 183.584 41.5981ZM193.511 32.8531C193.511 32.6631 193.576 32.5081 193.706 32.3881C193.846 32.2581 194.021 32.1931 194.231 32.1931H198.611C199.271 32.1931 199.856 32.3331 200.366 32.6131C200.876 32.8831 201.271 33.2681 201.551 33.7681C201.831 34.2581 201.971 34.8231 201.971 35.4631C201.971 36.1231 201.831 36.7031 201.551 37.2031C201.281 37.7031 200.891 38.0881 200.381 38.3581C199.871 38.6281 199.281 38.7631 198.611 38.7631H194.921V41.6581C194.921 42.0381 194.801 42.3281 194.561 42.5281C194.321 42.7281 193.971 42.8281 193.511 42.8281V32.8531ZM198.611 37.5181C199.211 37.5181 199.686 37.3381 200.036 36.9781C200.386 36.6081 200.561 36.1031 200.561 35.4631C200.561 34.8431 200.381 34.3531 200.021 33.9931C199.671 33.6231 199.201 33.4381 198.611 33.4381H194.921V37.5181H198.611ZM203.692 32.8531C203.692 32.6631 203.762 32.5081 203.902 32.3881C204.042 32.2581 204.212 32.1931 204.412 32.1931H211.057C211.057 32.6131 210.972 32.9231 210.802 33.1231C210.632 33.3231 210.367 33.4231 210.007 33.4231H205.102V36.7831H209.302C209.302 37.2031 209.217 37.5131 209.047 37.7131C208.877 37.9131 208.617 38.0131 208.267 38.0131H205.102V41.4631H210.322C210.672 41.4631 210.932 41.5631 211.102 41.7631C211.272 41.9631 211.357 42.2731 211.357 42.6931H204.412C204.212 42.6931 204.042 42.6331 203.902 42.5131C203.762 42.3831 203.692 42.2231 203.692 42.0331V32.8531ZM213.082 32.8531C213.082 32.6631 213.147 32.5081 213.277 32.3881C213.417 32.2581 213.592 32.1931 213.802 32.1931H217.942C218.912 32.1931 219.682 32.4781 220.252 33.0481C220.832 33.6081 221.122 34.3581 221.122 35.2981C221.122 36.4781 220.607 37.3131 219.577 37.8031V37.8481C220.027 38.0381 220.372 38.3281 220.612 38.7181C220.852 39.0981 220.972 39.5631 220.972 40.1131V41.6581C220.972 42.0381 220.852 42.3281 220.612 42.5281C220.372 42.7281 220.022 42.8281 219.562 42.8281V40.2031C219.562 39.6131 219.427 39.1681 219.157 38.8681C218.897 38.5581 218.507 38.4031 217.987 38.4031H214.477V41.6581C214.477 42.0381 214.357 42.3281 214.117 42.5281C213.887 42.7281 213.542 42.8281 213.082 42.8281V32.8531ZM217.897 37.1881C218.447 37.1881 218.882 37.0181 219.202 36.6781C219.532 36.3381 219.697 35.8731 219.697 35.2831C219.697 34.6831 219.542 34.2231 219.232 33.9031C218.922 33.5831 218.477 33.4231 217.897 33.4231H214.477V37.1881H217.897ZM223.072 33.2281C223.072 32.8581 223.197 32.5731 223.447 32.3731C223.697 32.1631 224.042 32.0581 224.482 32.0581L228.112 40.7731L227.827 41.4781L227.932 41.5231L231.772 32.0581C232.212 32.0581 232.557 32.1631 232.807 32.3731C233.067 32.5831 233.197 32.8731 233.197 33.2431V42.8281C232.267 42.8281 231.802 42.4431 231.802 41.6731V35.3581L232.192 34.3231L232.072 34.2931L228.727 42.4231C228.677 42.5431 228.597 42.6381 228.487 42.7081C228.377 42.7881 228.262 42.8281 228.142 42.8281C228.012 42.8281 227.892 42.7931 227.782 42.7231C227.672 42.6531 227.592 42.5531 227.542 42.4231L224.197 34.2781L224.077 34.3231L224.467 35.3431V41.6731C224.467 42.0531 224.347 42.3431 224.107 42.5431C223.877 42.7331 223.532 42.8281 223.072 42.8281V33.2281ZM235.888 42.8281C235.588 42.7681 235.353 42.6431 235.183 42.4531C235.013 42.2531 234.928 42.0131 234.928 41.7331C234.928 41.5431 234.973 41.3431 235.063 41.1331L238.648 32.5081C238.768 32.2081 238.998 32.0581 239.338 32.0581C239.658 32.0581 239.883 32.2081 240.013 32.5081L243.598 41.1331C243.688 41.3431 243.733 41.5431 243.733 41.7331C243.733 42.0031 243.648 42.2381 243.478 42.4381C243.308 42.6381 243.073 42.7681 242.773 42.8281L241.483 39.6931H237.178L235.888 42.8281ZM241.048 38.4781L239.113 33.5731L238.993 33.6181L239.263 34.3081L237.613 38.4781H241.048ZM245.455 33.2731C245.455 32.8931 245.57 32.5981 245.8 32.3881C246.04 32.1681 246.37 32.0581 246.79 32.0581L252.61 40.9081L252.715 40.8181L252.28 40.0981V32.0581C252.74 32.0581 253.085 32.1581 253.315 32.3581C253.555 32.5581 253.675 32.8481 253.675 33.2281V41.7181C253.675 42.0381 253.56 42.3031 253.33 42.5131C253.11 42.7231 252.825 42.8281 252.475 42.8281L246.52 33.7831L246.415 33.8731L246.85 34.5931V41.6581C246.85 42.0381 246.73 42.3281 246.49 42.5281C246.26 42.7281 245.915 42.8281 245.455 42.8281V33.2731ZM255.782 32.8531C255.782 32.6631 255.852 32.5081 255.992 32.3881C256.132 32.2581 256.302 32.1931 256.502 32.1931H263.147C263.147 32.6131 263.062 32.9231 262.892 33.1231C262.722 33.3231 262.457 33.4231 262.097 33.4231H257.192V36.7831H261.392C261.392 37.2031 261.307 37.5131 261.137 37.7131C260.967 37.9131 260.707 38.0131 260.357 38.0131H257.192V41.4631H262.412C262.762 41.4631 263.022 41.5631 263.192 41.7631C263.362 41.9631 263.447 42.2731 263.447 42.6931H256.502C256.302 42.6931 256.132 42.6331 255.992 42.5131C255.852 42.3831 255.782 42.2231 255.782 42.0331V32.8531ZM265.172 33.2731C265.172 32.8931 265.287 32.5981 265.517 32.3881C265.757 32.1681 266.087 32.0581 266.507 32.0581L272.327 40.9081L272.432 40.8181L271.997 40.0981V32.0581C272.457 32.0581 272.802 32.1581 273.032 32.3581C273.272 32.5581 273.392 32.8481 273.392 33.2281V41.7181C273.392 42.0381 273.277 42.3031 273.047 42.5131C272.827 42.7231 272.542 42.8281 272.192 42.8281L266.237 33.7831L266.132 33.8731L266.567 34.5931V41.6581C266.567 42.0381 266.447 42.3281 266.207 42.5281C265.977 42.7281 265.632 42.8281 265.172 42.8281V33.2731ZM278.253 33.4381H274.593C274.593 32.6081 274.983 32.1931 275.763 32.1931H283.308C283.308 33.0231 282.918 33.4381 282.138 33.4381H279.663V41.6581C279.663 42.0381 279.543 42.3281 279.303 42.5281C279.063 42.7281 278.713 42.8281 278.253 42.8281V33.4381ZM285.623 42.6931C285.423 42.6931 285.248 42.6231 285.098 42.4831C284.958 42.3331 284.888 42.1581 284.888 41.9581V33.2281C284.888 32.4481 285.358 32.0581 286.298 32.0581V41.4481H290.903C291.253 41.4481 291.523 41.5581 291.713 41.7781C291.903 41.9881 291.998 42.2931 291.998 42.6931H285.623ZM294.459 38.8831L290.724 32.2381C290.794 32.1881 290.899 32.1481 291.039 32.1181C291.189 32.0781 291.329 32.0581 291.459 32.0581C291.969 32.0581 292.334 32.2731 292.554 32.7031L295.119 37.5181L294.804 38.1481L294.909 38.2081L297.759 32.7031C297.989 32.2731 298.359 32.0581 298.869 32.0581C298.999 32.0581 299.134 32.0781 299.274 32.1181C299.424 32.1481 299.534 32.1881 299.604 32.2381L295.869 38.8831V41.6581C295.869 42.0381 295.749 42.3281 295.509 42.5281C295.269 42.7281 294.919 42.8281 294.459 42.8281V38.8831ZM309.406 42.8281C308.556 42.8281 307.801 42.6731 307.141 42.3631C306.481 42.0431 305.966 41.6031 305.596 41.0431C305.226 40.4731 305.041 39.8281 305.041 39.1081V35.7481C305.041 35.0281 305.221 34.3881 305.581 33.8281C305.951 33.2681 306.461 32.8331 307.111 32.5231C307.761 32.2131 308.506 32.0581 309.346 32.0581C310.186 32.0581 310.931 32.1931 311.581 32.4631C312.231 32.7231 312.736 33.0881 313.096 33.5581C313.466 34.0281 313.651 34.5631 313.651 35.1631C313.651 35.4631 313.551 35.6981 313.351 35.8681C313.151 36.0381 312.886 36.1231 312.556 36.1231C312.486 36.1231 312.381 36.1131 312.241 36.0931C312.261 35.9731 312.271 35.7831 312.271 35.5231C312.271 35.0931 312.146 34.7081 311.896 34.3681C311.656 34.0281 311.311 33.7631 310.861 33.5731C310.421 33.3831 309.916 33.2881 309.346 33.2881C308.786 33.2881 308.286 33.3931 307.846 33.6031C307.406 33.8031 307.061 34.0931 306.811 34.4731C306.571 34.8431 306.451 35.2681 306.451 35.7481V39.1081C306.451 39.5881 306.576 40.0181 306.826 40.3981C307.076 40.7781 307.426 41.0731 307.876 41.2831C308.326 41.4931 308.836 41.5981 309.406 41.5981C309.966 41.5981 310.466 41.5031 310.906 41.3131C311.356 41.1231 311.701 40.8531 311.941 40.5031C312.191 40.1531 312.316 39.7581 312.316 39.3181V38.4781H310.426C310.116 38.4781 309.866 38.3731 309.676 38.1631C309.486 37.9431 309.391 37.6581 309.391 37.3081H313.051C313.251 37.3081 313.411 37.3681 313.531 37.4881C313.661 37.6081 313.726 37.7681 313.726 37.9681V39.3331C313.726 40.0131 313.541 40.6181 313.171 41.1481C312.811 41.6781 312.301 42.0931 311.641 42.3931C310.991 42.6831 310.246 42.8281 309.406 42.8281ZM315.606 32.8531C315.606 32.6631 315.676 32.5081 315.816 32.3881C315.956 32.2581 316.126 32.1931 316.326 32.1931H322.971C322.971 32.6131 322.886 32.9231 322.716 33.1231C322.546 33.3231 322.281 33.4231 321.921 33.4231H317.016V36.7831H321.216C321.216 37.2031 321.131 37.5131 320.961 37.7131C320.791 37.9131 320.531 38.0131 320.181 38.0131H317.016V41.4631H322.236C322.586 41.4631 322.846 41.5631 323.016 41.7631C323.186 41.9631 323.271 42.2731 323.271 42.6931H316.326C316.126 42.6931 315.956 42.6331 315.816 42.5131C315.676 42.3831 315.606 42.2231 315.606 42.0331V32.8531ZM328.131 33.4381H324.471C324.471 32.6081 324.861 32.1931 325.641 32.1931H333.186C333.186 33.0231 332.796 33.4381 332.016 33.4381H329.541V41.6581C329.541 42.0381 329.421 42.3281 329.181 42.5281C328.941 42.7281 328.591 42.8281 328.131 42.8281V33.4381ZM338.634 32.8531C338.634 32.6631 338.699 32.5081 338.829 32.3881C338.969 32.2581 339.144 32.1931 339.354 32.1931H343.494C344.464 32.1931 345.234 32.4781 345.804 33.0481C346.384 33.6081 346.674 34.3581 346.674 35.2981C346.674 36.4781 346.159 37.3131 345.129 37.8031V37.8481C345.579 38.0381 345.924 38.3281 346.164 38.7181C346.404 39.0981 346.524 39.5631 346.524 40.1131V41.6581C346.524 42.0381 346.404 42.3281 346.164 42.5281C345.924 42.7281 345.574 42.8281 345.114 42.8281V40.2031C345.114 39.6131 344.979 39.1681 344.709 38.8681C344.449 38.5581 344.059 38.4031 343.539 38.4031H340.029V41.6581C340.029 42.0381 339.909 42.3281 339.669 42.5281C339.439 42.7281 339.094 42.8281 338.634 42.8281V32.8531ZM343.449 37.1881C343.999 37.1881 344.434 37.0181 344.754 36.6781C345.084 36.3381 345.249 35.8731 345.249 35.2831C345.249 34.6831 345.094 34.2231 344.784 33.9031C344.474 33.5831 344.029 33.4231 343.449 33.4231H340.029V37.1881H343.449ZM348.924 33.2281C348.924 32.8581 349.044 32.5731 349.284 32.3731C349.534 32.1631 349.884 32.0581 350.334 32.0581V41.6581C350.334 42.0281 350.209 42.3181 349.959 42.5281C349.719 42.7281 349.374 42.8281 348.924 42.8281V33.2281ZM353.46 42.6931C353.26 42.6931 353.09 42.6331 352.95 42.5131C352.81 42.3831 352.74 42.2231 352.74 42.0331V32.8531C352.74 32.6631 352.805 32.5081 352.935 32.3881C353.075 32.2581 353.25 32.1931 353.46 32.1931H356.97C357.82 32.1931 358.57 32.3531 359.22 32.6731C359.87 32.9931 360.375 33.4431 360.735 34.0231C361.105 34.5931 361.29 35.2481 361.29 35.9881V38.8681C361.29 39.6081 361.105 40.2681 360.735 40.8481C360.375 41.4281 359.865 41.8831 359.205 42.2131C358.555 42.5331 357.81 42.6931 356.97 42.6931H353.46ZM356.82 41.4631C357.78 41.4631 358.53 41.2381 359.07 40.7881C359.61 40.3281 359.88 39.6931 359.88 38.8831V35.9731C359.88 35.1731 359.61 34.5481 359.07 34.0981C358.53 33.6481 357.78 33.4231 356.82 33.4231H354.15V41.4631H356.82ZM371.055 42.8281C370.225 42.8281 369.48 42.6681 368.82 42.3481C368.17 42.0181 367.66 41.5681 367.29 40.9981C366.92 40.4181 366.735 39.7781 366.735 39.0781V35.7781C366.735 35.0781 366.92 34.4481 367.29 33.8881C367.66 33.3181 368.17 32.8731 368.82 32.5531C369.48 32.2231 370.225 32.0581 371.055 32.0581C371.895 32.0581 372.64 32.2231 373.29 32.5531C373.95 32.8731 374.465 33.3181 374.835 33.8881C375.205 34.4481 375.39 35.0781 375.39 35.7781V39.0781C375.39 39.7781 375.205 40.4181 374.835 40.9981C374.465 41.5681 373.95 42.0181 373.29 42.3481C372.63 42.6681 371.885 42.8281 371.055 42.8281ZM371.055 41.5981C371.985 41.5981 372.71 41.3681 373.23 40.9081C373.75 40.4481 374.01 39.8331 374.01 39.0631V35.8081C374.01 35.0381 373.75 34.4281 373.23 33.9781C372.71 33.5181 371.985 33.2881 371.055 33.2881C370.135 33.2881 369.415 33.5181 368.895 33.9781C368.375 34.4281 368.115 35.0381 368.115 35.8081V39.0631C368.115 39.8331 368.375 40.4481 368.895 40.9081C369.415 41.3681 370.135 41.5981 371.055 41.5981ZM377.115 32.8531C377.115 32.6631 377.185 32.5081 377.325 32.3881C377.465 32.2581 377.635 32.1931 377.835 32.1931H384.525C384.525 32.6131 384.44 32.9231 384.27 33.1231C384.1 33.3231 383.84 33.4231 383.49 33.4231H378.525V36.7081H382.725C382.725 37.1281 382.64 37.4381 382.47 37.6381C382.3 37.8381 382.04 37.9381 381.69 37.9381H378.525V41.6881C378.525 42.0781 378.41 42.3681 378.18 42.5581C377.95 42.7381 377.595 42.8281 377.115 42.8281V32.8531ZM390.547 42.8281C390.247 42.7681 390.012 42.6431 389.842 42.4531C389.672 42.2531 389.587 42.0131 389.587 41.7331C389.587 41.5431 389.632 41.3431 389.722 41.1331L393.307 32.5081C393.427 32.2081 393.657 32.0581 393.997 32.0581C394.317 32.0581 394.542 32.2081 394.672 32.5081L398.257 41.1331C398.347 41.3431 398.392 41.5431 398.392 41.7331C398.392 42.0031 398.307 42.2381 398.137 42.4381C397.967 42.6381 397.732 42.7681 397.432 42.8281L396.142 39.6931H391.837L390.547 42.8281ZM395.707 38.4781L393.772 33.5731L393.652 33.6181L393.922 34.3081L392.272 38.4781H395.707ZM400.113 33.2731C400.113 32.8931 400.228 32.5981 400.458 32.3881C400.698 32.1681 401.028 32.0581 401.448 32.0581L407.268 40.9081L407.373 40.8181L406.938 40.0981V32.0581C407.398 32.0581 407.743 32.1581 407.973 32.3581C408.213 32.5581 408.333 32.8481 408.333 33.2281V41.7181C408.333 42.0381 408.218 42.3031 407.988 42.5131C407.768 42.7231 407.483 42.8281 407.133 42.8281L401.178 33.7831L401.073 33.8731L401.508 34.5931V41.6581C401.508 42.0381 401.388 42.3281 401.148 42.5281C400.918 42.7281 400.573 42.8281 400.113 42.8281V33.2731ZM410.44 33.2731C410.44 32.8931 410.555 32.5981 410.785 32.3881C411.025 32.1681 411.355 32.0581 411.775 32.0581L417.595 40.9081L417.7 40.8181L417.265 40.0981V32.0581C417.725 32.0581 418.07 32.1581 418.3 32.3581C418.54 32.5581 418.66 32.8481 418.66 33.2281V41.7181C418.66 42.0381 418.545 42.3031 418.315 42.5131C418.095 42.7231 417.81 42.8281 417.46 42.8281L411.505 33.7831L411.4 33.8731L411.835 34.5931V41.6581C411.835 42.0381 411.715 42.3281 411.475 42.5281C411.245 42.7281 410.9 42.8281 410.44 42.8281V33.2731ZM424.712 42.8281C423.882 42.8281 423.137 42.6681 422.477 42.3481C421.827 42.0181 421.317 41.5681 420.947 40.9981C420.577 40.4181 420.392 39.7781 420.392 39.0781V35.7781C420.392 35.0781 420.577 34.4481 420.947 33.8881C421.317 33.3181 421.827 32.8731 422.477 32.5531C423.137 32.2231 423.882 32.0581 424.712 32.0581C425.552 32.0581 426.297 32.2231 426.947 32.5531C427.607 32.8731 428.122 33.3181 428.492 33.8881C428.862 34.4481 429.047 35.0781 429.047 35.7781V39.0781C429.047 39.7781 428.862 40.4181 428.492 40.9981C428.122 41.5681 427.607 42.0181 426.947 42.3481C426.287 42.6681 425.542 42.8281 424.712 42.8281ZM424.712 41.5981C425.642 41.5981 426.367 41.3681 426.887 40.9081C427.407 40.4481 427.667 39.8331 427.667 39.0631V35.8081C427.667 35.0381 427.407 34.4281 426.887 33.9781C426.367 33.5181 425.642 33.2881 424.712 33.2881C423.792 33.2881 423.072 33.5181 422.552 33.9781C422.032 34.4281 421.772 35.0381 421.772 35.8081V39.0631C421.772 39.8331 422.032 40.4481 422.552 40.9081C423.072 41.3681 423.792 41.5981 424.712 41.5981ZM433.004 38.8831L429.269 32.2381C429.339 32.1881 429.444 32.1481 429.584 32.1181C429.734 32.0781 429.874 32.0581 430.004 32.0581C430.514 32.0581 430.879 32.2731 431.099 32.7031L433.664 37.5181L433.349 38.1481L433.454 38.2081L436.304 32.7031C436.534 32.2731 436.904 32.0581 437.414 32.0581C437.544 32.0581 437.679 32.0781 437.819 32.1181C437.969 32.1481 438.079 32.1881 438.149 32.2381L434.414 38.8831V41.6581C434.414 42.0381 434.294 42.3281 434.054 42.5281C433.814 42.7281 433.464 42.8281 433.004 42.8281V38.8831ZM440.169 33.2281C440.169 32.8581 440.289 32.5731 440.529 32.3731C440.779 32.1631 441.129 32.0581 441.579 32.0581V41.6581C441.579 42.0281 441.454 42.3181 441.204 42.5281C440.964 42.7281 440.619 42.8281 440.169 42.8281V33.2281ZM443.985 33.2731C443.985 32.8931 444.1 32.5981 444.33 32.3881C444.57 32.1681 444.9 32.0581 445.32 32.0581L451.14 40.9081L451.245 40.8181L450.81 40.0981V32.0581C451.27 32.0581 451.615 32.1581 451.845 32.3581C452.085 32.5581 452.205 32.8481 452.205 33.2281V41.7181C452.205 42.0381 452.09 42.3031 451.86 42.5131C451.64 42.7231 451.355 42.8281 451.005 42.8281L445.05 33.7831L444.945 33.8731L445.38 34.5931V41.6581C445.38 42.0381 445.26 42.3281 445.02 42.5281C444.79 42.7281 444.445 42.8281 443.985 42.8281V33.2731ZM458.454 42.8281C457.604 42.8281 456.849 42.6731 456.189 42.3631C455.529 42.0431 455.014 41.6031 454.644 41.0431C454.274 40.4731 454.089 39.8281 454.089 39.1081V35.7481C454.089 35.0281 454.269 34.3881 454.629 33.8281C454.999 33.2681 455.509 32.8331 456.159 32.5231C456.809 32.2131 457.554 32.0581 458.394 32.0581C459.234 32.0581 459.979 32.1931 460.629 32.4631C461.279 32.7231 461.784 33.0881 462.144 33.5581C462.514 34.0281 462.699 34.5631 462.699 35.1631C462.699 35.4631 462.599 35.6981 462.399 35.8681C462.199 36.0381 461.934 36.1231 461.604 36.1231C461.534 36.1231 461.429 36.1131 461.289 36.0931C461.309 35.9731 461.319 35.7831 461.319 35.5231C461.319 35.0931 461.194 34.7081 460.944 34.3681C460.704 34.0281 460.359 33.7631 459.909 33.5731C459.469 33.3831 458.964 33.2881 458.394 33.2881C457.834 33.2881 457.334 33.3931 456.894 33.6031C456.454 33.8031 456.109 34.0931 455.859 34.4731C455.619 34.8431 455.499 35.2681 455.499 35.7481V39.1081C455.499 39.5881 455.624 40.0181 455.874 40.3981C456.124 40.7781 456.474 41.0731 456.924 41.2831C457.374 41.4931 457.884 41.5981 458.454 41.5981C459.014 41.5981 459.514 41.5031 459.954 41.3131C460.404 41.1231 460.749 40.8531 460.989 40.5031C461.239 40.1531 461.364 39.7581 461.364 39.3181V38.4781H459.474C459.164 38.4781 458.914 38.3731 458.724 38.1631C458.534 37.9431 458.439 37.6581 458.439 37.3081H462.099C462.299 37.3081 462.459 37.3681 462.579 37.4881C462.709 37.6081 462.774 37.7681 462.774 37.9681V39.3331C462.774 40.0131 462.589 40.6181 462.219 41.1481C461.859 41.6781 461.349 42.0931 460.689 42.3931C460.039 42.6831 459.294 42.8281 458.454 42.8281ZM468.521 33.2281C468.521 32.8481 468.641 32.5581 468.881 32.3581C469.121 32.1581 469.471 32.0581 469.931 32.0581V36.7831H475.256V33.2281C475.256 32.8481 475.376 32.5581 475.616 32.3581C475.856 32.1581 476.206 32.0581 476.666 32.0581V41.6581C476.666 42.0381 476.546 42.3281 476.306 42.5281C476.066 42.7281 475.716 42.8281 475.256 42.8281V38.0281H469.931V41.6581C469.931 42.0381 469.811 42.3281 469.571 42.5281C469.331 42.7281 468.981 42.8281 468.521 42.8281V33.2281ZM479.345 42.8281C479.045 42.7681 478.81 42.6431 478.64 42.4531C478.47 42.2531 478.385 42.0131 478.385 41.7331C478.385 41.5431 478.43 41.3431 478.52 41.1331L482.105 32.5081C482.225 32.2081 482.455 32.0581 482.795 32.0581C483.115 32.0581 483.34 32.2081 483.47 32.5081L487.055 41.1331C487.145 41.3431 487.19 41.5431 487.19 41.7331C487.19 42.0031 487.105 42.2381 486.935 42.4381C486.765 42.6381 486.53 42.7681 486.23 42.8281L484.94 39.6931H480.635L479.345 42.8281ZM484.505 38.4781L482.57 33.5731L482.45 33.6181L482.72 34.3081L481.07 38.4781H484.505ZM489.632 42.6931C489.432 42.6931 489.262 42.6281 489.122 42.4981C488.982 42.3681 488.912 42.2131 488.912 42.0331V32.8531C488.912 32.6631 488.982 32.5081 489.122 32.3881C489.262 32.2581 489.432 32.1931 489.632 32.1931H493.802C494.672 32.1931 495.362 32.4531 495.872 32.9731C496.392 33.4931 496.652 34.1931 496.652 35.0731C496.652 35.5431 496.527 35.9831 496.277 36.3931C496.027 36.8031 495.702 37.1081 495.302 37.3081V37.3381C495.872 37.5081 496.312 37.8031 496.622 38.2231C496.932 38.6331 497.087 39.1331 497.087 39.7231C497.087 40.3031 496.962 40.8181 496.712 41.2681C496.472 41.7181 496.132 42.0681 495.692 42.3181C495.252 42.5681 494.747 42.6931 494.177 42.6931H489.632ZM493.772 36.8281C494.182 36.8281 494.532 36.6631 494.822 36.3331C495.122 35.9931 495.272 35.5831 495.272 35.1031C495.272 34.5731 495.137 34.1581 494.867 33.8581C494.607 33.5581 494.242 33.4081 493.772 33.4081H490.307V36.8281H493.772ZM494.072 41.4781C494.582 41.4781 494.982 41.3281 495.272 41.0281C495.562 40.7181 495.707 40.2881 495.707 39.7381C495.707 39.2081 495.562 38.7931 495.272 38.4931C494.992 38.1931 494.592 38.0431 494.072 38.0431H490.307V41.4781H494.072ZM499.114 33.2281C499.114 32.8581 499.234 32.5731 499.474 32.3731C499.724 32.1631 500.074 32.0581 500.524 32.0581V41.6581C500.524 42.0281 500.399 42.3181 500.149 42.5281C499.909 42.7281 499.564 42.8281 499.114 42.8281V33.2281ZM506.065 33.4381H502.405C502.405 32.6081 502.795 32.1931 503.575 32.1931H511.12C511.12 33.0231 510.73 33.4381 509.95 33.4381H507.475V41.6581C507.475 42.0381 507.355 42.3281 507.115 42.5281C506.875 42.7281 506.525 42.8281 506.065 42.8281V33.4381ZM515.777 42.8281C514.937 42.8281 514.207 42.7081 513.587 42.4681C512.977 42.2281 512.512 41.9081 512.192 41.5081C511.872 41.1081 511.712 40.6781 511.712 40.2181C511.712 39.8381 511.812 39.5481 512.012 39.3481C512.212 39.1381 512.517 39.0331 512.927 39.0331C512.927 39.8831 513.182 40.5331 513.692 40.9831C514.202 41.4231 514.917 41.6431 515.837 41.6431C516.717 41.6431 517.392 41.4981 517.862 41.2081C518.332 40.9081 518.567 40.4681 518.567 39.8881C518.567 39.5381 518.477 39.2531 518.297 39.0331C518.127 38.8031 517.832 38.6081 517.412 38.4481C517.002 38.2781 516.407 38.1081 515.627 37.9381C514.707 37.7381 513.977 37.5081 513.437 37.2481C512.897 36.9781 512.502 36.6531 512.252 36.2731C512.002 35.8931 511.877 35.4231 511.877 34.8631C511.877 34.3031 512.032 33.8131 512.342 33.3931C512.662 32.9631 513.112 32.6331 513.692 32.4031C514.272 32.1731 514.947 32.0581 515.717 32.0581C516.447 32.0581 517.097 32.1631 517.667 32.3731C518.247 32.5731 518.697 32.8631 519.017 33.2431C519.347 33.6131 519.512 34.0331 519.512 34.5031C519.512 34.7931 519.417 35.0231 519.227 35.1931C519.047 35.3531 518.762 35.4331 518.372 35.4331C518.262 34.6731 517.992 34.1181 517.562 33.7681C517.142 33.4181 516.527 33.2431 515.717 33.2431C514.937 33.2431 514.337 33.3831 513.917 33.6631C513.497 33.9331 513.287 34.3181 513.287 34.8181C513.287 35.1681 513.362 35.4581 513.512 35.6881C513.672 35.9081 513.937 36.0981 514.307 36.2581C514.687 36.4181 515.217 36.5731 515.897 36.7231C516.917 36.9431 517.717 37.1881 518.297 37.4581C518.887 37.7281 519.312 38.0581 519.572 38.4481C519.832 38.8381 519.962 39.3181 519.962 39.8881C519.962 40.7981 519.582 41.5181 518.822 42.0481C518.062 42.5681 517.047 42.8281 515.777 42.8281ZM526.133 42.8281C525.833 42.7681 525.598 42.6431 525.428 42.4531C525.258 42.2531 525.173 42.0131 525.173 41.7331C525.173 41.5431 525.218 41.3431 525.308 41.1331L528.893 32.5081C529.013 32.2081 529.243 32.0581 529.583 32.0581C529.903 32.0581 530.128 32.2081 530.258 32.5081L533.843 41.1331C533.933 41.3431 533.978 41.5431 533.978 41.7331C533.978 42.0031 533.893 42.2381 533.723 42.4381C533.553 42.6381 533.318 42.7681 533.018 42.8281L531.728 39.6931H527.423L526.133 42.8281ZM531.293 38.4781L529.358 33.5731L529.238 33.6181L529.508 34.3081L527.858 38.4781H531.293ZM535.699 33.2731C535.699 32.8931 535.814 32.5981 536.044 32.3881C536.284 32.1681 536.614 32.0581 537.034 32.0581L542.854 40.9081L542.959 40.8181L542.524 40.0981V32.0581C542.984 32.0581 543.329 32.1581 543.559 32.3581C543.799 32.5581 543.919 32.8481 543.919 33.2281V41.7181C543.919 42.0381 543.804 42.3031 543.574 42.5131C543.354 42.7231 543.069 42.8281 542.719 42.8281L536.764 33.7831L536.659 33.8731L537.094 34.5931V41.6581C537.094 42.0381 536.974 42.3281 536.734 42.5281C536.504 42.7281 536.159 42.8281 535.699 42.8281V33.2731ZM546.746 42.6931C546.546 42.6931 546.376 42.6331 546.236 42.5131C546.096 42.3831 546.026 42.2231 546.026 42.0331V32.8531C546.026 32.6631 546.091 32.5081 546.221 32.3881C546.361 32.2581 546.536 32.1931 546.746 32.1931H550.256C551.106 32.1931 551.856 32.3531 552.506 32.6731C553.156 32.9931 553.661 33.4431 554.021 34.0231C554.391 34.5931 554.576 35.2481 554.576 35.9881V38.8681C554.576 39.6081 554.391 40.2681 554.021 40.8481C553.661 41.4281 553.151 41.8831 552.491 42.2131C551.841 42.5331 551.096 42.6931 550.256 42.6931H546.746ZM550.106 41.4631C551.066 41.4631 551.816 41.2381 552.356 40.7881C552.896 40.3281 553.166 39.6931 553.166 38.8831V35.9731C553.166 35.1731 552.896 34.5481 552.356 34.0981C551.816 33.6481 551.066 33.4231 550.106 33.4231H547.436V41.4631H550.106ZM560.396 32.8531C560.396 32.6631 560.461 32.5081 560.591 32.3881C560.731 32.2581 560.906 32.1931 561.116 32.1931H565.496C566.156 32.1931 566.741 32.3331 567.251 32.6131C567.761 32.8831 568.156 33.2681 568.436 33.7681C568.716 34.2581 568.856 34.8231 568.856 35.4631C568.856 36.1231 568.716 36.7031 568.436 37.2031C568.166 37.7031 567.776 38.0881 567.266 38.3581C566.756 38.6281 566.166 38.7631 565.496 38.7631H561.806V41.6581C561.806 42.0381 561.686 42.3281 561.446 42.5281C561.206 42.7281 560.856 42.8281 560.396 42.8281V32.8531ZM565.496 37.5181C566.096 37.5181 566.571 37.3381 566.921 36.9781C567.271 36.6081 567.446 36.1031 567.446 35.4631C567.446 34.8431 567.266 34.3531 566.906 33.9931C566.556 33.6231 566.086 33.4381 565.496 33.4381H561.806V37.5181H565.496ZM570.577 32.8531C570.577 32.6631 570.647 32.5081 570.787 32.3881C570.927 32.2581 571.097 32.1931 571.297 32.1931H577.942C577.942 32.6131 577.857 32.9231 577.687 33.1231C577.517 33.3231 577.252 33.4231 576.892 33.4231H571.987V36.7831H576.187C576.187 37.2031 576.102 37.5131 575.932 37.7131C575.762 37.9131 575.502 38.0131 575.152 38.0131H571.987V41.4631H577.207C577.557 41.4631 577.817 41.5631 577.987 41.7631C578.157 41.9631 578.242 42.2731 578.242 42.6931H571.297C571.097 42.6931 570.927 42.6331 570.787 42.5131C570.647 42.3831 570.577 42.2231 570.577 42.0331V32.8531ZM579.967 32.8531C579.967 32.6631 580.032 32.5081 580.162 32.3881C580.302 32.2581 580.477 32.1931 580.687 32.1931H584.827C585.797 32.1931 586.567 32.4781 587.137 33.0481C587.717 33.6081 588.007 34.3581 588.007 35.2981C588.007 36.4781 587.492 37.3131 586.462 37.8031V37.8481C586.912 38.0381 587.257 38.3281 587.497 38.7181C587.737 39.0981 587.857 39.5631 587.857 40.1131V41.6581C587.857 42.0381 587.737 42.3281 587.497 42.5281C587.257 42.7281 586.907 42.8281 586.447 42.8281V40.2031C586.447 39.6131 586.312 39.1681 586.042 38.8681C585.782 38.5581 585.392 38.4031 584.872 38.4031H581.362V41.6581C581.362 42.0381 581.242 42.3281 581.002 42.5281C580.772 42.7281 580.427 42.8281 579.967 42.8281V32.8531ZM584.782 37.1881C585.332 37.1881 585.767 37.0181 586.087 36.6781C586.417 36.3381 586.582 35.8731 586.582 35.2831C586.582 34.6831 586.427 34.2231 586.117 33.9031C585.807 33.5831 585.362 33.4231 584.782 33.4231H581.362V37.1881H584.782ZM593.707 42.8281C592.867 42.8281 592.137 42.7081 591.517 42.4681C590.907 42.2281 590.442 41.9081 590.122 41.5081C589.802 41.1081 589.642 40.6781 589.642 40.2181C589.642 39.8381 589.742 39.5481 589.942 39.3481C590.142 39.1381 590.447 39.0331 590.857 39.0331C590.857 39.8831 591.112 40.5331 591.622 40.9831C592.132 41.4231 592.847 41.6431 593.767 41.6431C594.647 41.6431 595.322 41.4981 595.792 41.2081C596.262 40.9081 596.497 40.4681 596.497 39.8881C596.497 39.5381 596.407 39.2531 596.227 39.0331C596.057 38.8031 595.762 38.6081 595.342 38.4481C594.932 38.2781 594.337 38.1081 593.557 37.9381C592.637 37.7381 591.907 37.5081 591.367 37.2481C590.827 36.9781 590.432 36.6531 590.182 36.2731C589.932 35.8931 589.807 35.4231 589.807 34.8631C589.807 34.3031 589.962 33.8131 590.272 33.3931C590.592 32.9631 591.042 32.6331 591.622 32.4031C592.202 32.1731 592.877 32.0581 593.647 32.0581C594.377 32.0581 595.027 32.1631 595.597 32.3731C596.177 32.5731 596.627 32.8631 596.947 33.2431C597.277 33.6131 597.442 34.0331 597.442 34.5031C597.442 34.7931 597.347 35.0231 597.157 35.1931C596.977 35.3531 596.692 35.4331 596.302 35.4331C596.192 34.6731 595.922 34.1181 595.492 33.7681C595.072 33.4181 594.457 33.2431 593.647 33.2431C592.867 33.2431 592.267 33.3831 591.847 33.6631C591.427 33.9331 591.217 34.3181 591.217 34.8181C591.217 35.1681 591.292 35.4581 591.442 35.6881C591.602 35.9081 591.867 36.0981 592.237 36.2581C592.617 36.4181 593.147 36.5731 593.827 36.7231C594.847 36.9431 595.647 37.1881 596.227 37.4581C596.817 37.7281 597.242 38.0581 597.502 38.4481C597.762 38.8381 597.892 39.3181 597.892 39.8881C597.892 40.7981 597.512 41.5181 596.752 42.0481C595.992 42.5681 594.977 42.8281 593.707 42.8281ZM603.335 42.8281C602.505 42.8281 601.76 42.6681 601.1 42.3481C600.45 42.0181 599.94 41.5681 599.57 40.9981C599.2 40.4181 599.015 39.7781 599.015 39.0781V35.7781C599.015 35.0781 599.2 34.4481 599.57 33.8881C599.94 33.3181 600.45 32.8731 601.1 32.5531C601.76 32.2231 602.505 32.0581 603.335 32.0581C604.175 32.0581 604.92 32.2231 605.57 32.5531C606.23 32.8731 606.745 33.3181 607.115 33.8881C607.485 34.4481 607.67 35.0781 607.67 35.7781V39.0781C607.67 39.7781 607.485 40.4181 607.115 40.9981C606.745 41.5681 606.23 42.0181 605.57 42.3481C604.91 42.6681 604.165 42.8281 603.335 42.8281ZM603.335 41.5981C604.265 41.5981 604.99 41.3681 605.51 40.9081C606.03 40.4481 606.29 39.8331 606.29 39.0631V35.8081C606.29 35.0381 606.03 34.4281 605.51 33.9781C604.99 33.5181 604.265 33.2881 603.335 33.2881C602.415 33.2881 601.695 33.5181 601.175 33.9781C600.655 34.4281 600.395 35.0381 600.395 35.8081V39.0631C600.395 39.8331 600.655 40.4481 601.175 40.9081C601.695 41.3681 602.415 41.5981 603.335 41.5981ZM609.395 33.2731C609.395 32.8931 609.51 32.5981 609.74 32.3881C609.98 32.1681 610.31 32.0581 610.73 32.0581L616.55 40.9081L616.655 40.8181L616.22 40.0981V32.0581C616.68 32.0581 617.025 32.1581 617.255 32.3581C617.495 32.5581 617.615 32.8481 617.615 33.2281V41.7181C617.615 42.0381 617.5 42.3031 617.27 42.5131C617.05 42.7231 616.765 42.8281 616.415 42.8281L610.46 33.7831L610.355 33.8731L610.79 34.5931V41.6581C610.79 42.0381 610.67 42.3281 610.43 42.5281C610.2 42.7281 609.855 42.8281 609.395 42.8281V33.2731ZM620.307 42.8281C620.007 42.7681 619.772 42.6431 619.602 42.4531C619.432 42.2531 619.347 42.0131 619.347 41.7331C619.347 41.5431 619.392 41.3431 619.482 41.1331L623.067 32.5081C623.187 32.2081 623.417 32.0581 623.757 32.0581C624.077 32.0581 624.302 32.2081 624.432 32.5081L628.017 41.1331C628.107 41.3431 628.152 41.5431 628.152 41.7331C628.152 42.0031 628.067 42.2381 627.897 42.4381C627.727 42.6381 627.492 42.7681 627.192 42.8281L625.902 39.6931H621.597L620.307 42.8281ZM625.467 38.4781L623.532 33.5731L623.412 33.6181L623.682 34.3081L622.032 38.4781H625.467ZM630.609 42.6931C630.409 42.6931 630.234 42.6231 630.084 42.4831C629.944 42.3331 629.874 42.1581 629.874 41.9581V33.2281C629.874 32.4481 630.344 32.0581 631.284 32.0581V41.4481H635.889C636.239 41.4481 636.509 41.5581 636.699 41.7781C636.889 41.9881 636.984 42.2931 636.984 42.6931H630.609ZM638.86 33.2281C638.86 32.8581 638.98 32.5731 639.22 32.3731C639.47 32.1631 639.82 32.0581 640.27 32.0581V41.6581C640.27 42.0281 640.145 42.3181 639.895 42.5281C639.655 42.7281 639.31 42.8281 638.86 42.8281V33.2281ZM645.811 33.4381H642.151C642.151 32.6081 642.541 32.1931 643.321 32.1931H650.866C650.866 33.0231 650.476 33.4381 649.696 33.4381H647.221V41.6581C647.221 42.0381 647.101 42.3281 646.861 42.5281C646.621 42.7281 646.271 42.8281 645.811 42.8281V33.4381ZM655.133 38.8831L651.398 32.2381C651.468 32.1881 651.573 32.1481 651.713 32.1181C651.863 32.0781 652.003 32.0581 652.133 32.0581C652.643 32.0581 653.008 32.2731 653.228 32.7031L655.793 37.5181L655.478 38.1481L655.583 38.2081L658.433 32.7031C658.663 32.2731 659.033 32.0581 659.543 32.0581C659.673 32.0581 659.808 32.0781 659.948 32.1181C660.098 32.1481 660.208 32.1881 660.278 32.2381L656.543 38.8831V41.6581C656.543 42.0381 656.423 42.3281 656.183 42.5281C655.943 42.7281 655.593 42.8281 655.133 42.8281V38.8831ZM669 33.4381H665.34C665.34 32.6081 665.73 32.1931 666.51 32.1931H674.055C674.055 33.0231 673.665 33.4381 672.885 33.4381H670.41V41.6581C670.41 42.0381 670.29 42.3281 670.05 42.5281C669.81 42.7281 669.46 42.8281 669 42.8281V33.4381ZM675.635 32.8531C675.635 32.6631 675.7 32.5081 675.83 32.3881C675.97 32.2581 676.145 32.1931 676.355 32.1931H680.495C681.465 32.1931 682.235 32.4781 682.805 33.0481C683.385 33.6081 683.675 34.3581 683.675 35.2981C683.675 36.4781 683.16 37.3131 682.13 37.8031V37.8481C682.58 38.0381 682.925 38.3281 683.165 38.7181C683.405 39.0981 683.525 39.5631 683.525 40.1131V41.6581C683.525 42.0381 683.405 42.3281 683.165 42.5281C682.925 42.7281 682.575 42.8281 682.115 42.8281V40.2031C682.115 39.6131 681.98 39.1681 681.71 38.8681C681.45 38.5581 681.06 38.4031 680.54 38.4031H677.03V41.6581C677.03 42.0381 676.91 42.3281 676.67 42.5281C676.44 42.7281 676.095 42.8281 675.635 42.8281V32.8531ZM680.45 37.1881C681 37.1881 681.435 37.0181 681.755 36.6781C682.085 36.3381 682.25 35.8731 682.25 35.2831C682.25 34.6831 682.095 34.2231 681.785 33.9031C681.475 33.5831 681.03 33.4231 680.45 33.4231H677.03V37.1881H680.45ZM686.211 42.8281C685.911 42.7681 685.676 42.6431 685.506 42.4531C685.336 42.2531 685.251 42.0131 685.251 41.7331C685.251 41.5431 685.296 41.3431 685.386 41.1331L688.971 32.5081C689.091 32.2081 689.321 32.0581 689.661 32.0581C689.981 32.0581 690.206 32.2081 690.336 32.5081L693.921 41.1331C694.011 41.3431 694.056 41.5431 694.056 41.7331C694.056 42.0031 693.971 42.2381 693.801 42.4381C693.631 42.6381 693.396 42.7681 693.096 42.8281L691.806 39.6931H687.501L686.211 42.8281ZM691.371 38.4781L689.436 33.5731L689.316 33.6181L689.586 34.3081L687.936 38.4781H691.371ZM696.077 33.2281C696.077 32.8581 696.197 32.5731 696.437 32.3731C696.687 32.1631 697.037 32.0581 697.487 32.0581V41.6581C697.487 42.0281 697.362 42.3181 697.112 42.5281C696.872 42.7281 696.527 42.8281 696.077 42.8281V33.2281ZM703.028 33.4381H699.368C699.368 32.6081 699.758 32.1931 700.538 32.1931H708.083C708.083 33.0231 707.693 33.4381 706.913 33.4381H704.438V41.6581C704.438 42.0381 704.318 42.3281 704.078 42.5281C703.838 42.7281 703.488 42.8281 703.028 42.8281V33.4381ZM712.74 42.8281C711.9 42.8281 711.17 42.7081 710.55 42.4681C709.94 42.2281 709.475 41.9081 709.155 41.5081C708.835 41.1081 708.675 40.6781 708.675 40.2181C708.675 39.8381 708.775 39.5481 708.975 39.3481C709.175 39.1381 709.48 39.0331 709.89 39.0331C709.89 39.8831 710.145 40.5331 710.655 40.9831C711.165 41.4231 711.88 41.6431 712.8 41.6431C713.68 41.6431 714.355 41.4981 714.825 41.2081C715.295 40.9081 715.53 40.4681 715.53 39.8881C715.53 39.5381 715.44 39.2531 715.26 39.0331C715.09 38.8031 714.795 38.6081 714.375 38.4481C713.965 38.2781 713.37 38.1081 712.59 37.9381C711.67 37.7381 710.94 37.5081 710.4 37.2481C709.86 36.9781 709.465 36.6531 709.215 36.2731C708.965 35.8931 708.84 35.4231 708.84 34.8631C708.84 34.3031 708.995 33.8131 709.305 33.3931C709.625 32.9631 710.075 32.6331 710.655 32.4031C711.235 32.1731 711.91 32.0581 712.68 32.0581C713.41 32.0581 714.06 32.1631 714.63 32.3731C715.21 32.5731 715.66 32.8631 715.98 33.2431C716.31 33.6131 716.475 34.0331 716.475 34.5031C716.475 34.7931 716.38 35.0231 716.19 35.1931C716.01 35.3531 715.725 35.4331 715.335 35.4331C715.225 34.6731 714.955 34.1181 714.525 33.7681C714.105 33.4181 713.49 33.2431 712.68 33.2431C711.9 33.2431 711.3 33.3831 710.88 33.6631C710.46 33.9331 710.25 34.3181 710.25 34.8181C710.25 35.1681 710.325 35.4581 710.475 35.6881C710.635 35.9081 710.9 36.0981 711.27 36.2581C711.65 36.4181 712.18 36.5731 712.86 36.7231C713.88 36.9431 714.68 37.1881 715.26 37.4581C715.85 37.7281 716.275 38.0581 716.535 38.4481C716.795 38.8381 716.925 39.3181 716.925 39.8881C716.925 40.7981 716.545 41.5181 715.785 42.0481C715.025 42.5681 714.01 42.8281 712.74 42.8281ZM723.125 42.8281C722.845 42.8281 722.61 42.7381 722.42 42.5581C722.23 42.3681 722.135 42.1331 722.135 41.8531C722.135 41.5731 722.23 41.3381 722.42 41.1481C722.61 40.9581 722.845 40.8631 723.125 40.8631C723.395 40.8631 723.63 40.9631 723.83 41.1631C724.03 41.3531 724.13 41.5831 724.13 41.8531C724.13 42.1231 724.03 42.3531 723.83 42.5431C723.63 42.7331 723.395 42.8281 723.125 42.8281Z" fill="white"/>
<path d="M548.502 9.43815H544.842C544.842 8.60815 545.232 8.19315 546.012 8.19315H553.557C553.557 9.02315 553.167 9.43815 552.387 9.43815H549.912V17.6581C549.912 18.0381 549.792 18.3281 549.552 18.5281C549.312 18.7281 548.962 18.8281 548.502 18.8281V9.43815ZM555.137 9.22815C555.137 8.84815 555.257 8.55815 555.497 8.35815C555.737 8.15815 556.087 8.05814 556.547 8.05814V12.7831H561.872V9.22815C561.872 8.84815 561.992 8.55815 562.232 8.35815C562.472 8.15815 562.822 8.05814 563.282 8.05814V17.6581C563.282 18.0381 563.162 18.3281 562.922 18.5281C562.682 18.7281 562.332 18.8281 561.872 18.8281V14.0281H556.547V17.6581C556.547 18.0381 556.427 18.3281 556.187 18.5281C555.947 18.7281 555.597 18.8281 555.137 18.8281V9.22815ZM565.377 8.85315C565.377 8.66315 565.447 8.50815 565.587 8.38815C565.727 8.25815 565.897 8.19315 566.097 8.19315H572.742C572.742 8.61314 572.657 8.92315 572.487 9.12315C572.317 9.32315 572.052 9.42315 571.692 9.42315H566.787V12.7831H570.987C570.987 13.2031 570.902 13.5131 570.732 13.7131C570.562 13.9131 570.302 14.0131 569.952 14.0131H566.787V17.4631H572.007C572.357 17.4631 572.617 17.5631 572.787 17.7631C572.957 17.9631 573.042 18.2731 573.042 18.6931H566.097C565.897 18.6931 565.727 18.6331 565.587 18.5131C565.447 18.3831 565.377 18.2231 565.377 18.0331V8.85315ZM574.766 9.22815C574.766 8.85815 574.891 8.57315 575.141 8.37315C575.391 8.16315 575.736 8.05814 576.176 8.05814L579.806 16.7731L579.521 17.4781L579.626 17.5231L583.466 8.05814C583.906 8.05814 584.251 8.16315 584.501 8.37315C584.761 8.58315 584.891 8.87314 584.891 9.24314V18.8281C583.961 18.8281 583.496 18.4431 583.496 17.6731V11.3581L583.886 10.3231L583.766 10.2931L580.421 18.4231C580.371 18.5431 580.291 18.6381 580.181 18.7081C580.071 18.7881 579.956 18.8281 579.836 18.8281C579.706 18.8281 579.586 18.7931 579.476 18.7231C579.366 18.6531 579.286 18.5531 579.236 18.4231L575.891 10.2781L575.771 10.3231L576.161 11.3431V17.6731C576.161 18.0531 576.041 18.3431 575.801 18.5431C575.571 18.7331 575.226 18.8281 574.766 18.8281V9.22815ZM590.748 18.8281C589.908 18.8281 589.178 18.7081 588.558 18.4681C587.948 18.2281 587.483 17.9081 587.163 17.5081C586.843 17.1081 586.683 16.6781 586.683 16.2181C586.683 15.8381 586.783 15.5481 586.983 15.3481C587.183 15.1381 587.488 15.0331 587.898 15.0331C587.898 15.8831 588.153 16.5331 588.663 16.9831C589.173 17.4231 589.888 17.6431 590.808 17.6431C591.688 17.6431 592.363 17.4981 592.833 17.2081C593.303 16.9081 593.538 16.4681 593.538 15.8881C593.538 15.5381 593.448 15.2531 593.268 15.0331C593.098 14.8031 592.803 14.6081 592.383 14.4481C591.973 14.2781 591.378 14.1081 590.598 13.9381C589.678 13.7381 588.948 13.5081 588.408 13.2481C587.868 12.9781 587.473 12.6531 587.223 12.2731C586.973 11.8931 586.848 11.4231 586.848 10.8631C586.848 10.3031 587.003 9.81315 587.313 9.39315C587.633 8.96315 588.083 8.63315 588.663 8.40315C589.243 8.17314 589.918 8.05814 590.688 8.05814C591.418 8.05814 592.068 8.16315 592.638 8.37315C593.218 8.57315 593.668 8.86315 593.988 9.24314C594.318 9.61314 594.483 10.0331 594.483 10.5031C594.483 10.7931 594.388 11.0231 594.198 11.1931C594.018 11.3531 593.733 11.4331 593.343 11.4331C593.233 10.6731 592.963 10.1181 592.533 9.76815C592.113 9.41815 591.498 9.24314 590.688 9.24314C589.908 9.24314 589.308 9.38314 588.888 9.66314C588.468 9.93314 588.258 10.3181 588.258 10.8181C588.258 11.1681 588.333 11.4581 588.483 11.6881C588.643 11.9081 588.908 12.0981 589.278 12.2581C589.658 12.4181 590.188 12.5731 590.868 12.7231C591.888 12.9431 592.688 13.1881 593.268 13.4581C593.858 13.7281 594.283 14.0581 594.543 14.4481C594.803 14.8381 594.933 15.3181 594.933 15.8881C594.933 16.7981 594.553 17.5181 593.793 18.0481C593.033 18.5681 592.018 18.8281 590.748 18.8281ZM596.651 8.85315C596.651 8.66315 596.721 8.50815 596.861 8.38815C597.001 8.25815 597.171 8.19315 597.371 8.19315H604.016C604.016 8.61314 603.931 8.92315 603.761 9.12315C603.591 9.32315 603.326 9.42315 602.966 9.42315H598.061V12.7831H602.261C602.261 13.2031 602.176 13.5131 602.006 13.7131C601.836 13.9131 601.576 14.0131 601.226 14.0131H598.061V17.4631H603.281C603.631 17.4631 603.891 17.5631 604.061 17.7631C604.231 17.9631 604.316 18.2731 604.316 18.6931H597.371C597.171 18.6931 597.001 18.6331 596.861 18.5131C596.721 18.3831 596.651 18.2231 596.651 18.0331V8.85315ZM606.776 18.6931C606.576 18.6931 606.401 18.6231 606.251 18.4831C606.111 18.3331 606.041 18.1581 606.041 17.9581V9.22815C606.041 8.44815 606.511 8.05814 607.451 8.05814V17.4481H612.056C612.406 17.4481 612.676 17.5581 612.866 17.7781C613.056 17.9881 613.151 18.2931 613.151 18.6931H606.776ZM617.022 18.8281C616.692 18.8281 616.467 18.6781 616.347 18.3781L612.477 8.19315C612.557 8.15314 612.652 8.12315 612.762 8.10315C612.872 8.07315 612.972 8.05814 613.062 8.05814C613.342 8.05814 613.577 8.12814 613.767 8.26814C613.967 8.39815 614.112 8.58315 614.202 8.82314L616.947 16.4881L616.677 17.2531L616.797 17.2981L619.842 8.82314C619.932 8.58315 620.077 8.39815 620.277 8.26814C620.477 8.12814 620.717 8.05814 620.997 8.05814C621.167 8.05814 621.362 8.10315 621.582 8.19315L617.712 18.3781C617.662 18.5181 617.577 18.6281 617.457 18.7081C617.337 18.7881 617.192 18.8281 617.022 18.8281ZM623.311 8.85315C623.311 8.66315 623.381 8.50815 623.521 8.38815C623.661 8.25815 623.831 8.19315 624.031 8.19315H630.676C630.676 8.61314 630.591 8.92315 630.421 9.12315C630.251 9.32315 629.986 9.42315 629.626 9.42315H624.721V12.7831H628.921C628.921 13.2031 628.836 13.5131 628.666 13.7131C628.496 13.9131 628.236 14.0131 627.886 14.0131H624.721V17.4631H629.941C630.291 17.4631 630.551 17.5631 630.721 17.7631C630.891 17.9631 630.976 18.2731 630.976 18.6931H624.031C623.831 18.6931 623.661 18.6331 623.521 18.5131C623.381 18.3831 623.311 18.2231 623.311 18.0331V8.85315ZM636.07 18.8281C635.23 18.8281 634.5 18.7081 633.88 18.4681C633.27 18.2281 632.805 17.9081 632.485 17.5081C632.165 17.1081 632.005 16.6781 632.005 16.2181C632.005 15.8381 632.105 15.5481 632.305 15.3481C632.505 15.1381 632.81 15.0331 633.22 15.0331C633.22 15.8831 633.475 16.5331 633.985 16.9831C634.495 17.4231 635.21 17.6431 636.13 17.6431C637.01 17.6431 637.685 17.4981 638.155 17.2081C638.625 16.9081 638.86 16.4681 638.86 15.8881C638.86 15.5381 638.77 15.2531 638.59 15.0331C638.42 14.8031 638.125 14.6081 637.705 14.4481C637.295 14.2781 636.7 14.1081 635.92 13.9381C635 13.7381 634.27 13.5081 633.73 13.2481C633.19 12.9781 632.795 12.6531 632.545 12.2731C632.295 11.8931 632.17 11.4231 632.17 10.8631C632.17 10.3031 632.325 9.81315 632.635 9.39315C632.955 8.96315 633.405 8.63315 633.985 8.40315C634.565 8.17314 635.24 8.05814 636.01 8.05814C636.74 8.05814 637.39 8.16315 637.96 8.37315C638.54 8.57315 638.99 8.86315 639.31 9.24314C639.64 9.61314 639.805 10.0331 639.805 10.5031C639.805 10.7931 639.71 11.0231 639.52 11.1931C639.34 11.3531 639.055 11.4331 638.665 11.4331C638.555 10.6731 638.285 10.1181 637.855 9.76815C637.435 9.41815 636.82 9.24314 636.01 9.24314C635.23 9.24314 634.63 9.38314 634.21 9.66314C633.79 9.93314 633.58 10.3181 633.58 10.8181C633.58 11.1681 633.655 11.4581 633.805 11.6881C633.965 11.9081 634.23 12.0981 634.6 12.2581C634.98 12.4181 635.51 12.5731 636.19 12.7231C637.21 12.9431 638.01 13.1881 638.59 13.4581C639.18 13.7281 639.605 14.0581 639.865 14.4481C640.125 14.8381 640.255 15.3181 640.255 15.8881C640.255 16.7981 639.875 17.5181 639.115 18.0481C638.355 18.5681 637.34 18.8281 636.07 18.8281ZM642.588 18.8281C642.308 18.8281 642.073 18.7381 641.883 18.5581C641.693 18.3681 641.598 18.1331 641.598 17.8531C641.598 17.5731 641.693 17.3381 641.883 17.1481C642.073 16.9581 642.308 16.8631 642.588 16.8631C642.858 16.8631 643.093 16.9631 643.293 17.1631C643.493 17.3531 643.593 17.5831 643.593 17.8531C643.593 18.1231 643.493 18.3531 643.293 18.5431C643.093 18.7331 642.858 18.8281 642.588 18.8281Z" fill="black"/>
<path d="M517.271 9.43815H513.611C513.611 8.60815 514.001 8.19315 514.781 8.19315H522.326C522.326 9.02315 521.936 9.43815 521.156 9.43815H518.681V17.6581C518.681 18.0381 518.561 18.3281 518.321 18.5281C518.081 18.7281 517.731 18.8281 517.271 18.8281V9.43815ZM523.907 9.22815C523.907 8.84815 524.027 8.55815 524.267 8.35815C524.507 8.15815 524.857 8.05814 525.317 8.05814V12.7831H530.642V9.22815C530.642 8.84815 530.762 8.55815 531.002 8.35815C531.242 8.15815 531.592 8.05814 532.052 8.05814V17.6581C532.052 18.0381 531.932 18.3281 531.692 18.5281C531.452 18.7281 531.102 18.8281 530.642 18.8281V14.0281H525.317V17.6581C525.317 18.0381 525.197 18.3281 524.957 18.5281C524.717 18.7281 524.367 18.8281 523.907 18.8281V9.22815ZM534.146 8.85315C534.146 8.66315 534.216 8.50815 534.356 8.38815C534.496 8.25815 534.666 8.19315 534.866 8.19315H541.511C541.511 8.61314 541.426 8.92315 541.256 9.12315C541.086 9.32315 540.821 9.42315 540.461 9.42315H535.556V12.7831H539.756C539.756 13.2031 539.671 13.5131 539.501 13.7131C539.331 13.9131 539.071 14.0131 538.721 14.0131H535.556V17.4631H540.776C541.126 17.4631 541.386 17.5631 541.556 17.7631C541.726 17.9631 541.811 18.2731 541.811 18.6931H534.866C534.666 18.6931 534.496 18.6331 534.356 18.5131C534.216 18.3831 534.146 18.2231 534.146 18.0331V8.85315ZM543.536 9.22815C543.536 8.85815 543.661 8.57315 543.911 8.37315C544.161 8.16315 544.506 8.05814 544.946 8.05814L548.576 16.7731L548.291 17.4781L548.396 17.5231L552.236 8.05814C552.676 8.05814 553.021 8.16315 553.271 8.37315C553.531 8.58315 553.661 8.87314 553.661 9.24314V18.8281C552.731 18.8281 552.266 18.4431 552.266 17.6731V11.3581L552.656 10.3231L552.536 10.2931L549.191 18.4231C549.141 18.5431 549.061 18.6381 548.951 18.7081C548.841 18.7881 548.726 18.8281 548.606 18.8281C548.476 18.8281 548.356 18.7931 548.246 18.7231C548.136 18.6531 548.056 18.5531 548.006 18.4231L544.661 10.2781L544.541 10.3231L544.931 11.3431V17.6731C544.931 18.0531 544.811 18.3431 544.571 18.5431C544.341 18.7331 543.996 18.8281 543.536 18.8281V9.22815ZM559.517 18.8281C558.677 18.8281 557.947 18.7081 557.327 18.4681C556.717 18.2281 556.252 17.9081 555.932 17.5081C555.612 17.1081 555.452 16.6781 555.452 16.2181C555.452 15.8381 555.552 15.5481 555.752 15.3481C555.952 15.1381 556.257 15.0331 556.667 15.0331C556.667 15.8831 556.922 16.5331 557.432 16.9831C557.942 17.4231 558.657 17.6431 559.577 17.6431C560.457 17.6431 561.132 17.4981 561.602 17.2081C562.072 16.9081 562.307 16.4681 562.307 15.8881C562.307 15.5381 562.217 15.2531 562.037 15.0331C561.867 14.8031 561.572 14.6081 561.152 14.4481C560.742 14.2781 560.147 14.1081 559.367 13.9381C558.447 13.7381 557.717 13.5081 557.177 13.2481C556.637 12.9781 556.242 12.6531 555.992 12.2731C555.742 11.8931 555.617 11.4231 555.617 10.8631C555.617 10.3031 555.772 9.81315 556.082 9.39315C556.402 8.96315 556.852 8.63315 557.432 8.40315C558.012 8.17314 558.687 8.05814 559.457 8.05814C560.187 8.05814 560.837 8.16315 561.407 8.37315C561.987 8.57315 562.437 8.86315 562.757 9.24314C563.087 9.61314 563.252 10.0331 563.252 10.5031C563.252 10.7931 563.157 11.0231 562.967 11.1931C562.787 11.3531 562.502 11.4331 562.112 11.4331C562.002 10.6731 561.732 10.1181 561.302 9.76815C560.882 9.41815 560.267 9.24314 559.457 9.24314C558.677 9.24314 558.077 9.38314 557.657 9.66314C557.237 9.93314 557.027 10.3181 557.027 10.8181C557.027 11.1681 557.102 11.4581 557.252 11.6881C557.412 11.9081 557.677 12.0981 558.047 12.2581C558.427 12.4181 558.957 12.5731 559.637 12.7231C560.657 12.9431 561.457 13.1881 562.037 13.4581C562.627 13.7281 563.052 14.0581 563.312 14.4481C563.572 14.8381 563.702 15.3181 563.702 15.8881C563.702 16.7981 563.322 17.5181 562.562 18.0481C561.802 18.5681 560.787 18.8281 559.517 18.8281ZM565.42 8.85315C565.42 8.66315 565.49 8.50815 565.63 8.38815C565.77 8.25815 565.94 8.19315 566.14 8.19315H572.785C572.785 8.61314 572.7 8.92315 572.53 9.12315C572.36 9.32315 572.095 9.42315 571.735 9.42315H566.83V12.7831H571.03C571.03 13.2031 570.945 13.5131 570.775 13.7131C570.605 13.9131 570.345 14.0131 569.995 14.0131H566.83V17.4631H572.05C572.4 17.4631 572.66 17.5631 572.83 17.7631C573 17.9631 573.085 18.2731 573.085 18.6931H566.14C565.94 18.6931 565.77 18.6331 565.63 18.5131C565.49 18.3831 565.42 18.2231 565.42 18.0331V8.85315ZM575.545 18.6931C575.345 18.6931 575.17 18.6231 575.02 18.4831C574.88 18.3331 574.81 18.1581 574.81 17.9581V9.22815C574.81 8.44815 575.28 8.05814 576.22 8.05814V17.4481H580.825C581.175 17.4481 581.445 17.5581 581.635 17.7781C581.825 17.9881 581.92 18.2931 581.92 18.6931H575.545ZM585.792 18.8281C585.462 18.8281 585.237 18.6781 585.117 18.3781L581.247 8.19315C581.327 8.15314 581.422 8.12315 581.532 8.10315C581.642 8.07315 581.742 8.05814 581.832 8.05814C582.112 8.05814 582.347 8.12814 582.537 8.26814C582.737 8.39815 582.882 8.58315 582.972 8.82314L585.717 16.4881L585.447 17.2531L585.567 17.2981L588.612 8.82314C588.702 8.58315 588.847 8.39815 589.047 8.26814C589.247 8.12814 589.487 8.05814 589.767 8.05814C589.937 8.05814 590.132 8.10315 590.352 8.19315L586.482 18.3781C586.432 18.5181 586.347 18.6281 586.227 18.7081C586.107 18.7881 585.962 18.8281 585.792 18.8281ZM592.081 8.85315C592.081 8.66315 592.151 8.50815 592.291 8.38815C592.431 8.25815 592.601 8.19315 592.801 8.19315H599.446C599.446 8.61314 599.361 8.92315 599.191 9.12315C599.021 9.32315 598.756 9.42315 598.396 9.42315H593.491V12.7831H597.691C597.691 13.2031 597.606 13.5131 597.436 13.7131C597.266 13.9131 597.006 14.0131 596.656 14.0131H593.491V17.4631H598.711C599.061 17.4631 599.321 17.5631 599.491 17.7631C599.661 17.9631 599.746 18.2731 599.746 18.6931H592.801C592.601 18.6931 592.431 18.6331 592.291 18.5131C592.151 18.3831 592.081 18.2231 592.081 18.0331V8.85315ZM604.839 18.8281C603.999 18.8281 603.269 18.7081 602.649 18.4681C602.039 18.2281 601.574 17.9081 601.254 17.5081C600.934 17.1081 600.774 16.6781 600.774 16.2181C600.774 15.8381 600.874 15.5481 601.074 15.3481C601.274 15.1381 601.579 15.0331 601.989 15.0331C601.989 15.8831 602.244 16.5331 602.754 16.9831C603.264 17.4231 603.979 17.6431 604.899 17.6431C605.779 17.6431 606.454 17.4981 606.924 17.2081C607.394 16.9081 607.629 16.4681 607.629 15.8881C607.629 15.5381 607.539 15.2531 607.359 15.0331C607.189 14.8031 606.894 14.6081 606.474 14.4481C606.064 14.2781 605.469 14.1081 604.689 13.9381C603.769 13.7381 603.039 13.5081 602.499 13.2481C601.959 12.9781 601.564 12.6531 601.314 12.2731C601.064 11.8931 600.939 11.4231 600.939 10.8631C600.939 10.3031 601.094 9.81315 601.404 9.39315C601.724 8.96315 602.174 8.63315 602.754 8.40315C603.334 8.17314 604.009 8.05814 604.779 8.05814C605.509 8.05814 606.159 8.16315 606.729 8.37315C607.309 8.57315 607.759 8.86315 608.079 9.24314C608.409 9.61314 608.574 10.0331 608.574 10.5031C608.574 10.7931 608.479 11.0231 608.289 11.1931C608.109 11.3531 607.824 11.4331 607.434 11.4331C607.324 10.6731 607.054 10.1181 606.624 9.76815C606.204 9.41815 605.589 9.24314 604.779 9.24314C603.999 9.24314 603.399 9.38314 602.979 9.66314C602.559 9.93314 602.349 10.3181 602.349 10.8181C602.349 11.1681 602.424 11.4581 602.574 11.6881C602.734 11.9081 602.999 12.0981 603.369 12.2581C603.749 12.4181 604.279 12.5731 604.959 12.7231C605.979 12.9431 606.779 13.1881 607.359 13.4581C607.949 13.7281 608.374 14.0581 608.634 14.4481C608.894 14.8381 609.024 15.3181 609.024 15.8881C609.024 16.7981 608.644 17.5181 607.884 18.0481C607.124 18.5681 606.109 18.8281 604.839 18.8281ZM611.358 18.8281C611.078 18.8281 610.843 18.7381 610.653 18.5581C610.463 18.3681 610.368 18.1331 610.368 17.8531C610.368 17.5731 610.463 17.3381 610.653 17.1481C610.843 16.9581 611.078 16.8631 611.358 16.8631C611.628 16.8631 611.863 16.9631 612.063 17.1631C612.263 17.3531 612.363 17.5831 612.363 17.8531C612.363 18.1231 612.263 18.3531 612.063 18.5431C611.863 18.7331 611.628 18.8281 611.358 18.8281Z" fill="white"/>
</svg>
