<svg width="43" height="26" viewBox="0 0 43 26" fill="none" xmlns="http://www.w3.org/2000/svg">
<path d="M7.56587 16.9704H1.67827C1.41408 16.9704 1.20022 16.9012 1.03667 16.7628C0.885709 16.6244 0.810227 16.4357 0.810227 16.1967C0.810227 15.9577 0.885709 15.7438 1.03667 15.5551L7.84893 7.21432C7.93699 7.11368 8.0565 7.03191 8.20747 6.96901C8.37101 6.9061 8.54085 6.87465 8.71697 6.87465C8.99374 6.87465 9.21389 6.95643 9.37744 7.11997C9.54098 7.28352 9.62275 7.49738 9.62275 7.76157V15.2343H11.8117C11.8117 15.8381 11.6985 16.2785 11.4721 16.5552C11.2456 16.832 10.8934 16.9704 10.4153 16.9704H9.62275V18.9895C9.62275 19.4802 9.45292 19.845 9.11325 20.084C8.78616 20.3105 8.27037 20.4237 7.56587 20.4237V16.9704ZM7.67909 15.2343V10.3091L8.30182 9.49765L8.16973 9.4033L3.50871 15.2343H7.67909ZM18.2355 20.4237C17.3046 20.4237 16.4554 20.2727 15.688 19.9708C14.9332 19.6563 14.3356 19.2348 13.8953 18.7065C13.4676 18.1655 13.2537 17.5617 13.2537 16.8949C13.2537 16.4168 13.3795 16.0646 13.6311 15.8381C13.8827 15.5991 14.279 15.4796 14.82 15.4796L15.1596 15.4985C15.1219 15.7249 15.103 15.9514 15.103 16.1778C15.103 16.9578 15.3798 17.5679 15.9333 18.0083C16.4869 18.436 17.2543 18.6499 18.2355 18.6499C19.2294 18.6499 19.9968 18.3794 20.5377 17.8384C21.0913 17.2849 21.368 16.5112 21.368 15.5173C21.368 14.5235 21.0975 13.7687 20.5566 13.2529C20.0156 12.7371 19.2357 12.4792 18.2166 12.4792C17.0844 12.4792 16.1661 12.7937 15.4616 13.4227C15.2225 13.624 14.9583 13.7246 14.669 13.7246C14.3922 13.7246 14.1532 13.6429 13.9519 13.4793C13.7632 13.3032 13.6689 13.0768 13.6689 12.8L13.6877 12.649L14.4425 7.78044C14.4803 7.54141 14.5872 7.359 14.7633 7.23319C14.9395 7.10739 15.1722 7.04449 15.4616 7.04449H22.7456C22.7456 7.62318 22.6198 8.0635 22.3682 8.36542C22.1166 8.65477 21.7454 8.79945 21.2548 8.79945H16.0465L15.6503 11.3281C15.4238 11.4916 15.1848 11.6866 14.9332 11.9131L15.0087 12.0263C15.4867 11.6363 16.0528 11.3281 16.707 11.1016C17.3612 10.8626 18.0028 10.7431 18.6318 10.7431C20.0911 10.7431 21.2422 11.1708 22.0851 12.0263C22.928 12.8692 23.3494 14.0329 23.3494 15.5173C23.3494 16.5112 23.1419 17.3792 22.7267 18.1215C22.3115 18.8637 21.714 19.4361 20.934 19.8387C20.1666 20.2287 19.2671 20.4237 18.2355 20.4237ZM40.407 16.6873C40.407 17.7944 39.9667 18.6813 39.0861 19.3481C38.2181 20.0022 37.0355 20.3608 35.5384 20.4237V21.4238C35.5384 21.7383 35.4567 21.9774 35.2931 22.1409C35.1296 22.3044 34.8969 22.3862 34.5949 22.3862V20.4048C33.6137 20.3545 32.7645 20.1784 32.0474 19.8764C31.3429 19.5745 30.802 19.1845 30.4245 18.7065C30.0597 18.2158 29.8773 17.6812 29.8773 17.1025C29.8773 16.637 30.0157 16.2722 30.2924 16.008C30.5692 15.7312 31.0032 15.5928 31.5945 15.5928C31.6071 16.5238 31.8713 17.2597 32.3871 17.8007C32.9029 18.3291 33.6388 18.6373 34.5949 18.7253V14.3096C33.4879 14.0454 32.6072 13.7435 31.9531 13.4039C31.2989 13.0642 30.8208 12.6553 30.5189 12.1773C30.2295 11.6992 30.0849 11.1142 30.0849 10.4223C30.0849 9.4033 30.4937 8.57929 31.3115 7.95027C32.1292 7.30868 33.2237 6.95643 34.5949 6.89353V5.85565C34.5949 5.55372 34.6767 5.32098 34.8402 5.15744C35.0038 4.99389 35.2365 4.91212 35.5384 4.91212V6.89353C36.3813 6.94385 37.1299 7.10739 37.784 7.38416C38.4382 7.64835 38.9477 8.00059 39.3126 8.44091C39.69 8.88122 39.8787 9.38443 39.8787 9.95055C39.8787 10.328 39.7466 10.6299 39.4824 10.8563C39.2182 11.0828 38.803 11.2023 38.2369 11.2149C38.1363 10.3594 37.8658 9.71781 37.4255 9.29008C36.9978 8.86235 36.3688 8.61703 35.5384 8.55413V12.7056C36.7587 12.9824 37.7148 13.2969 38.4068 13.6492C39.1113 14.0014 39.6208 14.4229 39.9353 14.9135C40.2498 15.3915 40.407 15.9828 40.407 16.6873ZM32.104 10.3846C32.104 10.9381 32.2801 11.3721 32.6324 11.6866C32.9846 11.9886 33.6388 12.259 34.5949 12.4981V8.55413C33.7898 8.60445 33.1733 8.78687 32.7456 9.10137C32.3179 9.41588 32.104 9.84361 32.104 10.3846ZM35.5384 18.7631C36.4568 18.7253 37.1676 18.5303 37.6708 18.1781C38.174 17.8258 38.4256 17.3352 38.4256 16.7062C38.4256 16.3288 38.3376 16.0143 38.1614 15.7627C37.9853 15.4985 37.6897 15.272 37.2745 15.0833C36.872 14.8946 36.2933 14.7059 35.5384 14.5172V18.7631Z" fill="#4D4D4D"/>
<path d="M0.923828 23.9833L34.4654 2.18125" stroke="#4D4D4D" stroke-width="1.5"/>
</svg>
