<svg width="37" height="26" viewBox="0 0 37 26" fill="none" xmlns="http://www.w3.org/2000/svg">
<path d="M3.28038 7.30504H2.49638C2.15105 7.30504 1.88038 7.18837 1.68438 6.95504C1.49772 6.72171 1.40438 6.40437 1.40438 6.00304H4.07838C4.28372 6.00304 4.45172 6.06837 4.58238 6.19904C4.71305 6.32037 4.77838 6.47437 4.77838 6.66104V14.739C4.77838 15.1217 4.64772 15.4157 4.38638 15.621C4.13438 15.8264 3.76572 15.929 3.28038 15.929V7.30504ZM7.01554 15.803C6.80087 15.803 6.63287 15.747 6.51154 15.635C6.39021 15.5137 6.32954 15.3504 6.32954 15.145C6.32954 14.4264 6.60487 13.759 7.15554 13.143C7.71554 12.5177 8.59287 11.911 9.78754 11.323C10.4315 10.9964 10.9215 10.7117 11.2575 10.469C11.5935 10.2264 11.8269 9.97904 11.9575 9.72704C12.0975 9.47504 12.1675 9.17637 12.1675 8.83104C12.1675 8.30837 11.9949 7.90704 11.6495 7.62704C11.3042 7.34704 10.8049 7.20704 10.1515 7.20704C9.43287 7.20704 8.87754 7.37037 8.48554 7.69704C8.10287 8.02371 7.91154 8.49037 7.91154 9.09704C7.91154 9.28371 7.92554 9.47504 7.95354 9.67104C7.89754 9.68037 7.82287 9.68504 7.72954 9.68504C7.36554 9.68504 7.05287 9.57771 6.79154 9.36304C6.53021 9.14837 6.39954 8.88704 6.39954 8.57904C6.39954 8.07504 6.56287 7.61771 6.88954 7.20704C7.22554 6.79637 7.67821 6.47437 8.24754 6.24104C8.82621 5.99837 9.46087 5.87704 10.1515 5.87704C10.8609 5.87704 11.4815 5.99837 12.0135 6.24104C12.5549 6.48371 12.9702 6.82904 13.2595 7.27704C13.5489 7.72504 13.6935 8.24304 13.6935 8.83104C13.6935 9.50304 13.4462 10.1097 12.9515 10.651C12.4569 11.1924 11.6589 11.743 10.5575 12.303C8.94287 13.115 8.09354 13.8477 8.00954 14.501H12.6295C13.0122 14.501 13.3062 14.613 13.5115 14.837C13.7262 15.061 13.8335 15.383 13.8335 15.803H7.01554ZM19.0429 15.929C18.3429 15.929 17.6989 15.7937 17.1109 15.523C16.5322 15.2524 16.0749 14.8837 15.7389 14.417C15.4029 13.9504 15.2349 13.437 15.2349 12.877V8.92904C15.2349 8.36904 15.4029 7.85571 15.7389 7.38904C16.0749 6.92237 16.5322 6.55371 17.1109 6.28304C17.6989 6.01237 18.3429 5.87704 19.0429 5.87704C19.7429 5.87704 20.3822 6.01237 20.9609 6.28304C21.5489 6.55371 22.0109 6.92237 22.3469 7.38904C22.6922 7.85571 22.8649 8.36904 22.8649 8.92904V12.877C22.8649 13.437 22.6922 13.9504 22.3469 14.417C22.0109 14.8837 21.5489 15.2524 20.9609 15.523C20.3822 15.7937 19.7429 15.929 19.0429 15.929ZM19.0429 14.599C19.7335 14.599 20.2889 14.4357 20.7089 14.109C21.1382 13.7824 21.3529 13.3577 21.3529 12.835V8.97104C21.3529 8.44837 21.1382 8.02371 20.7089 7.69704C20.2889 7.37037 19.7335 7.20704 19.0429 7.20704C18.3522 7.20704 17.7922 7.37037 17.3629 7.69704C16.9429 8.02371 16.7329 8.44837 16.7329 8.97104V12.835C16.7329 13.3577 16.9429 13.7824 17.3629 14.109C17.7922 14.4357 18.3522 14.599 19.0429 14.599ZM35.7304 13.157C35.7304 13.9784 35.4037 14.6364 34.7504 15.131C34.1064 15.6164 33.2291 15.8824 32.1184 15.929V16.671C32.1184 16.9044 32.0577 17.0817 31.9364 17.203C31.8151 17.3244 31.6424 17.385 31.4184 17.385V15.915C30.6904 15.8777 30.0604 15.747 29.5284 15.523C29.0057 15.299 28.6044 15.0097 28.3244 14.655C28.0537 14.291 27.9184 13.8944 27.9184 13.465C27.9184 13.1197 28.0211 12.849 28.2264 12.653C28.4317 12.4477 28.7537 12.345 29.1924 12.345C29.2017 13.0357 29.3977 13.5817 29.7804 13.983C30.1631 14.375 30.7091 14.6037 31.4184 14.669V11.393C30.5971 11.197 29.9437 10.973 29.4584 10.721C28.9731 10.469 28.6184 10.1657 28.3944 9.81104C28.1797 9.45637 28.0724 9.02237 28.0724 8.50904C28.0724 7.75304 28.3757 7.14171 28.9824 6.67504C29.5891 6.19904 30.4011 5.93771 31.4184 5.89104V5.12104C31.4184 4.89704 31.4791 4.72437 31.6004 4.60304C31.7217 4.48171 31.8944 4.42104 32.1184 4.42104V5.89104C32.7437 5.92837 33.2991 6.04971 33.7844 6.25504C34.2697 6.45104 34.6477 6.71237 34.9184 7.03904C35.1984 7.36571 35.3384 7.73904 35.3384 8.15904C35.3384 8.43904 35.2404 8.66304 35.0444 8.83104C34.8484 8.99904 34.5404 9.08771 34.1204 9.09704C34.0457 8.46237 33.8451 7.98637 33.5184 7.66904C33.2011 7.35171 32.7344 7.16971 32.1184 7.12304V10.203C33.0237 10.4084 33.7331 10.6417 34.2464 10.903C34.7691 11.1644 35.1471 11.477 35.3804 11.841C35.6137 12.1957 35.7304 12.6344 35.7304 13.157ZM29.5704 8.48104C29.5704 8.89171 29.7011 9.21371 29.9624 9.44704C30.2237 9.67104 30.7091 9.87171 31.4184 10.049V7.12304C30.8211 7.16037 30.3637 7.29571 30.0464 7.52904C29.7291 7.76237 29.5704 8.07971 29.5704 8.48104ZM32.1184 14.697C32.7997 14.669 33.3271 14.5244 33.7004 14.263C34.0737 14.0017 34.2604 13.6377 34.2604 13.171C34.2604 12.891 34.1951 12.6577 34.0644 12.471C33.9337 12.275 33.7144 12.107 33.4064 11.967C33.1077 11.827 32.6784 11.687 32.1184 11.547V14.697Z" fill="#4D4D4D"/>
<path d="M2.05371 24.5324L35.5952 2.73044" stroke="#4D4D4D" stroke-width="1.5"/>
</svg>
