<svg width="32" height="26" viewBox="0 0 32 26" fill="none" xmlns="http://www.w3.org/2000/svg">
<path d="M5.4787 5.87704C6.24404 5.87704 6.9207 6.03571 7.5087 6.35304C8.10604 6.66104 8.56804 7.09971 8.8947 7.66904C9.22137 8.22904 9.3847 8.87304 9.3847 9.60104C9.3847 10.077 9.28204 10.5577 9.0767 11.043C8.87137 11.5284 8.5867 11.9717 8.2227 12.373L5.3247 15.551C5.19404 15.691 5.06804 15.789 4.9467 15.845C4.8347 15.901 4.69937 15.929 4.5407 15.929C4.16737 15.929 3.8407 15.7704 3.5607 15.453L5.6887 13.213C5.98737 13.129 6.23004 13.045 6.4167 12.961L6.3747 12.835C5.9827 13.003 5.58137 13.087 5.1707 13.087C4.46137 13.087 3.83137 12.9424 3.2807 12.653C2.73937 12.3637 2.31937 11.9577 2.0207 11.435C1.72204 10.903 1.5727 10.2917 1.5727 9.60104C1.5727 8.87304 1.73604 8.22904 2.0627 7.66904C2.38937 7.09971 2.8467 6.66104 3.4347 6.35304C4.03204 6.03571 4.71337 5.87704 5.4787 5.87704ZM5.4787 7.17904C4.76004 7.17904 4.17204 7.40771 3.7147 7.86504C3.25737 8.31304 3.0287 8.89171 3.0287 9.60104C3.0287 10.329 3.2527 10.917 3.7007 11.365C4.1487 11.813 4.74137 12.037 5.4787 12.037C6.19737 12.037 6.7807 11.813 7.2287 11.365C7.6767 10.9077 7.9007 10.3197 7.9007 9.60104C7.9007 9.13437 7.79804 8.71904 7.5927 8.35504C7.38737 7.98171 7.09804 7.69237 6.7247 7.48704C6.3607 7.28171 5.94537 7.17904 5.4787 7.17904ZM14.4885 5.87704C15.2538 5.87704 15.9305 6.03571 16.5185 6.35304C17.1158 6.66104 17.5778 7.09971 17.9045 7.66904C18.2311 8.22904 18.3945 8.87304 18.3945 9.60104C18.3945 10.077 18.2918 10.5577 18.0865 11.043C17.8811 11.5284 17.5965 11.9717 17.2325 12.373L14.3345 15.551C14.2038 15.691 14.0778 15.789 13.9565 15.845C13.8445 15.901 13.7091 15.929 13.5505 15.929C13.1771 15.929 12.8505 15.7704 12.5705 15.453L14.6985 13.213C14.9971 13.129 15.2398 13.045 15.4265 12.961L15.3845 12.835C14.9925 13.003 14.5911 13.087 14.1805 13.087C13.4711 13.087 12.8411 12.9424 12.2905 12.653C11.7491 12.3637 11.3291 11.9577 11.0305 11.435C10.7318 10.903 10.5825 10.2917 10.5825 9.60104C10.5825 8.87304 10.7458 8.22904 11.0725 7.66904C11.3991 7.09971 11.8565 6.66104 12.4445 6.35304C13.0418 6.03571 13.7231 5.87704 14.4885 5.87704ZM14.4885 7.17904C13.7698 7.17904 13.1818 7.40771 12.7245 7.86504C12.2671 8.31304 12.0385 8.89171 12.0385 9.60104C12.0385 10.329 12.2625 10.917 12.7105 11.365C13.1585 11.813 13.7511 12.037 14.4885 12.037C15.2071 12.037 15.7905 11.813 16.2385 11.365C16.6865 10.9077 16.9105 10.3197 16.9105 9.60104C16.9105 9.13437 16.8078 8.71904 16.6025 8.35504C16.3971 7.98171 16.1078 7.69237 15.7345 7.48704C15.3705 7.28171 14.9551 7.17904 14.4885 7.17904ZM31.0556 13.157C31.0556 13.9784 30.7289 14.6364 30.0756 15.131C29.4316 15.6164 28.5543 15.8824 27.4436 15.929V16.671C27.4436 16.9044 27.3829 17.0817 27.2616 17.203C27.1403 17.3244 26.9676 17.385 26.7436 17.385V15.915C26.0156 15.8777 25.3856 15.747 24.8536 15.523C24.3309 15.299 23.9296 15.0097 23.6496 14.655C23.3789 14.291 23.2436 13.8944 23.2436 13.465C23.2436 13.1197 23.3463 12.849 23.5516 12.653C23.7569 12.4477 24.0789 12.345 24.5176 12.345C24.5269 13.0357 24.7229 13.5817 25.1056 13.983C25.4883 14.375 26.0343 14.6037 26.7436 14.669V11.393C25.9223 11.197 25.2689 10.973 24.7836 10.721C24.2983 10.469 23.9436 10.1657 23.7196 9.81104C23.5049 9.45637 23.3976 9.02237 23.3976 8.50904C23.3976 7.75304 23.7009 7.14171 24.3076 6.67504C24.9143 6.19904 25.7263 5.93771 26.7436 5.89104V5.12104C26.7436 4.89704 26.8043 4.72437 26.9256 4.60304C27.0469 4.48171 27.2196 4.42104 27.4436 4.42104V5.89104C28.0689 5.92837 28.6243 6.04971 29.1096 6.25504C29.5949 6.45104 29.9729 6.71237 30.2436 7.03904C30.5236 7.36571 30.6636 7.73904 30.6636 8.15904C30.6636 8.43904 30.5656 8.66304 30.3696 8.83104C30.1736 8.99904 29.8656 9.08771 29.4456 9.09704C29.3709 8.46237 29.1703 7.98637 28.8436 7.66904C28.5263 7.35171 28.0596 7.16971 27.4436 7.12304V10.203C28.3489 10.4084 29.0583 10.6417 29.5716 10.903C30.0943 11.1644 30.4723 11.477 30.7056 11.841C30.9389 12.1957 31.0556 12.6344 31.0556 13.157ZM24.8956 8.48104C24.8956 8.89171 25.0263 9.21371 25.2876 9.44704C25.5489 9.67104 26.0343 9.87171 26.7436 10.049V7.12304C26.1463 7.16037 25.6889 7.29571 25.3716 7.52904C25.0543 7.76237 24.8956 8.07971 24.8956 8.48104ZM27.4436 14.697C28.1249 14.669 28.6523 14.5244 29.0256 14.263C29.3989 14.0017 29.5856 13.6377 29.5856 13.171C29.5856 12.891 29.5203 12.6577 29.3896 12.471C29.2589 12.275 29.0396 12.107 28.7316 11.967C28.4329 11.827 28.0036 11.687 27.4436 11.547V14.697Z" fill="#4D4D4D"/>
<path d="M2.73877 24.5326L29.5468 4.84451" stroke="#4D4D4D" stroke-width="1.5"/>
</svg>
